<svg id="Layer_1" data-name="Layer 1" xmlns="http://www.w3.org/2000/svg" viewBox="0 0 35 26"><defs><style>.cls-1{fill:#fff;}</style></defs><title>book-tn</title><path class="cls-1" d="M33.1,24.8H1.9a0.5,0.5,0,0,1-.5-0.5V21.1a0.5,0.5,0,0,1,.5-0.5H33.1a0.5,0.5,0,0,1,.5.5v3.2A0.5,0.5,0,0,1,33.1,24.8ZM2.5,23.7H32.5V21.6H2.5v2.1Z"/><path class="cls-1" d="M27.7,21.6H7.3a0.5,0.5,0,0,1-.5-0.5V18.9a0.5,0.5,0,0,1,.5-0.5H27.7a0.5,0.5,0,0,1,.5.5v2.1A0.5,0.5,0,0,1,27.7,21.6ZM7.8,20.5H27.2V19.4H7.8v1.1Z"/><path class="cls-1" d="M32,19.4H3a0.5,0.5,0,0,1-.5-0.5c0-8.8,6.6-15.6,15-15.6s15,6.8,15,15.6A0.5,0.5,0,0,1,32,19.4ZM3.5,18.4H31.5c-0.3-7.9-6.3-14-14-14S3.8,10.5,3.5,18.4Z"/><path class="cls-1" d="M5.7,15.7H5.5A0.6,0.6,0,0,1,5.1,15,12.8,12.8,0,0,1,15.2,5.7a0.6,0.6,0,0,1,.6.4,0.6,0.6,0,0,1-.4.6,11.9,11.9,0,0,0-9.3,8.5A0.5,0.5,0,0,1,5.7,15.7Z"/><path class="cls-1" d="M17.5,4.4A0.5,0.5,0,0,1,17,3.9V1.7a0.5,0.5,0,0,1,1.1,0V3.9A0.5,0.5,0,0,1,17.5,4.4Z"/><path class="cls-1" d="M20.2,2.3H14.8a0.5,0.5,0,0,1-.5-0.5,0.5,0.5,0,0,1,.5-0.5h5.4a0.5,0.5,0,0,1,.5.5A0.5,0.5,0,0,1,20.2,2.3Z"/></svg>