<svg id="artwork" xmlns="http://www.w3.org/2000/svg" viewBox="0 0 216 34"><defs><style>.cls-1{fill:#b3a16e;}.cls-2{fill:none;stroke:#424e5d;stroke-miterlimit:10;}</style></defs><title>lead-logo</title><path class="cls-1" d="M108,1.3A15.7,15.7,0,1,0,123.7,17,15.7,15.7,0,0,0,108,1.3Zm0,30.1A14.5,14.5,0,1,1,122.5,17,14.5,14.5,0,0,1,108,31.5Z"/><path class="cls-1" d="M108,3.2A13.8,13.8,0,1,0,121.8,17,13.8,13.8,0,0,0,108,3.2Zm6.4,14.9-2.1,3.6-0.9,3.1-2.9.6-0.3-3.9-1.2-4-2.1.4-4.2-1-1.2-3.1,2.9-4,2.7-1,3.3,1.9,4.2-.4,0.2,3.1,1.2,1.9,2.6-.4Z"/><line class="cls-2" x1="69.1" y1="17" x2="12" y2="17"/><line class="cls-2" x1="204" y1="17" x2="146.9" y2="17"/></svg>