<svg id="Layer_1" data-name="Layer 1" xmlns="http://www.w3.org/2000/svg" viewBox="0 0 149 86"><defs><style>.cls-1{fill:#fff;}.cls-2{fill:#b3a16e;}</style></defs><title>logo</title><path class="cls-1" d="M14.2,62.3l1.3-.2,1-.6a2.4,2.4,0,0,0,.6-0.8,2.3,2.3,0,0,0,.2-0.9,2.2,2.2,0,0,0-.6-1.5,5.4,5.4,0,0,0-1.4-1.1l-1.8-.9-1.8-.9A5.1,5.1,0,0,1,10.2,54a3.3,3.3,0,0,1-.6-1.9,4.1,4.1,0,0,1,.3-1.8,3.2,3.2,0,0,1,1-1.3,4.7,4.7,0,0,1,1.6-.7l1.9-.2L16,48.2l1.4,0.5a3,3,0,0,1,1,.9,2.2,2.2,0,0,1,.4,1.3,1.8,1.8,0,0,1-.6,1.3,2,2,0,0,1-1.4.5,1.2,1.2,0,0,1-.8-0.3L15.7,52h0.2l0.4-.2,0.4-.4a1.1,1.1,0,0,0,.2-0.6,1.5,1.5,0,0,0-.7-1.3,2.7,2.7,0,0,0-1.6-.5l-1.3.2-0.9.5a1.8,1.8,0,0,0-.5.7,2.3,2.3,0,0,0-.2.8,2,2,0,0,0,.5,1.4,5,5,0,0,0,1.4,1l2.1,1,1.9,1A5.2,5.2,0,0,1,18.9,57a3.9,3.9,0,0,1,.6,2.2,3.2,3.2,0,0,1-.4,1.6,4.1,4.1,0,0,1-1.1,1.3,5.6,5.6,0,0,1-1.7.8,6.9,6.9,0,0,1-2.1.3,6.7,6.7,0,0,1-3.6-.8,2.7,2.7,0,0,1-1.3-2.4,1.8,1.8,0,0,1,.6-1.3,2,2,0,0,1,1.4-.5,1.2,1.2,0,0,1,.8.3l0.2,0.4H12.2l-0.3.2-0.3.4a1.4,1.4,0,0,0-.1.6,2.1,2.1,0,0,0,.6,1.6,2.8,2.8,0,0,0,2,.6"/><path class="cls-1" d="M29.5,57.2h4.8l-2.3-5.8H31.9Zm0.9-8.9h1.2l0.9,0.3a2.5,2.5,0,0,1,.8.7,6.4,6.4,0,0,1,.7,1.2l3.8,9.4L38,60.7l0.3,0.6,0.4,0.4,0.6,0.2h0.4a0.4,0.4,0,0,1,.2.4,0.6,0.6,0,0,1-.1.3l-0.3.2H34.2l-0.3-.2a0.7,0.7,0,0,1-.1-0.3,0.4,0.4,0,0,1,.2-0.4h1.2l0.4-.3a1,1,0,0,0,0-.5l-0.2-.8-0.8-1.9H29l-0.7,1.9-0.2.9a0.6,0.6,0,0,0,.1.5l0.5,0.2h1.4a0.4,0.4,0,0,1,.2.4,0.6,0.6,0,0,1-.1.3l-0.3.2H25.2l-0.3-.2a0.7,0.7,0,0,1-.1-0.3,0.4,0.4,0,0,1,.2-0.4h1.1l0.5-.4,0.3-.6,0.3-.6,4-9.4a1.3,1.3,0,0,0,.1-0.7,0.7,0.7,0,0,0-.2-0.4l-0.4-.2h-1a0.4,0.4,0,0,1-.1-0.4,0.3,0.3,0,0,1,.3-0.4h0.6"/><path class="cls-1" d="M54.5,62.6l-0.2.2H53.7l-0.2-.2L48.4,51.1H48.4v9c0,0.2,0,.4,0,0.6a1.4,1.4,0,0,0,.2.6L49,61.7h1.2a0.5,0.5,0,0,1,.2.4,0.6,0.6,0,0,1-.1.3l-0.3.2H45.7l-0.3-.2a0.7,0.7,0,0,1-.1-0.3,0.4,0.4,0,0,1,.2-0.4h1.2l0.4-.4a1.4,1.4,0,0,0,.2-0.6c0-.2,0-0.4,0-0.6v-9a3.3,3.3,0,0,0-.1-0.9,1.1,1.1,0,0,0-.3-0.5l-0.5-.3-0.7-.2H45.4a0.4,0.4,0,0,1-.1-0.4,0.3,0.3,0,0,1,.3-0.4h2.2l1.2,0.3a3,3,0,0,1,1,.7,4.3,4.3,0,0,1,.7,1.2l3.9,8.7h0.1l4.5-11h4l0.3,0.2a0.7,0.7,0,0,1,.1.3,0.4,0.4,0,0,1-.2.4H62.1l-0.4.4a1.5,1.5,0,0,0-.2.6,5.9,5.9,0,0,0,0,.6v9a5.8,5.8,0,0,0,0,.6,1.5,1.5,0,0,0,.2.6l0.4,0.4h1.2a0.4,0.4,0,0,1,.2.4,0.7,0.7,0,0,1-.1.3l-0.3.2H57.6l-0.3-.2a0.7,0.7,0,0,1-.1-0.3,0.4,0.4,0,0,1,.2-0.4h1.2l0.4-.4a1.5,1.5,0,0,0,.2-0.6,6.1,6.1,0,0,0,0-.6v-9H59.1Z"/><path class="cls-1" d="M75,62.3l1.3-.2,1-.6a2.5,2.5,0,0,0,.6-0.8,2.3,2.3,0,0,0,.2-0.9,2.2,2.2,0,0,0-.6-1.5,5.4,5.4,0,0,0-1.4-1.1l-1.8-.9-1.8-.9A5.2,5.2,0,0,1,71,54a3.3,3.3,0,0,1-.6-1.9,4.1,4.1,0,0,1,.3-1.8,3.2,3.2,0,0,1,1-1.3,4.7,4.7,0,0,1,1.6-.7l1.9-.2,1.5,0.2,1.4,0.5a3,3,0,0,1,1,.9,2.2,2.2,0,0,1,.4,1.3,1.8,1.8,0,0,1-.6,1.3,2,2,0,0,1-1.4.5,1.2,1.2,0,0,1-.8-0.3L76.5,52h0.2l0.4-.2,0.4-.4a1.1,1.1,0,0,0,.2-0.6,1.5,1.5,0,0,0-.7-1.3,2.7,2.7,0,0,0-1.6-.5l-1.3.2-0.9.5a1.8,1.8,0,0,0-.5.7,2.3,2.3,0,0,0-.2.8,2,2,0,0,0,.5,1.4,5,5,0,0,0,1.4,1l2.1,1,1.9,1A5.2,5.2,0,0,1,79.7,57a3.9,3.9,0,0,1,.6,2.2,3.2,3.2,0,0,1-.4,1.6,4.1,4.1,0,0,1-1.1,1.3,5.6,5.6,0,0,1-1.7.8,6.9,6.9,0,0,1-2.1.3,6.7,6.7,0,0,1-3.6-.8,2.7,2.7,0,0,1-1.3-2.4,1.8,1.8,0,0,1,.6-1.3,2,2,0,0,1,1.4-.5,1.2,1.2,0,0,1,.8.3l0.2,0.4H73l-0.3.2-0.3.4a1.4,1.4,0,0,0-.1.6,2.1,2.1,0,0,0,.6,1.6,2.8,2.8,0,0,0,2,.6"/><path class="cls-1" d="M90.2,57.2H95l-2.3-5.8H92.6Zm0.9-8.9h1.2l1,0.3a2.5,2.5,0,0,1,.8.7,6.5,6.5,0,0,1,.7,1.2l3.8,9.4,0.2,0.6,0.3,0.6,0.4,0.4,0.6,0.2h0.4a0.4,0.4,0,0,1,.2.4,0.6,0.6,0,0,1-.1.3l-0.3.2H95l-0.3-.2a0.7,0.7,0,0,1-.1-0.3,0.4,0.4,0,0,1,.2-0.4H96l0.4-.3a1,1,0,0,0,0-.5l-0.2-.8-0.8-1.9H89.8l-0.7,1.9-0.2.9a0.6,0.6,0,0,0,.1.5l0.5,0.2h1.4a0.4,0.4,0,0,1,.2.4,0.6,0.6,0,0,1-.1.3l-0.3.2H85.9l-0.3-.2a0.7,0.7,0,0,1-.1-0.3,0.4,0.4,0,0,1,.2-0.4h1.1l0.5-.4,0.3-.6,0.3-.6,4-9.4a1.3,1.3,0,0,0,.1-0.7,0.7,0.7,0,0,0-.2-0.4l-0.4-.2h-1a0.4,0.4,0,0,1-.1-0.4,0.3,0.3,0,0,1,.3-0.4h0.6"/><path class="cls-1" d="M111.9,49.3h-0.8l-0.5.3a1.3,1.3,0,0,0-.2.6,5.1,5.1,0,0,0-.1.9v4.3h2a4.2,4.2,0,0,0,1.8-.3,2.6,2.6,0,0,0,1-.8,2.5,2.5,0,0,0,.4-1,5.5,5.5,0,0,0,.1-1,3.5,3.5,0,0,0-.2-1.1,2.5,2.5,0,0,0-.6-1,3.2,3.2,0,0,0-1.2-.7,5.3,5.3,0,0,0-1.8-.3m2.6,6.6,1.7,2.7a16.9,16.9,0,0,0,2,2.6l0.6,0.4,0.7,0.2h0.4a0.4,0.4,0,0,1,.2.4,0.7,0.7,0,0,1-.1.3l-0.3.2h-2a3.9,3.9,0,0,1-1.6-.6,5.8,5.8,0,0,1-1.2-1.3L113.8,59l-1.1-1.7-0.3-.4-0.3-.3-0.5-.2h-1.3v3.7a5.8,5.8,0,0,0,0,.6,1.5,1.5,0,0,0,.2.6l0.4,0.4h1.2a0.4,0.4,0,0,1,.2.4,0.7,0.7,0,0,1-.1.3l-0.3.2h-5.5l-0.3-.2a0.7,0.7,0,0,1-.1-0.3,0.4,0.4,0,0,1,.2-0.4h1.2l0.4-.4a1.5,1.5,0,0,0,.2-0.6,5.8,5.8,0,0,0,0-.6v-9a5.7,5.7,0,0,0,0-.6,1.5,1.5,0,0,0-.2-0.6l-0.4-.4-0.8-.2h-0.4a0.4,0.4,0,0,1-.2-0.4,0.7,0.7,0,0,1,.1-0.3l0.3-.2h6.6a7.8,7.8,0,0,1,2.4.4,5,5,0,0,1,1.6.8,3.2,3.2,0,0,1,.9,1.2,3.3,3.3,0,0,1,.3,1.3,3,3,0,0,1-.2,1.2,3.7,3.7,0,0,1-.7,1.1l-1.2.9-1.5.6"/><path class="cls-1" d="M129.2,57.2H134l-2.3-5.8h-0.1Zm0.9-8.9h1.2l1,0.3a2.5,2.5,0,0,1,.8.7,6.3,6.3,0,0,1,.7,1.2l3.8,9.4,0.3,0.6,0.3,0.6,0.4,0.4,0.6,0.2h0.4a0.4,0.4,0,0,1,.2.4,0.6,0.6,0,0,1-.1.3l-0.3.2H134l-0.3-.2a0.7,0.7,0,0,1-.1-0.3,0.4,0.4,0,0,1,.2-0.4H135l0.4-.3a1,1,0,0,0,0-.5l-0.2-.8-0.8-1.9h-5.6l-0.7,1.9-0.2.9a0.6,0.6,0,0,0,.1.5l0.5,0.2h1.4a0.4,0.4,0,0,1,.2.4,0.6,0.6,0,0,1-.1.3l-0.3.2h-4.7l-0.3-.2a0.7,0.7,0,0,1-.1-0.3,0.4,0.4,0,0,1,.2-0.4h1.1l0.5-.4,0.3-.6,0.3-.6,4-9.4a1.3,1.3,0,0,0,.1-0.7,0.7,0.7,0,0,0-.2-0.4l-0.4-.2h-1a0.4,0.4,0,0,1-.1-0.4,0.3,0.3,0,0,1,.3-0.4h0.6"/><path class="cls-2" d="M74,34.8A15.1,15.1,0,1,1,89.2,19.7,15.2,15.2,0,0,1,74,34.8M74,3.2A16.4,16.4,0,1,0,90.4,19.7,16.4,16.4,0,0,0,74,3.2"/><path class="cls-2" d="M80.7,20.9l-2.2,3.7-1,3.3-3.1.6-0.3-4.1-1.3-4.2-2.2.4-4.4-1.1L65,16.3l3.1-4.2L70.9,11l3.5,2,4.4-.4L79,15.8l1.3,2,2.7-.4ZM74,5.2A14.4,14.4,0,1,0,88.4,19.7,14.4,14.4,0,0,0,74,5.2"/><path class="cls-1" d="M56.9,76.1l-1.4-3.2H55.4L54,76.1h2.9Zm-4.6,2.1,2.9-6.5h0.4l2.9,6.5a0.2,0.2,0,0,1-.2.3H57.9l-0.7-1.6H53.7L53,78.3H52.5a0.2,0.2,0,0,1-.2-0.3"/><path class="cls-1" d="M61.6,71.8a0.2,0.2,0,0,1,.2-0.2h3.8a0.2,0.2,0,0,1,.2.2v0.3a0.2,0.2,0,0,1-.2.2H62.3v2.7h2.8l0.2,0.2v0.3l-0.2.2H62.3v2.6l-0.2.2H61.8a0.2,0.2,0,0,1-.2-0.2V71.8Z"/><path class="cls-1" d="M71.7,75.1a1.4,1.4,0,1,0,0-2.8H69.8v2.8h1.9Zm-2.6-3.3a0.2,0.2,0,0,1,.2-0.2h2.5a2.1,2.1,0,0,1,2.1,2.1,2.2,2.2,0,0,1-1.4,2l1.3,2.5a0.2,0.2,0,0,1-.2.3H72.9l-1.3-2.6H69.8v2.5l-0.2.2H69.2a0.2,0.2,0,0,1-.2-0.2V71.8Z"/><rect class="cls-1" x="77.4" y="71.6" width="0.8" height="6.78" rx="0.2" ry="0.2"/><path class="cls-1" d="M85.1,71.5a3.4,3.4,0,0,1,2.3.9,0.2,0.2,0,0,1,0,.3l-0.3.3c-0.1.1-.2,0.1-0.3,0a2.9,2.9,0,0,0-1.9-.7,2.8,2.8,0,0,0,0,5.6,2.8,2.8,0,0,0,1.9-.7h0.2l0.3,0.3a0.2,0.2,0,0,1,0,.3,3.3,3.3,0,0,1-2.4.9,3.5,3.5,0,1,1,0-7"/><path class="cls-1" d="M94.5,76.1l-1.4-3.2H93l-1.4,3.2h2.9Zm-4.6,2.1,2.9-6.5h0.4l2.9,6.5a0.2,0.2,0,0,1-.2.3H95.5l-0.7-1.6H91.4l-0.7,1.6H90.1a0.2,0.2,0,0,1-.2-0.3"/><rect class="cls-1" x="21.9" y="75.9" width="25" height="0.81"/><rect class="cls-1" x="99.5" y="75.9" width="25" height="0.81"/></svg>