<?xml version="1.0" standalone="no"?>
<!DOCTYPE svg PUBLIC "-//W3C//DTD SVG 1.1//EN" "http://www.w3.org/Graphics/SVG/1.1/DTD/svg11.dtd" >
<svg>
<metadata>
Created by FontForge 20090622 at Tue Mar 28 13:57:02 2017
 By deploy user
(c) Copyright 2007, Carter &#38; Cone Type Inc. and The Font Bureau, Inc.
</metadata>
<defs>
<font id="BigMoore-Italic" horiz-adv-x="700" >
  <font-face 
    font-family="BigMoore"
    font-weight="400"
    font-style="italic"
    font-stretch="normal"
    units-per-em="1000"
    panose-1="2 0 6 3 7 0 0 9 0 4"
    ascent="730"
    descent="-270"
    x-height="450"
    cap-height="698"
    bbox="-230 -266 1103 953"
    underline-thickness="20"
    underline-position="-113"
    slope="-14.8"
    unicode-range="U+0020-U+FB06"
  />
<missing-glyph horiz-adv-x="541" 
d="M20 0v700h501v-700h-501zM70 650v-600h402v600h-402z" />
    <glyph glyph-name="f_f" unicode="ff" horiz-adv-x="549" 
d="M457 613q-12 22 -16.5 29t-15.5 20.5t-23.5 18t-29.5 4.5q-25 0 -51.5 -23t-45.5 -67q-35 -81 -58 -173h183q33 137 57 191zM395 400h-184l-73 -329q-33 -147 -68 -219l10.5 -20.5l10.5 -20t10 -15t13 -13t16 -7t22 -3.5q25 0 53.5 23.5t51.5 70.5q37 76 58 173zM735 659
q0 -17 -10.5 -29t-27.5 -12q-18 0 -25 11t-13 34t-13 31t-29 8q-20 0 -46.5 -23.5t-39.5 -61.5q-22 -65 -54 -195h101l-5 -22h-102l-79 -358q-29 -129 -72 -192q-30 -45 -79.5 -69t-102.5 -24q-51 0 -102 44q-54 -54 -143 -54q-45 0 -75 18t-30 44q0 18 10 30t28 12
q30 0 37 -45q8 -44 49 -44q20 0 46.5 22.5t38.5 59.5q40 116 65 228l73 328h-80l5 22h80q39 147 71 193q58 86 175 86q56 0 105 -37q53 53 140 53q46 0 75 -15.5t29 -42.5z" />
    <glyph glyph-name="f_i" unicode="fi" horiz-adv-x="527" 
d="M525 143q-65 -154 -154 -154q-70 0 -70 66q0 24 28 130l59 215h-177l-73 -329q-39 -175 -79 -240q-53 -84 -166 -84q-45 0 -75 18t-30 44q0 18 10 30t28 12q30 0 37 -45q8 -44 49 -44q20 0 46.5 22.5t38.5 59.5q40 116 65 228l73 328h-80l5 22h80q43 168 71 209
q58 86 180 86q49 0 82 -18.5t33 -45.5q0 -18 -11 -30t-30 -12t-28 11.5t-14 34.5q-6 25 -14.5 35t-31.5 10t-54.5 -24t-47.5 -67q-35 -93 -58 -189h176l77 14h7l-55 -182q-45 -148 -45 -204q0 -32 22 -32q31 0 57 31.5t56 99.5z" />
    <glyph glyph-name="f_l" unicode="fl" horiz-adv-x="534" 
d="M458 630q-2 3 -11.5 20.5t-14.5 23.5t-19.5 13.5t-33.5 7.5q-26 0 -55.5 -23.5t-48.5 -66.5q-31 -71 -58 -183h185zM552 706l-170 -624q-7 -25 -7 -46q0 -22 27 -22q55 0 113 121l13 -6q-65 -140 -147 -140q-33 0 -53.5 13t-20.5 40q0 24 22 107l67 251h-185l-73 -329
q-39 -175 -79 -240q-53 -84 -166 -84q-45 0 -75 18t-30 44q0 18 10 30t28 12q30 0 37 -45q8 -44 49 -44q20 0 46.5 22.5t38.5 59.5q40 116 65 228l73 328h-80l5 22h80q40 158 71 203q58 86 182 86q27 0 59 -12t36 -12q18 0 60 19h4z" />
    <glyph glyph-name="f_f_i" unicode="ffi" horiz-adv-x="787" 
d="M459 610q-25 48 -38 60q-18 15 -46 15q-25 0 -53 -23t-47 -67q-35 -81 -58 -173h183q37 146 59 188zM395 400h-184l-73 -329q-33 -147 -68 -219l10.5 -20.5l10.5 -20t10 -15t13 -13t16 -7t22 -3.5q25 0 53.5 24t51.5 70q37 75 58 173zM785 143q-65 -154 -154 -154
q-70 0 -70 66q0 24 28 130l59 215h-177l-79 -358q-29 -129 -72 -192q-30 -45 -79.5 -69t-102.5 -24q-51 0 -102 44q-54 -54 -143 -54q-45 0 -75 18t-30 44q0 18 10 30t28 12q30 0 37 -45q8 -44 49 -44q20 0 46.5 22.5t38.5 59.5q40 116 65 228l73 328h-80l5 22h80
q39 147 71 193q58 86 178 86q56 0 106 -41q60 57 156 57q49 0 82 -18.5t33 -45.5q0 -18 -11 -30t-30 -12t-28 11.5t-14 34.5q-6 25 -14.5 35t-31.5 10t-54.5 -24t-47.5 -67q-35 -93 -58 -189h176l77 14h7l-55 -182q-45 -148 -45 -204q0 -32 22 -32q31 0 57 31.5t56 99.5z
" />
    <glyph glyph-name="f_f_l" unicode="ffl" horiz-adv-x="794" 
d="M719 634q-1 2 -11.5 20t-15.5 24t-19.5 13.5t-33.5 7.5q-25 0 -55.5 -25t-49.5 -69q-28 -66 -57 -183h185zM460 607q-27 50 -41 62q-19 16 -47 16q-25 0 -51.5 -23t-45.5 -67q-35 -81 -58 -173h183q34 135 60 185zM395 400h-184l-73 -329q-33 -147 -68 -219l10.5 -20.5
l10.5 -20t10 -15t13 -13t16 -7t22 -3.5q25 0 53.5 23.5t51.5 70.5q37 76 58 173zM812 706l-170 -624q-7 -24 -7 -46t27 -22q55 0 113 121l13 -6q-65 -140 -147 -140q-33 0 -53.5 13t-20.5 40q0 24 22 107l67 251h-185l-79 -358q-29 -129 -72 -192q-30 -45 -79.5 -69
t-102.5 -24q-51 0 -102 44q-54 -54 -143 -54q-45 0 -75 18t-30 44q0 18 10 30t28 12q30 0 37 -45q8 -44 49 -44q20 0 46.5 22.5t38.5 59.5q40 116 65 228l73 328h-80l5 22h80q39 147 71 193q58 86 175 86q64 0 113 -44q61 58 154 58q27 0 59.5 -12t36.5 -12q26 0 59 15h4z
" />
    <glyph glyph-name="f_j" unicode="fj" horiz-adv-x="496" 
d="M383 352q10 48 -22 48h-150l-73 -329q-28 -128 -63 -208q4 1 10 1q12 0 19.5 -7t10 -14.5t4.5 -23.5q8 -45 51 -45q20 0 46 21.5t40 60.5q41 109 66 217q29 122 61 279zM506 653q0 -18 -11 -30t-30 -12t-28 11.5t-14 34.5q-6 25 -14 35t-31 10q-24 0 -55.5 -24t-47.5 -67
q-35 -93 -58 -189h177l77 14h7l-81 -364q-35 -157 -79 -229q-53 -84 -167 -84q-41 0 -68.5 17t-32.5 42q-55 -71 -157 -71q-45 0 -75 18t-30 44q0 18 10 30t28 12q30 0 37 -45q8 -44 49 -44q20 0 46.5 22.5t38.5 59.5q40 116 65 228l73 328h-80l5 22h80q43 168 71 209
q58 86 180 86q49 0 82 -18.5t33 -45.5z" />
    <glyph glyph-name=".notdef" horiz-adv-x="541" 
d="M20 0v700h501v-700h-501zM70 650v-600h402v600h-402z" />
    <glyph glyph-name=".null" horiz-adv-x="0" 
 />
    <glyph glyph-name="nonmarkingreturn" horiz-adv-x="333" 
 />
    <glyph glyph-name="space" unicode=" " horiz-adv-x="262" 
 />
    <glyph glyph-name="space" unicode="&#xa0;" horiz-adv-x="262" 
 />
    <glyph glyph-name="exclam" unicode="!" horiz-adv-x="337" 
d="M336 665q0 -25 -13 -57q-34 -100 -165 -444l-11 3l30.5 187.5l34 210.5t17.5 98q15 53 54 53q53 0 53 -51zM181 43q0 -22 -15 -37t-37 -15t-36.5 15t-14.5 37t14.5 37.5t36.5 15.5t37 -15.5t15 -37.5z" />
    <glyph glyph-name="quotedbl" unicode="&#x22;" horiz-adv-x="372" 
d="M249 656q0 -15 -13 -39.5l-38 -70t-44 -92.5l-13 3q12 73 12 121v45q0 30 4 45q10 39 49 39q20 0 31.5 -14.5t11.5 -36.5zM399 656q0 -15 -13 -39.5l-38 -70t-44 -92.5l-13 3q12 73 12 121v45q0 30 4 45q10 39 49 39q20 0 31.5 -14.5t11.5 -36.5z" />
    <glyph glyph-name="numbersign" unicode="#" horiz-adv-x="640" 
d="M401 353h-108l-41 -115h108zM582 414l-25 -61h-132l-41 -115h142l-25 -61h-139l-63 -177h-25l63 177h-106l-63 -177h-25l63 177h-135l24 61h133l41 115h-142l24 61h140l63 178h25l-63 -178h106l63 178h25l-63 -178h135z" />
    <glyph glyph-name="dollar" unicode="$" horiz-adv-x="458" 
d="M307 558h-12q-56 0 -90 -34.5t-34 -75.5q0 -68 76 -111zM329 138q0 77 -85 115l-65 -240q71 0 110.5 34.5t39.5 90.5zM462 479q0 -20 -9.5 -34.5t-27.5 -14.5q-38 0 -38 41v25q0 52 -61 61l-62 -228q72 -35 105 -71t33 -87q0 -69 -60.5 -120t-166.5 -53l-25 -96h-19
l26 96q-64 3 -109.5 37t-45.5 69q0 20 9.5 34.5t27.5 14.5q38 0 38 -41v-23q0 -25 23 -48t61 -28l66 247q-123 58 -123 150q0 78 66 121.5t141 41.5l29 108h19l-29 -109q61 -4 96.5 -31.5t35.5 -61.5z" />
    <glyph glyph-name="percent" unicode="%" horiz-adv-x="646" 
d="M360 574q0 -68 -50 -128q-46 -54 -119 -54q-45 0 -75 30.5t-30 78.5q0 68 51 129q47 54 118 54q46 0 75.5 -30.5t29.5 -79.5zM639 675l-547 -675h-36l546 675h37zM299 587q0 83 -50 83q-40 0 -68 -52q-34 -65 -34 -130q0 -82 49 -82q42 0 71 53q32 59 32 128zM605 169
q0 -68 -50 -128q-46 -54 -119 -54q-45 0 -75 30.5t-30 78.5q0 68 51 129q46 54 118 54q46 0 75.5 -30.5t29.5 -79.5zM544 182q0 83 -50 83q-40 0 -68 -52q-34 -65 -34 -130q0 -82 49 -82q42 0 71 53q32 59 32 128z" />
    <glyph glyph-name="ampersand" unicode="&#x26;" horiz-adv-x="710" 
d="M702 379q0 -22 -14 -38.5t-36 -16.5q-48 0 -48 56q-42 -12 -116 -111l-64 -89q97 -141 177 -141q55 0 87 55l8 -4q-11 -33 -49.5 -67t-97.5 -34q-52 0 -94 30.5t-88 90.5q-44 -55 -89 -88t-106 -33q-65 0 -102.5 37.5t-37.5 90.5q0 70 51 126.5t138 112.5
q-21 45 -30.5 78t-9.5 82q0 64 51 127t129 63q63 0 98 -34t35 -83q0 -83 -80 -142q-24 -18 -109 -66q49 -96 113 -191q80 128 123 175q59 65 105 65q30 0 43 -14.5t13 -36.5zM424 603q0 39 -17 63.5t-46 24.5q-38 0 -71.5 -42.5t-33.5 -108.5q0 -63 43 -149q73 44 99 103
t26 109zM361 120q-76 102 -135 225q-44 -33 -73 -85t-29 -109q0 -46 26 -75.5t68 -29.5q75 0 143 74z" />
    <glyph glyph-name="quotesingle" unicode="'" horiz-adv-x="222" 
d="M249 656q0 -15 -13 -39.5l-38 -70t-44 -92.5l-13 3q12 73 12 121v45q0 30 4 45q10 39 49 39q20 0 31.5 -14.5t11.5 -36.5z" />
    <glyph glyph-name="parenleft" unicode="(" horiz-adv-x="250" 
d="M352 714q-277 -309 -277 -638q0 -104 42 -238l-22 -6q-17 43 -25 66t-19 79t-11 110q0 88 22.5 175.5t50.5 149.5t74.5 129.5t74 100.5t68.5 78z" />
    <glyph glyph-name="parenright" unicode=")" horiz-adv-x="250" 
d="M227 465q0 -88 -22.5 -175.5t-50.5 -149.5t-74.5 -129.5t-74 -100.5t-68.5 -78l-22 6q51 57 95 120t87.5 145t68.5 179t25 194q0 107 -41 238l22 6q17 -43 25 -66t19 -79t11 -110z" />
    <glyph glyph-name="asterisk" unicode="*" horiz-adv-x="380" 
d="M282 691q0 -12 -3.5 -25t-10 -33.5t-10.5 -36.5q-2 -5 -3 -5q-3 0 -3 5q-4 15 -11.5 36t-11 34t-3.5 24q0 30 28 30t28 -29zM233 581q0 -2 -5 -2q-18 6 -50 13t-44 14q-18 8 -18 23q0 12 7.5 21.5t19.5 9.5q7 0 18 -6q10 -5 20 -14.5t23.5 -25t26.5 -26.5q2 -3 2 -7z
M392 628q0 -15 -18 -23q-12 -7 -44.5 -14t-50.5 -13q-5 0 -5 2q0 4 2 7q12 11 26.5 26.5t24.5 25t20 14.5q10 6 18 6q12 0 19.5 -9.5t7.5 -21.5zM234 557q0 -4 -2 -7q-13 -11 -26.5 -26.5t-23.5 -25t-20 -14.5q-10 -6 -18 -6q-12 0 -19.5 9.5t-7.5 21.5q0 15 18 23
q12 7 44 14t50 13q5 0 5 -2zM392 509q0 -12 -7.5 -21.5t-19.5 -9.5q-7 0 -18 6q-10 5 -20 14.5t-24.5 25t-26.5 26.5q-1 2 -1 7q0 2 4 2q18 -6 50.5 -13t44.5 -14q18 -8 18 -23zM282 446q0 -30 -28 -30t-28 31q0 11 3.5 24t11 34.5t11.5 36.5q0 4 3 4q1 0 3 -5
q4 -15 10.5 -36t10 -34t3.5 -25z" />
    <glyph glyph-name="plus" unicode="+" 
d="M581 241h-205v-206h-40v206h-205v39h205v205h40v-205h205v-39z" />
    <glyph glyph-name="comma" unicode="," horiz-adv-x="237" 
d="M158 22q0 -77 -44.5 -119t-91.5 -42l-2 13q34 5 65.5 34t31.5 78q0 6 -3 21q-14 -13 -28 -13q-21 0 -33.5 13t-12.5 33q0 25 17 42t41 17q26 0 43 -21.5t17 -55.5z" />
    <glyph glyph-name="hyphen" unicode="-" horiz-adv-x="292" 
d="M269 260l-14 -50h-222l14 50h222z" />
    <glyph glyph-name="hyphen" unicode="&#xad;" horiz-adv-x="292" 
d="M269 260l-14 -50h-222l14 50h222z" />
    <glyph glyph-name="period" unicode="." horiz-adv-x="237" 
d="M151 47q0 -23 -17 -39.5t-40 -16.5t-39 16.5t-16 39.5t16 40t39 17t40 -17t17 -40z" />
    <glyph glyph-name="slash" unicode="/" horiz-adv-x="375" 
d="M479 720l-523 -959h-38l524 959h37z" />
    <glyph glyph-name="zero" unicode="0" horiz-adv-x="482" 
d="M444 279q0 -108 -79 -205q-33 -40 -79.5 -62.5t-96.5 -22.5q-67 0 -109 46.5t-42 121.5q0 109 80 208q68 85 175 85q69 0 110 -47.5t41 -123.5zM359 303q0 131 -77 131q-61 0 -105 -86q-54 -108 -54 -214q0 -60 19 -94.5t56 -34.5q66 0 109 86q52 101 52 212z" />
    <glyph glyph-name="one" unicode="1" horiz-adv-x="341" 
d="M295 458q-26 -74 -37 -120l-50 -201q-14 -58 -14 -85q0 -40 84 -42l-3 -10h-281l3 10q62 2 86 24q27 25 46 103l45 177q12 46 12 67q-21 -4 -51 -4q-27 0 -51 4l3 11q111 4 194 66h14z" />
    <glyph glyph-name="two" unicode="2" horiz-adv-x="471" 
d="M429 316q0 -28 -8 -52.5t-27.5 -45.5t-38 -36.5t-55 -35l-60.5 -31.5t-72 -33q-21 -9 -31 -14h252l-68 -149h-12q14 33 14 49q0 33 -60 33h-264l7 28q67 28 109 47.5t90.5 49t75.5 57.5t45 67t18 84t-24.5 73t-68.5 28q-47 0 -77 -35.5t-30 -79.5q0 -48 41 -71v-7
q-17 -7 -38 -7q-30 0 -49 22.5t-19 52.5q0 51 49.5 95.5t121.5 44.5q83 0 131 -35.5t48 -98.5z" />
    <glyph glyph-name="three" unicode="3" horiz-adv-x="463" 
d="M418 305q0 -66 -47 -116.5t-141 -72.5q65 -5 103.5 -42.5t38.5 -97.5q0 -102 -83.5 -169t-197.5 -67q-74 0 -115.5 30t-41.5 61q0 18 10 30t28 12q35 0 48 -44q21 -73 84 -73q75 0 128 68t53 159q0 54 -21 87.5t-47 33.5q-12 0 -43 -23q-28 -20 -50 -20q-31 0 -31 23
q0 15 15.5 25t35.5 12q23 2 53 2q55 0 98.5 60.5t43.5 132.5q0 56 -28 87.5t-70 31.5q-47 0 -77 -33.5t-30 -76.5q0 -45 39 -65l-1 -6q-21 -8 -36 -8q-30 0 -48.5 20t-18.5 48q0 52 48.5 94t121.5 42q80 0 129.5 -40t49.5 -105z" />
    <glyph glyph-name="four" unicode="4" horiz-adv-x="480" 
d="M313 353l-320 -327h233zM447 120l-56 -208h-13q4 32 4 42q0 29 -12.5 40.5t-44.5 11.5h-25l-26 -100q-12 -43 -12 -73q0 -32 16.5 -46t56.5 -16l-3 -10h-258l3 10q56 3 77 31t41 104l26 100h-259l5 22l432 439h24l-118 -441h25q42 0 62.5 20t41.5 74h13z" />
    <glyph glyph-name="five" unicode="5" horiz-adv-x="405" 
d="M401 450q-6 -45 -42 -71.5t-99 -26.5q-48 0 -99 17l-82 -225q49 41 115 41q67 0 110 -41.5t43 -112.5q0 -116 -85 -203.5t-205 -87.5q-77 0 -117 28.5t-40 60.5q0 18 10 30t28 12q39 0 48 -45q6 -26 26 -48t51 -22q73 0 135.5 86t62.5 197q0 58 -24 93t-62 35
q-75 0 -120 -95q-1 -6 -10 -6q-11 0 -9 9l132 373q53 -17 104 -17q79 0 123 19h6z" />
    <glyph glyph-name="six" unicode="6" horiz-adv-x="504" 
d="M531 625q0 -17 -11.5 -29t-30.5 -12q-18 0 -27.5 11t-19.5 33q-22 46 -56 46q-55 0 -119 -74.5t-108 -211.5q59 53 138 53q80 0 125 -51.5t45 -131.5q0 -103 -72.5 -187.5t-174.5 -84.5q-82 0 -128.5 54.5t-46.5 152.5q0 127 56.5 244t143.5 186.5t176 69.5q56 0 83 -21
t27 -47zM384 289q0 63 -23.5 100.5t-68.5 37.5q-43 0 -77 -26t-54 -68t-30 -89t-10 -95q0 -71 27 -109.5t73 -38.5q66 0 114.5 88t48.5 200z" />
    <glyph glyph-name="seven" unicode="7" horiz-adv-x="428" 
d="M456 429l-342 -611q-1 -2 -8 -15l-9 -16.5t-8.5 -13.5t-11 -14l-11.5 -10t-15 -8t-17 -2q-39 0 -34 39q4 23 38 72l362 514h-185q-71 0 -103 -17t-67 -80l-12 3l72 191h11q3 -15 16 -20t44 -5h277z" />
    <glyph glyph-name="eight" unicode="8" horiz-adv-x="485" 
d="M488 552q0 -117 -165 -190q122 -69 122 -170q0 -86 -64.5 -147t-164.5 -61q-87 0 -140.5 42.5t-53.5 113.5q0 68 49.5 122.5t133.5 81.5q-100 60 -100 161q0 71 63.5 130t151.5 59q75 0 121.5 -41t46.5 -101zM413 563q0 48 -23.5 81t-71.5 33q-56 0 -96.5 -45t-40.5 -105
q0 -52 33.5 -89t96.5 -68q102 74 102 193zM364 171q0 97 -145 166q-56 -41 -87 -88.5t-31 -119.5q0 -59 29.5 -94t85.5 -35q59 0 103.5 48.5t44.5 122.5z" />
    <glyph glyph-name="nine" unicode="9" horiz-adv-x="508" 
d="M383 285q0 71 -26.5 110.5t-73.5 39.5q-67 0 -115.5 -90t-47.5 -201q0 -60 23.5 -98t65.5 -38q58 0 99 43.5t58 104t17 129.5zM458 241q0 -86 -28 -175t-75.5 -161t-116 -117.5t-142.5 -45.5q-63 0 -93 20.5t-30 46.5q0 20 12 31t31 11q5 0 9.5 -1t7.5 -2t6.5 -4.5
t5 -4.5t4.5 -6.5t4 -7t4.5 -9t4.5 -9.5q23 -46 57 -46q58 0 119.5 73t106.5 213q-51 -53 -141 -53q-75 0 -121 50.5t-46 130.5q0 106 73.5 190.5t177.5 84.5q80 0 125 -56t45 -153z" />
    <glyph glyph-name="colon" unicode=":" horiz-adv-x="322" 
d="M264 386q0 -23 -17 -39.5t-40 -16.5t-39 16.5t-16 39.5t16 40t39 17t40 -17t17 -40zM178 47q0 -23 -17 -39.5t-40 -16.5t-39 16.5t-16 39.5t16 40t39 17t40 -17t17 -40z" />
    <glyph glyph-name="semicolon" unicode=";" horiz-adv-x="322" 
d="M264 386q0 -23 -17 -39.5t-40 -16.5t-39 16.5t-16 39.5t16 40t39 17t40 -17t17 -40zM184 22q0 -77 -44.5 -119t-91.5 -42l-2 13q34 5 65.5 34t31.5 78q0 6 -3 21q-14 -13 -28 -13q-21 0 -33.5 13t-12.5 33q0 25 17 42t41 17q26 0 43 -21.5t17 -55.5z" />
    <glyph glyph-name="less" unicode="&#x3c;" 
d="M540 49l-384 195v32l384 195v-47l-330 -164l330 -164v-47z" />
    <glyph glyph-name="equal" unicode="=" 
d="M561 306h-410v39h410v-39zM561 180h-410v39h410v-39z" />
    <glyph glyph-name="greater" unicode="&#x3e;" 
d="M556 244l-384 -195v47l330 164l-330 164v47l384 -195v-32z" />
    <glyph glyph-name="question" unicode="?" horiz-adv-x="471" 
d="M489 592q0 -81 -64 -165q-15 -19 -34.5 -40.5t-34 -36l-37 -36.5l-32.5 -32q-59 -59 -59 -101q0 -25 30 -25q33 0 83 67l10 -6q-20 -34 -51 -58t-68 -24q-27 0 -45 18t-18 46q0 32 18.5 61t54.5 68l35 35.5t45.5 48t34.5 41.5q67 89 67 175q0 74 -64 74q-59 0 -117 -72
q-35 -43 -60.5 -101.5t-25.5 -99.5t30 -41q14 0 27 7t19.5 13.5t17.5 20.5l9 -6q-38 -51 -82 -51q-34 0 -52 26.5t-18 70.5q0 111 89 184q78 63 164 63q58 0 93 -32t35 -92zM247 43q0 -22 -15 -37t-37 -15t-36.5 15t-14.5 37t14.5 37.5t36.5 15.5t37 -15.5t15 -37.5z" />
    <glyph glyph-name="at" unicode="@" horiz-adv-x="866" 
d="M766 133q5 -25 5 -49q0 -45 -24 -93t-66.5 -90t-110.5 -69t-148 -27q-97 0 -177 36t-132 113.5t-52 184.5q0 96 37.5 183t99.5 148.5t145.5 98t173.5 36.5q137 0 223 -78.5t86 -201.5q0 -104 -60 -192zM745 134q-11 61 -71 111l9 11q56 -46 76 -98q39 80 39 173
q0 117 -76 187.5t-206 70.5q-112 0 -205 -63.5t-144.5 -166.5t-51.5 -219q0 -143 87.5 -231t221.5 -88q79 0 143 25t102.5 65t59 86t20.5 91q0 13 -1 20q-39 -50 -88 -80t-91 -30q-67 0 -67 63q0 10 2 21t4.5 20l8 28l9.5 32q-80 -164 -180 -164q-53 0 -73 25.5t-20 73.5
q0 46 21.5 110t59.5 115q42 57 90 87.5t88 30.5q60 0 76 -66l17 59l69 -6l-54 -172q-50 -158 -50 -199q0 -29 28 -29q38 0 77.5 28.5t69.5 78.5zM572 365q0 28 -15 43.5t-38 15.5q-61 0 -127 -122q-64 -119 -64 -204q0 -66 44 -66q78 0 145 139q55 114 55 194z" />
    <glyph glyph-name="A" unicode="A" horiz-adv-x="660" 
d="M457 583q-193 -246 -226 -291h215q1 40 5 135.5t6 155.5zM620 10l-3 -10h-302l3 10q88 12 109 63q9 22 17 200h-229l-37 -52q-81 -114 -81 -159q0 -43 75 -52l-4 -10h-255l4 10q25 2 47.5 12.5t50 37t39 40l44.5 54.5l14 17l183 236l246 307h17q-23 -531 -23 -583
q0 -60 17 -88t68 -33z" />
    <glyph glyph-name="B" unicode="B" horiz-adv-x="676" 
d="M630 211q0 -117 -113 -178q-70 -38 -193 -38q-23 0 -102 2.5t-100 2.5h-151l3 10l43.5 8.5t30.5 9.5t24 14t16.5 22.5t16.5 34.5t15 50q8 27 55 203q39 144 54 210q10 50 10 56q0 16 -5.5 27.5t-11.5 18t-21.5 12t-23 7l-28.5 5.5l3 10h123q25 0 68.5 1t61.5 1
q99 0 157 -35q68 -41 68 -111q0 -75 -51 -118t-135 -59q84 -8 135 -50.5t51 -115.5zM522 559q0 60 -38 94q-40 35 -93 35q-5 0 -15 -1t-11 -1q-7 -22 -41 -150q-7 -27 -23 -80.5t-22 -78.5q102 0 147 22q45 21 70.5 64t25.5 96zM517 216q0 71 -60 117q-43 33 -129 33
q-22 0 -54 -4l-60 -227q-4 -15 -4 -41q0 -84 121 -84q71 0 128.5 58t57.5 148z" />
    <glyph glyph-name="C" unicode="C" horiz-adv-x="610" 
d="M618 491h-11q-33 114 -69.5 161t-99.5 47q-41 0 -88 -35t-79 -89q-93 -155 -93 -323q0 -115 45.5 -174t126.5 -59q75 0 129.5 47t95.5 157l15 -8q-41 -118 -109 -175.5t-179 -57.5q-110 0 -174 70t-64 187q0 116 49.5 225.5t138.5 180.5t193 71q36 0 64.5 -7t44 -14.5
t19.5 -7.5q23 0 35 15h10v-211z" />
    <glyph glyph-name="D" unicode="D" horiz-adv-x="752" 
d="M742 394q0 -101 -34 -180t-91.5 -125t-127.5 -69.5t-148 -23.5q-33 0 -110 2t-98 2h-155l2 10q29 6 40 8.5t28 9.5t23.5 14.5t16.5 22.5t16.5 34t15.5 50l55 203l18 66.5l22.5 84t13.5 59.5q9 45 9 56q0 16 -5.5 27.5t-11.5 18t-21.5 12t-22.5 7t-28 5.5l3 10h124
q19 0 51.5 0.5t46.5 0.5q155 0 243 -61q125 -86 125 -244zM632 395q0 57 -14 108t-42 93t-75 66.5t-107 24.5q-13 0 -27 -2q-24 -77 -89 -315q-47 -174 -60 -235q-4 -22 -4 -41q0 -83 111 -83q100 0 189 83q54 50 86 128.5t32 172.5z" />
    <glyph glyph-name="E" unicode="E" horiz-adv-x="667" 
d="M665 533h-12q-23 90 -67 121.5t-148 31.5q-44 0 -74 -3q-17 -57 -85 -308q92 0 145 28t69 97h12l-64 -276h-11q2 24 2 33q0 67 -34 86t-122 20l-26 -97q-32 -123 -32 -165q0 -86 129 -86q185 0 280 195h12l-62 -210h-606l3 10q41 8 58 12.5t36 19t29 38.5t23 69
q8 27 55 203q39 144 54 210q9 45 9 56q0 20 -5.5 32.5t-19 20t-24 10.5t-34.5 7l3 10h497z" />
    <glyph glyph-name="F" unicode="F" horiz-adv-x="582" 
d="M665 533h-12q-23 90 -67 121.5t-148 31.5q-44 0 -74 -3q-53 -174 -83 -303q37 1 56 2t46 5t42 12t32.5 22.5t29.5 36.5t23 53h13l-76 -304h-12q4 23 4 46q0 68 -38.5 91.5t-123.5 23.5l-59 -233q-7 -28 -7 -55q0 -35 24 -48t71 -21q5 -1 8 -1l-3 -10h-330l3 10
q41 8 56.5 12.5t32.5 20t25 37.5t22 69q8 27 55 203q39 144 54 210q9 45 9 56q0 20 -6 32.5t-21.5 20t-25.5 10t-35 7.5l3 10h502z" />
    <glyph glyph-name="G" unicode="G" horiz-adv-x="710" 
d="M725 279l-4 -10q-34 -7 -54.5 -16t-32 -28.5t-15.5 -32t-12 -48.5l-25 -110q-3 0 -9.5 0.5t-8.5 0.5q-33 0 -88 -20q-3 -1 -23.5 -9t-32 -11.5t-36 -7.5t-50.5 -4q-127 0 -198 76.5t-71 201.5q0 177 131 322q62 68 131.5 100.5t159.5 32.5q38 0 69 -8t48.5 -16t21.5 -8
q21 0 33 14h10v-211h-11q-31 114 -67.5 163t-99.5 49q-102 0 -189 -101q-57 -66 -94 -171.5t-37 -203.5q0 -102 44.5 -162.5t125.5 -60.5q91 0 136 53.5t45 152.5q0 13 -4 23t-8.5 15.5t-16 10t-17.5 6t-22.5 4.5t-22.5 4l4 10h290z" />
    <glyph glyph-name="H" unicode="H" horiz-adv-x="828" 
d="M904 698l-3 -10q-41 -8 -56.5 -12.5t-33 -20t-25.5 -37.5t-22 -69q-9 -29 -51 -190l-59 -224q-8 -32 -8 -55q0 -9 1 -16.5t5 -13.5l6.5 -10t9.5 -8l10.5 -6t13.5 -5t13 -4t15.5 -3.5t15.5 -3.5l-3 -10h-314l3 10q41 8 56.5 12.5t32.5 20t25 37.5t22 69q10 34 30.5 111
t23.5 89h-340l-56 -214q-8 -32 -8 -55q0 -9 1 -16.5t5 -13.5l6.5 -10t9.5 -8l10.5 -6t13.5 -5t13 -4t15.5 -3.5t15.5 -3.5l-3 -10h-314l3 10q41 8 56.5 12.5t32.5 20t25 37.5t22 69q8 27 55 203q39 144 54 210q10 50 10 56q0 16 -5.5 27.5t-11.5 18t-21.5 12t-23 7
l-28.5 5.5l3 10h314l-3 -10q-41 -8 -56.5 -12.5t-33 -20t-25.5 -37.5t-22 -69q-8 -26 -48 -179h340q25 91 49 192q10 40 10 56t-5.5 27.5t-12 18.5t-20.5 12t-23.5 7t-28.5 5l3 10h314z" />
    <glyph glyph-name="I" unicode="I" horiz-adv-x="390" 
d="M466 698l-3 -10q-41 -8 -56.5 -12.5t-33 -20t-25.5 -37.5t-22 -69q-10 -33 -28.5 -104t-25.5 -96l-33 -125t-23 -89q-8 -32 -8 -55q0 -9 1 -16.5t5 -13.5l6.5 -10t9.5 -8l10.5 -6t13.5 -5t13 -4t15.5 -3.5t15.5 -3.5l-3 -10h-314l3 10q41 8 56.5 12.5t32.5 20t25 37.5
t22 69q8 27 55 203q39 144 54 210q10 50 10 56q0 16 -5.5 27.5t-11.5 18t-21.5 12t-23 7l-28.5 5.5l3 10h314z" />
    <glyph glyph-name="J" unicode="J" horiz-adv-x="422" 
d="M496 698l-3 -10q-1 0 -23.5 -4.5t-30 -7.5t-24 -12t-26.5 -24.5t-17 -37.5q-40 -132 -71 -282q-63 -283 -73 -322q-24 -98 -77 -146.5t-156 -48.5q-66 0 -106 20.5t-40 62.5q0 22 14.5 34.5t30.5 12.5q43 0 47 -49q5 -65 54 -65q53 0 83 52t67 201l59 251q42 173 49 207
q14 68 14 93q0 32 -22 44.5t-73 21.5l3 9h321z" />
    <glyph glyph-name="K" unicode="K" horiz-adv-x="711" 
d="M790 698l-2 -9q-18 -1 -37.5 -9t-44 -24.5l-39 -27t-42.5 -33.5l-35 -29l-222 -168l169 -252l35.5 -51t30 -36.5t42 -34.5t47.5 -14l-2 -10h-301l2 10q75 6 75 48q0 31 -27 70l-150 222l-20 -12l-53 -203q-8 -32 -8 -55q0 -9 1 -16.5t5 -13.5l6.5 -10t9.5 -8l10.5 -6
t13.5 -5t13 -4t15.5 -3.5t15.5 -3.5l-3 -10h-314l3 10q41 8 56.5 12.5t32.5 20t25 37.5t22 69q8 27 55 203q39 144 54 210q10 50 10 56q0 16 -5.5 27.5t-11.5 18t-21.5 12t-23 7l-28.5 5.5l3 10h314l-3 -10q-41 -8 -56.5 -12.5t-33 -20t-25.5 -37.5t-22 -69l-52 -192
l119.5 82.5t64.5 47.5l66 54q90 74 90 109q0 29 -67 39l2 9h241z" />
    <glyph glyph-name="L" unicode="L" horiz-adv-x="614" 
d="M637 220l-65 -220h-603l3 10q53 9 74.5 17.5t39 35t34.5 86.5q8 27 55 203q39 144 54 210q9 45 9 56q0 20 -5.5 32.5t-20 20t-26 10.5t-37.5 7l3 10h314l-3 -10q-41 -8 -56.5 -12.5t-33 -20t-25.5 -37.5t-22 -69q-17 -59 -76 -283q-32 -123 -32 -165q0 -86 126 -86
q181 0 281 205h12z" />
    <glyph glyph-name="M" unicode="M" horiz-adv-x="926" 
d="M974 698l-1 -9q-67 -12 -87 -37.5t-41 -125.5q-16 -76 -33 -174q-23 -123 -35 -202q-6 -30 -6 -64q0 -42 20.5 -56t72.5 -20l-2 -10h-324l2 10q59 10 79 24q39 27 54 102q16 75 41 213l55 298l-386 -647h-12l-95 644l-83 -296l-46 -172q-15 -60 -15 -86q0 -74 88 -80
l-3 -10h-249l3 10q66 10 95 45t61 138l47 159q18 62 46 168q23 87 23 109q0 24 -18 37t-60 23l2 9h206q-2 -34 7 -94l47 -319q2 -12 8.5 -62t11.5 -79l327 554h200z" />
    <glyph glyph-name="N" unicode="N" horiz-adv-x="743" 
d="M860 698l-3 -10q-66 -10 -96 -45t-62 -138q-1 -3 -46 -159q-10 -36 -24.5 -94.5t-18.5 -73.5q-30 -108 -49 -184h-21l-281 584l-65 -229l-17.5 -63l-16.5 -64t-12 -46q-15 -60 -15 -91q0 -38 24 -55t69 -20l-3 -10h-254l3 10q66 10 96 45t62 138q1 3 46 159q18 62 46 168
q10 37 19 83q-13 43 -35.5 58t-74.5 28l2 9h174l271 -561l31 115t26 97q12 42 46 173q15 60 15 91q0 38 -24 55t-69 20l3 10h254z" />
    <glyph glyph-name="O" unicode="O" horiz-adv-x="722" 
d="M717 424q0 -90 -35 -176t-102 -153q-112 -112 -252 -112q-119 0 -190 78.5t-71 209.5q0 193 137 333q109 112 252 112q120 0 190.5 -79t70.5 -213zM613 493q0 95 -42.5 152t-115.5 57q-128 0 -220 -202q-64 -140 -64 -293q0 -95 42.5 -152.5t114.5 -57.5q132 0 221 202
q64 144 64 294z" />
    <glyph glyph-name="P" unicode="P" horiz-adv-x="625" 
d="M561 550q0 62 -40.5 100t-129.5 38q-4 0 -13.5 -1t-12.5 -1q-12 -39 -94 -339q70 -4 78 -4q101 0 156.5 57t55.5 150zM670 536q0 -99 -76.5 -154.5t-219.5 -55.5q-22 0 -106 8l-50 -199q-7 -28 -7 -55q0 -35 24 -48t71 -21q5 -1 8 -1l-3 -10h-330l3 10q41 8 56.5 12.5
t32.5 20t25 37.5t22 69q8 27 55 203q39 144 54 210q9 45 9 56q0 20 -6 32.5t-21.5 20t-25.5 10t-35 7.5l3 10h122q25 0 68.5 1t61.5 1q136 0 200.5 -39t64.5 -125z" />
    <glyph glyph-name="Q" unicode="Q" horiz-adv-x="725" 
d="M820 22q-19 -87 -77.5 -143.5t-130.5 -56.5q-36 0 -66.5 10.5t-50.5 24.5t-41.5 40.5t-32 43.5t-28.5 49q-31 -7 -65 -7q-119 0 -190 78.5t-71 209.5q0 193 137 333q109 112 252 112q120 0 190.5 -79t70.5 -213q0 -127 -68 -241.5t-187 -170.5q31 -34 52.5 -53t58.5 -36
t78 -17q67 0 105 34t52 82h12zM613 493q0 95 -42.5 152t-115.5 57q-128 0 -220 -202q-64 -140 -64 -293q0 -72 25 -124q48 35 101 35q73 0 143 -79q58 48 109 160q64 144 64 294zM383 7q-30 41 -59.5 62t-73.5 21q-18 0 -50 -16q44 -77 128 -77q29 0 55 10z" />
    <glyph glyph-name="R" unicode="R" horiz-adv-x="707" 
d="M711 67q-8 -16 -20.5 -31t-41 -30t-62.5 -15q-64 0 -94 28.5t-30 97.5q0 11 4.5 57.5t4.5 58.5q0 64 -31 91t-101 27q-20 0 -67 -3l-57 -213q-8 -32 -8 -55q0 -9 1 -16.5t5 -13.5l6.5 -10t9.5 -8l10.5 -6t13.5 -5t13 -4t15.5 -3.5t15.5 -3.5l-3 -10h-314l3 10
q41 8 56.5 12.5t32.5 20t25 37.5t22 69q8 27 55 203q39 144 54 210q10 50 10 56q0 16 -5.5 27.5t-11.5 18t-21.5 12t-23 7l-28.5 5.5l3 10q65 0 156 1t131 1q99 0 154 -35q65 -41 65 -121q0 -81 -61 -130.5t-189 -55.5q83 -21 119 -58t40 -111l4 -77q4 -92 56 -92q10 0 20 3
t16.5 6.5t13.5 10.5t10.5 11t9.5 12t7 9zM550 559q0 61 -34 94q-36 35 -100 35q-6 0 -25 -1t-25 -1q-17 -50 -43 -150l-23 -85l-24 -89q112 4 170 26q49 19 76.5 67t27.5 104z" />
    <glyph glyph-name="S" unicode="S" horiz-adv-x="523" 
d="M543 701l-32 -201h-11q-15 109 -48 154t-97 45q-57 0 -92 -37.5t-35 -86.5q0 -76 75 -137q44 -36 67 -56.5t52 -52t41.5 -62t12.5 -63.5q0 -100 -61.5 -160.5t-162.5 -60.5q-52 0 -92.5 13t-61.5 25.5t-25 12.5q-21 0 -36 -15h-10l32 211h11q15 -110 62.5 -171t120.5 -61
q59 0 98.5 44.5t39.5 105.5q0 74 -77 139l-58 49t-44 41.5t-38.5 46.5t-20 46t-9.5 56q0 78 59 134t151 56q44 0 92 -15l49 -15q23 0 38 15h10z" />
    <glyph glyph-name="T" unicode="T" horiz-adv-x="653" 
d="M740 523h-12q-23 91 -68 126t-147 35h-21q-11 -38 -47.5 -178.5l-39.5 -151.5l-57 -219q-8 -32 -8 -55q0 -11 2.5 -20.5t9.5 -16t12 -10.5t17 -8t17.5 -5.5t21.5 -5t20 -4.5l-3 -10h-334l3 10q26 5 35.5 7.5t27 7.5t23 10.5t16.5 15t16.5 23t12 31.5t14.5 44t17 61
l20.5 79.5l18.5 69.5q53 194 82 325h-25q-50 0 -84 -5.5t-69.5 -21.5t-64.5 -49t-54 -85h-12l51 175h599z" />
    <glyph glyph-name="U" unicode="U" horiz-adv-x="735" 
d="M849 698l-3 -10q-66 -10 -96 -45t-62 -138q-8 -25 -26 -95l-23 -89q-30 -108 -51 -163.5t-50 -89.5q-73 -85 -201 -85q-110 0 -167.5 46.5t-57.5 133.5q0 52 15 109q66 245 76 290q10 50 10 56q0 16 -5.5 27.5t-11.5 18t-21.5 12t-23 7l-28.5 5.5l3 10h313l-3 -10
q-67 -14 -93 -42t-44 -97l-77 -298q-11 -40 -11 -99q0 -65 39 -101.5t115 -36.5q95 0 144 52t90 181q4 13 13 47t15 54l44 174q15 60 15 91q0 38 -24 55t-69 20l3 10h253z" />
    <glyph glyph-name="V" unicode="V" horiz-adv-x="660" 
d="M806 698l-4 -10q-25 -2 -47.5 -12.5t-50 -37t-39 -40l-44.5 -54.5l-14 -17l-183 -236l-246 -305h-17q23 531 23 581q0 67 -16 91.5t-69 29.5l3 10h302l-3 -10q-88 -12 -109 -63q-9 -22 -17 -200q-13 -297 -13 -308q139 168 279 360q81 110 81 159q0 43 -75 52l4 10h255z
" />
    <glyph glyph-name="W" unicode="W" horiz-adv-x="974" 
d="M1103 698l-3 -10q-33 -3 -65 -26t-52 -49t-51 -71q-7 -10 -10 -15l-160 -236q-46 -69 -214 -302h-20q20 447 23 574l-370 -574h-20q23 531 23 578q0 67 -16 91.5t-69 29.5l3 10h294l-3 -10q-82 -11 -104 -63q-9 -22 -17 -200q-2 -39 -5 -132.5t-6 -149.5q241 379 290 462
q-1 45 -19.5 61.5t-65.5 21.5l3 10h287l-3 -10q-80 -10 -100 -60q-3 -7 -5.5 -21t-3.5 -36t-2 -41t-2 -52t-2 -53q-1 -23 -11 -293q138 195 234 345q64 101 64 153q0 49 -80 58l3 10h255z" />
    <glyph glyph-name="X" unicode="X" horiz-adv-x="683" 
d="M754 698l-3 -10q-13 0 -25 -3t-25.5 -10l-23.5 -12.5t-26 -19.5l-25.5 -22.5t-28.5 -29l-29 -31.5l-33.5 -37.5l-35.5 -39.5l-92 -101l69 -164l11 -26q13 -32 19.5 -46.5l18 -38.5t19.5 -34.5l20 -25t23.5 -20.5t27.5 -11t34 -5l-4 -11h-325l3 11q52 2 75.5 15.5
t23.5 46.5q0 30 -30 100l-63 150l-98 -113q-54 -62 -74 -92t-20 -49q0 -45 71 -58l-3 -11h-251l3 11q48 5 98 49t156 160l42 46l69 75l-108 251q-21 50 -45.5 72t-71.5 24l3 10h305l-3 -10q-83 -4 -83 -57q0 -33 30 -105l51 -126l108 121q78 88 78 124q0 19 -17.5 31
t-48.5 12l3 10h231z" />
    <glyph glyph-name="Y" unicode="Y" horiz-adv-x="585" 
d="M734 698l-3 -10q-47 -3 -91 -45t-121 -139q-10 -14 -16 -21l-150 -188l-40 -160q-7 -28 -7 -55q0 -11 2.5 -20t9.5 -16t11.5 -11t17.5 -8l18 -5.5t21.5 -5t20.5 -4.5l-3 -10h-334l3 10q42 9 57.5 13.5t35 19t29 38t22.5 68.5l40 157l-84 286q-15 50 -35.5 72t-66.5 24
l3 10h295l-3 -10q-49 -2 -71.5 -18t-22.5 -49q0 -25 19 -95l58 -205l159 200q67 85 67 123q0 19 -19 31.5t-50 12.5l4 10h224z" />
    <glyph glyph-name="Z" unicode="Z" horiz-adv-x="596" 
d="M647 698l-1 -6l-527 -677h171q182 0 282 205h12l-65 -220h-520l-5 5l529 679h-125q-50 0 -84 -5.5t-69.5 -21.5t-64.5 -49t-54 -85h-12l51 175h482z" />
    <glyph glyph-name="bracketleft" unicode="[" horiz-adv-x="333" 
d="M415 720l-5 -19l-179 -17l-216 -816l169 -17l-5 -19l-207 13l228 862z" />
    <glyph glyph-name="backslash" unicode="\" horiz-adv-x="375" 
d="M334 -239h-33l-256 959h32z" />
    <glyph glyph-name="bracketright" unicode="]" horiz-adv-x="333" 
d="M378 707l-228 -862l-215 -13l5 19l179 17l216 816l-169 17l5 19z" />
    <glyph glyph-name="asciicircum" unicode="^" horiz-adv-x="500" 
d="M490 469l-14 -7l-147 146l-197 -146l-12 7l199 229h51z" />
    <glyph glyph-name="underscore" unicode="_" horiz-adv-x="465" 
d="M399 -97l-9 -34h-465l9 34h465z" />
    <glyph glyph-name="grave" unicode="`" horiz-adv-x="500" 
d="M362 507l-14 -5l-113 147q-15 20 -15 36q0 15 10.5 23.5t23.5 8.5q29 0 46 -44z" />
    <glyph glyph-name="a" unicode="a" horiz-adv-x="497" 
d="M492 140q-64 -151 -155 -151q-64 0 -64 66q0 18 25 105q-45 -85 -89.5 -128t-98.5 -43q-55 0 -76.5 26.5t-21.5 76.5q0 48 23 115t62 120q44 59 94 91t92 32q63 0 79 -69l18 61l72 -6l-57 -179q-52 -165 -52 -207q0 -28 23 -28q57 0 113 123zM345 372q0 31 -15 46.5
t-40 15.5q-63 0 -132 -128q-67 -123 -67 -213q0 -68 46 -68q81 0 151 145q57 118 57 202z" />
    <glyph glyph-name="b" unicode="b" horiz-adv-x="445" 
d="M427 323q0 -108 -65 -209q-40 -62 -96.5 -93.5t-114.5 -31.5q-51 0 -81 21t-30 61q0 57 23 143l104 390q9 36 9 48q0 15 -9 23t-20.5 9.5t-34.5 2.5l2 12l152 18h4q-61 -238 -107 -401q31 62 72.5 98t86.5 36q58 0 81.5 -37t23.5 -90zM349 342q0 30 -14 53t-37 23
q-82 0 -143 -148q-16 -38 -30 -102t-14 -92q0 -30 19.5 -51t43.5 -21q70 0 126 130q49 113 49 208z" />
    <glyph glyph-name="c" unicode="c" horiz-adv-x="346" 
d="M348 398q0 -17 -10.5 -28.5t-28.5 -11.5q-23 0 -34 27q-1 3 -4.5 12.5l-6 16.5t-7 13.5t-9.5 6.5q-34 0 -76 -71q-74 -128 -74 -254q0 -40 20 -65.5t53 -25.5q44 0 76.5 28.5t59.5 97.5l13 -8q-28 -73 -70 -110t-106 -37q-61 0 -92.5 35t-31.5 103q0 71 35 146.5
t92.5 126t114.5 50.5q38 0 62 -13t24 -39z" />
    <glyph glyph-name="d" unicode="d" horiz-adv-x="494" 
d="M510 717l-121 -463q-40 -152 -40 -202q0 -30 21 -30q29 0 54 30.5t50 95.5l14 -5q-29 -78 -64 -116t-81 -38q-29 0 -46.5 17.5t-17.5 51.5q0 22 20 102q-82 -171 -179 -171q-104 0 -104 116q0 49 19 110.5t53 111.5q41 59 89.5 91t89.5 32q67 0 85 -72l5 43l50 183
q8 26 8 48q0 21 -16 27.5t-50 7.5l2 12l155 18h4zM334 363q0 71 -59 71q-61 0 -125 -128q-55 -111 -55 -202q0 -38 14 -58.5t39 -20.5q77 0 140 145q46 105 46 193z" />
    <glyph glyph-name="e" unicode="e" horiz-adv-x="352" 
d="M346 382q0 -63 -55 -101t-178 -62q-15 -57 -15 -119q0 -36 21 -59t57 -23q38 0 72 30t53 88l14 -8q-48 -139 -176 -139q-53 0 -86 32.5t-33 91.5q0 123 82.5 230t166.5 107q37 0 57 -20.5t20 -47.5zM292 394q0 18 -10 29t-26 11q-35 0 -75 -57t-63 -141q84 19 129 65.5
t45 92.5z" />
    <glyph glyph-name="f" unicode="f" horiz-adv-x="289" 
d="M475 659q0 -17 -10.5 -29t-27.5 -12q-18 0 -25 11t-13 34t-13 31t-29 8q-20 0 -46.5 -23.5t-39.5 -61.5q-22 -65 -54 -195h101l-5 -22h-102l-73 -329q-39 -175 -79 -240q-53 -84 -166 -84q-45 0 -75 18t-30 44q0 18 10 30t28 12q30 0 37 -45q8 -44 49 -44q20 0 46.5 22.5
t38.5 59.5q40 116 65 228l73 328h-80l5 22h80q41 171 68 213q52 82 163 82q46 0 75 -15.5t29 -42.5z" />
    <glyph glyph-name="g" unicode="g" horiz-adv-x="455" 
d="M307 349q0 38 -14 62t-42 24q-51 0 -84 -66t-33 -131q0 -35 16.5 -61t39.5 -26q48 0 82.5 54.5t34.5 143.5zM489 410q0 -12 -8 -22t-21 -10q-9 0 -16.5 4.5t-10 7t-9.5 12.5q-15 22 -33 22q-15 0 -36 -17q22 -28 22 -75q0 -76 -43.5 -128.5t-113.5 -64.5q-17 -3 -49 -5
t-47 -6q-44 -11 -44 -33q0 -32 68 -46q20 -4 88 -21q72 -18 105 -48.5t33 -81.5q0 -65 -55.5 -110.5t-149.5 -45.5q-90 0 -148.5 32.5t-58.5 92.5q0 44 28 70.5t66 26.5q27 0 41 -14.5t14 -29.5t-14 -35h-4q0 16 -10.5 27.5t-27.5 11.5q-22 0 -37 -15.5t-15 -42.5
q0 -43 44.5 -75.5t118.5 -32.5q68 0 109 33.5t41 80.5q0 57 -72 79q-69 20 -111 29q-110 25 -110 82q0 61 119 84q-77 37 -77 115q0 80 54.5 134.5t133.5 54.5q62 0 95 -35q39 34 75 34q33 0 49.5 -12.5t16.5 -26.5z" />
    <glyph glyph-name="h" unicode="h" horiz-adv-x="490" 
d="M479 128q-60 -139 -147 -139q-75 0 -75 50q0 27 27 110l51 154q16 49 16 78q0 35 -33 35q-42 0 -73 -31q-35 -33 -66 -94t-43 -98l-33 -106l-28 -92l-67 7l161 602q9 36 9 48q0 16 -9.5 23.5t-20 9t-34.5 2.5l2 12l152 18h4l-126 -463q49 104 90.5 150t98.5 46
q44 0 66.5 -23t22.5 -52q0 -35 -19 -94l-65 -199q-10 -30 -10 -47q0 -21 23 -21q61 0 114 121z" />
    <glyph glyph-name="i" unicode="i" horiz-adv-x="289" 
d="M277 649q0 -19 -14.5 -33t-33.5 -14t-33 14t-14 33t14 33t34 14q19 0 33 -14t14 -33zM272 129q-56 -140 -141 -140q-72 0 -72 52q0 28 25 108l67 208q10 30 10 47q0 22 -18 22q-55 0 -112 -118l-13 6q63 136 146 136q68 0 68 -52q0 -33 -25 -108l-67 -208
q-10 -33 -10 -47q0 -21 22 -21q55 0 107 121z" />
    <glyph glyph-name="j" unicode="j" horiz-adv-x="259" 
d="M267 649q0 -19 -14.5 -33t-33.5 -14t-33 14t-14 33t14 33t34 14q19 0 33 -14t14 -33zM233 394q0 -17 -5 -42l-66 -281q-41 -179 -79 -240q-53 -84 -164 -84q-45 0 -74.5 17.5t-29.5 43.5q0 18 10 30t28 12q30 0 37 -45q4 -22 15 -32.5t33 -10.5q20 0 45.5 22.5t37.5 59.5
q36 106 65 228l65 280q8 38 8 52q0 22 -20 22q-28 0 -59.5 -33.5t-60.5 -94.5l-13 6q68 146 155 146q72 0 72 -56z" />
    <glyph glyph-name="k" unicode="k" horiz-adv-x="460" 
d="M449 128q-50 -139 -147 -139q-33 0 -48 17.5t-15 54.5q0 21 5 54t5 44q0 47 -27 47q-42 0 -93 -23l-52 -189l-69 8l161 602q9 36 9 48q0 16 -9.5 23.5t-20 9t-34.5 2.5l2 12l152 18h4l-106 -390q74 123 166 123q36 0 57 -18.5t21 -55.5q0 -54 -45 -90t-140 -66
q53 -9 72.5 -33.5t19.5 -79.5q0 -12 0.5 -30.5t0.5 -28.5q0 -30 20 -30q23 0 49.5 29.5t49.5 87.5zM340 373q0 44 -31 44q-48 0 -98 -56t-78 -161q207 68 207 173z" />
    <glyph glyph-name="l" unicode="l" horiz-adv-x="251" 
d="M272 717l-173 -635q-7 -24 -7 -46t27 -22q55 0 113 121l13 -6q-65 -140 -147 -140q-33 0 -53.5 13t-20.5 40q0 24 22 107l131 489q3 15 3 23q0 16 -12.5 20t-54.5 4l4 13l151 19h4z" />
    <glyph glyph-name="m" unicode="m" horiz-adv-x="748" 
d="M736 130q-33 -72 -67.5 -106.5t-79.5 -34.5q-74 0 -74 48q0 29 27 112l51 154q16 49 16 78q0 37 -30 37q-33 0 -58 -26q-67 -71 -139 -307l-28 -90l-74 6l55 178q46 150 46 202q0 37 -31 37q-29 0 -60 -31q-11 -11 -22.5 -27t-20.5 -31.5t-20 -40t-17.5 -40.5t-16.5 -45
l-14 -41l-13.5 -42t-11.5 -35l-29 -90l-74 7l56 177q48 153 48 210q0 32 -17 32q-31 0 -57.5 -31t-55.5 -96l-13 5q32 76 68 113.5t81 37.5q61 0 61 -65q0 -33 -25 -131q51 110 85 153t85 43q43 0 62.5 -22.5t19.5 -51.5q0 -48 -24 -122q51 110 85 153t86 43q43 0 64 -23.5
t21 -51.5q0 -35 -19 -94l-64 -199q-10 -30 -10 -47q0 -21 22 -21q31 0 57 29t56 93z" />
    <glyph glyph-name="n" unicode="n" horiz-adv-x="538" 
d="M523 129q-34 -73 -65.5 -106.5t-77.5 -33.5q-75 0 -75 47q0 30 27 113l51 154q16 49 16 78q0 33 -33 33q-42 0 -71 -29q-18 -17 -35 -41.5t-28 -45t-24 -54t-19 -52l-18.5 -57l-16.5 -50.5l-30 -90l-74 8l57 176q48 147 48 210q0 32 -17 32q-31 0 -57.5 -31.5
t-56.5 -97.5l-13 6q33 77 69 114.5t81 37.5q27 0 42 -18t15 -51q0 -45 -21 -127q49 106 89 151t97 45q44 0 66.5 -23t22.5 -52q0 -35 -19 -94l-65 -199q-10 -30 -10 -47q0 -21 23 -21q31 0 54.5 27.5t54.5 93.5z" />
    <glyph glyph-name="o" unicode="o" horiz-adv-x="421" 
d="M394 287q0 -117 -76 -215q-30 -39 -72.5 -61t-87.5 -22q-59 0 -95 44.5t-36 118.5q0 57 22.5 118.5t62.5 106.5q66 73 151 73q60 0 95.5 -44.5t35.5 -118.5zM320 323q0 50 -17.5 81t-49.5 31q-25 0 -51 -22t-47 -65q-54 -114 -54 -232q0 -50 17.5 -81t48.5 -31
q59 0 100 87q53 110 53 232z" />
    <glyph glyph-name="p" unicode="p" horiz-adv-x="488" 
d="M392 342q0 30 -14 53t-37 23q-80 0 -142 -149q-17 -41 -30 -98t-13 -97q0 -35 17 -51.5t44 -16.5q71 0 125 126q50 117 50 210zM470 323q0 -99 -64 -211q-36 -62 -86 -92t-96 -30q-33 0 -53.5 19t-27.5 46l-43 -176q-11 -49 -11 -69q0 -31 22 -42t61 -11l-2 -10h-269
l2 10q3 0 16 1t15.5 1.5l13 2.5t13.5 4t11.5 6.5t12 10t10.5 14t11 19.5l9 25t9 32l134 521l-39.5 -30.5t-30.5 -22.5q-49 -37 -65 -95l-15 3q16 59 76 108q6 5 29 22t30 24.5t18 25t17 39.5l33 125l67 -7l-73 -270q32 61 74 97.5t86 36.5q58 0 81.5 -37t23.5 -90z" />
    <glyph glyph-name="q" unicode="q" horiz-adv-x="441" 
d="M433 436l-140 -557q-12 -43 -12 -71q0 -49 84 -49l-2 -10l-269 -4l2 10q49 4 64 13q35 19 57 105l59 231q-70 -114 -151 -114q-58 0 -81.5 37t-23.5 90q0 97 65 207q38 63 87.5 94.5t94.5 31.5q34 0 54.5 -19t26.5 -50l17 61zM335 366q0 35 -17 51.5t-44 16.5
q-71 0 -125 -127q-51 -120 -51 -209q0 -30 14 -53t37 -23q82 0 143 148q43 104 43 196z" />
    <glyph glyph-name="r" unicode="r" horiz-adv-x="400" 
d="M422 402q0 -17 -10.5 -29.5t-27.5 -12.5q-23 0 -34 27q-10 24 -26 24q-47 0 -116 -167q-3 -7 -82 -249l-75 8l56 176q50 156 50 210q0 17 -3.5 24.5t-15.5 7.5q-32 0 -58.5 -28.5t-55.5 -90.5l-13 6q32 74 69 108t85 34q57 0 57 -69q0 -34 -25 -127q40 102 77.5 149
t86.5 47q21 0 41 -12t20 -36z" />
    <glyph glyph-name="s" unicode="s" horiz-adv-x="310" 
d="M310 394q0 -36 -38 -36q-20 0 -33 28q-1 1 -4.5 11.5t-6 16.5t-8.5 12t-13 6q-29 0 -49.5 -21.5t-20.5 -51.5q0 -27 10.5 -46.5t39.5 -55.5q27 -33 38 -48t21 -38t10 -46q0 -57 -45 -96.5t-111 -39.5q-50 0 -83.5 24.5t-33.5 53.5q0 35 37 35q25 0 33 -29l3 -11
q4 -11 6 -15.5t7 -14t10.5 -13.5t14 -8t19.5 -4q30 0 53.5 24t23.5 56q0 7 -0.5 13.5t-3 13.5t-3.5 11t-5 11.5t-5.5 10t-8 11t-7.5 10t-9.5 11.5t-9.5 12q-26 32 -36.5 46t-20 37.5t-9.5 49.5q0 50 44 88t107 38q36 0 61.5 -15.5t25.5 -40.5z" />
    <glyph glyph-name="t" unicode="t" horiz-adv-x="282" 
d="M294 416h-94l-89 -331q-5 -20 -5 -43q0 -12 7.5 -20t20.5 -8q58 0 114 123l13 -6q-33 -72 -68.5 -107t-79.5 -35q-80 0 -80 51q0 25 23 109l72 267h-69l6 22h70l45 165l68 -7l-42 -158h94z" />
    <glyph glyph-name="u" unicode="u" horiz-adv-x="530" 
d="M525 143q-33 -78 -69.5 -116t-82.5 -38q-57 0 -57 69q0 41 22 127q-49 -106 -89 -151t-97 -45q-44 0 -66 23t-22 52q0 35 19 94l65 199q10 30 10 47q0 21 -18 21q-57 0 -114 -119l-13 6q65 138 148 138q69 0 69 -51q0 -29 -26 -109l-51 -154q-16 -49 -16 -78
q0 -33 33 -33q41 0 70 29q16 15 30 33t26 42l21 41.5t19.5 48l15.5 44.5t15 47t13 41l29 92l74 -7l-56 -179q-47 -150 -47 -207q0 -32 16 -32q31 0 59 32t57 99z" />
    <glyph glyph-name="v" unicode="v" horiz-adv-x="474" 
d="M454 372q0 -110 -65 -230q-84 -153 -201 -153q-52 0 -82 30.5t-30 81.5q0 46 16.5 85.5t58.5 104t61 99.5q-40 -35 -79 -35q-16 0 -39.5 8t-32.5 8q-30 0 -30 -78h-14q0 43 6 73q6 29 25 48.5t44 19.5q22 0 49 -18t36 -18q22 0 29.5 6t10.5 20q5 26 22 26q16 0 16 -17
q0 -9 -6 -20.5t-17.5 -28t-17.5 -29.5q-60 -123 -60 -220q0 -111 66 -111q78 0 124 84t46 204q0 22 -4 52t-4 39q0 22 10 34.5t25 12.5q23 0 30 -17.5t7 -60.5z" />
    <glyph glyph-name="w" unicode="w" horiz-adv-x="665" 
d="M645 371q0 -109 -60 -231q-39 -78 -81.5 -114.5t-97.5 -36.5q-38 0 -63.5 26.5t-25.5 68.5v11q-23 -48 -63 -77t-81 -29q-42 0 -69.5 31.5t-27.5 82.5q0 43 16.5 81t57.5 101t61 100q-40 -35 -79 -35q-16 0 -39.5 8t-32.5 8q-30 0 -30 -78h-14q0 43 6 73q6 29 25 48.5
t44 19.5q21 0 48 -18t37 -18q22 0 29.5 6t10.5 20q5 31 24 31q15 0 15 -17q0 -9 -6 -20.5t-17.5 -28t-17.5 -29.5q-60 -123 -60 -220q0 -58 13 -85t50 -27q68 0 106 146l61 234l67 -9l-51 -193q-17 -66 -17 -97q0 -36 16 -58t43 -22q64 0 102 82t38 206q0 22 -5 52t-5 39
q0 22 9.5 34.5t24.5 12.5q23 0 31 -18.5t8 -60.5z" />
    <glyph glyph-name="x" unicode="x" horiz-adv-x="444" 
d="M448 406q0 -54 -34 -120l-12 5q15 32 15 72q0 34 -26 34t-53.5 -31.5t-80.5 -113.5l39 -128q24 -78 45 -78q36 0 56 101l15 -3q-14 -75 -42 -115t-59 -40q-32 0 -47.5 23.5t-35.5 90.5l-24 82q-67 -113 -100 -151q-40 -45 -70 -45q-39 0 -39 44q0 54 34 120l12 -5
q-15 -32 -15 -70q0 -36 26 -36q28 0 58 36t89 128l-36 113q-24 74 -44 74q-38 0 -56 -101l-15 3q14 75 42 115t59 40t47.5 -22t35.5 -91l18 -65q103 178 159 178q39 0 39 -44z" />
    <glyph glyph-name="y" unicode="y" horiz-adv-x="404" 
d="M386 402q0 -109 -73.5 -258.5t-166.5 -257.5q-120 -139 -203 -139q-35 0 -35 31q0 42 50 45l33 2q34 2 44.5 3t28 8.5t34.5 23.5q29 28 44 59t20 91q1 17 1 59q0 106 -26 235q-18 89 -46 89q-22 0 -38 -35t-22 -104l-15 2q7 96 36 145t74 49t74.5 -89t29.5 -227
q0 -54 -3 -105q50 75 81 156t31 132q0 28 -16 59q-12 22 -12 41q0 15 11.5 24t27.5 9q36 0 36 -48z" />
    <glyph glyph-name="z" unicode="z" horiz-adv-x="358" 
d="M400 -43q-14 -38 -44.5 -65.5t-67.5 -27.5q-25 0 -44.5 8.5t-34.5 27.5t-24 33t-22 42t-19 39q-26 48 -61 48q-11 0 -19 -1t-14 -5t-9.5 -5.5t-7 -8t-4 -8t-3.5 -9.5l-2 -8q-8 -26 -26 -26q-15 0 -15 17q0 6 2.5 12.5t8.5 14.5t11.5 14l17 18.5l18.5 20.5l128 137
q108 118 137 155q-40 -21 -63 -21q-27 0 -64.5 9.5t-55.5 9.5q-31 0 -43 -14.5t-22 -52.5h-14q9 57 36.5 96.5t69.5 39.5q39 0 84.5 -24t65.5 -24q8 0 13 1t8 2t5.5 4.5t3 5t2 7t2.5 7.5q7 26 28 26q15 0 15 -16q0 -10 -7.5 -21.5t-27.5 -32.5t-30 -33q-9 -11 -27.5 -31
l-45 -47.5l-41.5 -43.5q-100 -107 -135 -153q22 8 40 8q52 0 85 -33q22 -22 50.5 -59.5t48.5 -56t42 -18.5t34.5 10.5t25.5 33.5z" />
    <glyph glyph-name="braceleft" unicode="{" horiz-adv-x="393" 
d="M477 720l-4 -13q-131 -3 -168 -143q-3 -12 -10 -52t-11 -55q-36 -138 -189 -172q105 -27 105 -120q0 -21 -8 -53q-4 -14 -18.5 -53.5t-18.5 -53.5q-9 -36 -9 -58q0 -100 97 -101l-4 -13h-5q-83 0 -123.5 37t-40.5 93q0 21 6 42q8 29 35.5 84t32.5 74q7 25 7 47
q0 32 -26 46.5t-91 20.5l4 15q87 7 121 30.5t50 83.5q5 20 6 75t8 83q19 68 83 112t166 44h5z" />
    <glyph glyph-name="bar" unicode="|" horiz-adv-x="283" 
d="M184 -102h-36v901h36v-901z" />
    <glyph glyph-name="braceright" unicode="}" horiz-adv-x="393" 
d="M376 276l-4 -15q-87 -7 -121 -30.5t-50 -83.5q-5 -20 -6 -75t-8 -83q-19 -68 -83 -112t-166 -44h-5l4 13q131 3 168 143q3 12 10 52t11 55q36 138 189 172q-105 28 -105 120q0 21 8 53q4 14 18.5 53.5t18.5 53.5q9 36 9 58q0 100 -97 101l4 13h5q83 0 123.5 -37t40.5 -93
q0 -21 -6 -42q-8 -29 -35.5 -84t-32.5 -74q-7 -25 -7 -47q0 -32 26 -46.5t91 -20.5z" />
    <glyph glyph-name="asciitilde" unicode="~" horiz-adv-x="500" 
d="M468 426l13 -5q-45 -138 -139 -130q-23 2 -73 31q-48 31 -77 33q-68 5 -98 -67l-15 6q23 61 56 97t86 31q34 -3 82 -34q47 -28 70 -30q31 -2 53.5 12.5t41.5 55.5z" />
    <glyph glyph-name="exclamdown" unicode="&#xa1;" horiz-adv-x="337" 
d="M268 411q0 -22 -14.5 -37.5t-36.5 -15.5t-37 15.5t-15 37.5t15 37t37 15t36.5 -15t14.5 -37zM198 291l-30.5 -187.5l-34 -210.5t-17.5 -98q-15 -53 -54 -53q-53 0 -53 51q0 25 13 57q34 100 165 444z" />
    <glyph glyph-name="cent" unicode="&#xa2;" horiz-adv-x="455" 
d="M311 435q-5 1 -18 1q-40 0 -78 -41t-61 -104.5t-23 -126.5q0 -100 73 -135zM440 363q0 -42 -40 -42q-5 0 -9.5 1t-8 2t-6 4.5t-4.5 5t-3.5 6.5t-2 7t-1.5 8t-1 8t-0.5 9t-0.5 8q-2 37 -34 50l-108 -407q19 -6 44 -6q102 0 133 99l10 -3q-10 -48 -52 -87.5t-124 -39.5
q-14 0 -20 1l-23 -87h-19l24 89q-73 10 -109.5 56.5t-36.5 116.5t29 134.5t88.5 108.5t135.5 44h14l23 87h19l-23 -89q57 -7 81.5 -32t24.5 -52z" />
    <glyph glyph-name="sterling" unicode="&#xa3;" horiz-adv-x="670" 
d="M720 589q0 -63 -42.5 -102.5t-100.5 -39.5q-41 0 -64.5 26t-23.5 64v10l12 2v-7q0 -32 20 -53t50 -21q45 0 73 39.5t28 98.5q0 46 -25 69.5t-64 23.5q-62 0 -116 -63t-74 -182q-12 -66 -23 -117l159 -3l-4 -13l-158 -3q-5 -25 -12 -50l151 -3l-3 -13l-153 -3
q-39 -122 -94 -173q87 -29 207 -29q59 0 110.5 28t65.5 82l12 -2q-5 -72 -62.5 -124.5t-130.5 -52.5q-18 0 -33 1t-30.5 3.5l-25.5 4t-25.5 7t-22 7.5t-23 10t-21 10t-24 12.5t-24.5 12.5q-81 -61 -161 -61q-39 0 -68.5 14t-28.5 42q1 30 34.5 50.5t77.5 20.5q53 0 135 -25
q27 39 51 164l-153 2l3 13l153 3l9 50l-142 3l4 13l141 3q4 15 8 41t5 29q26 134 113.5 220t172.5 86q65 0 101 -36.5t36 -88.5zM199 62q-63 35 -104 35q-34 0 -55 -17t-21 -41q0 -17 16.5 -28t45.5 -11q60 0 118 62z" />
    <glyph glyph-name="currency" unicode="&#xa4;" horiz-adv-x="600" 
d="M295 124q62 0 103 40.5t41 99.5q0 62 -41 103t-103 41q-59 0 -99.5 -41t-40.5 -103q0 -58 40.5 -99t99.5 -41zM294 88q-62 0 -110 38l-36 -36l-24 25l35 35q-40 50 -40 113q0 69 41 118l-40 41l25 25l40 -41q48 37 109 37q68 0 117 -41l45 45l24 -25l-45 -45
q39 -47 39 -114q0 -61 -38 -109l39 -38l-25 -25l-38 38q-49 -41 -118 -41z" />
    <glyph glyph-name="yen" unicode="&#xa5;" horiz-adv-x="594" 
d="M664 560l-2 -9q-28 -2 -59.5 -23t-50.5 -39.5t-47 -49.5q-6 -7 -9 -10l-55 -64l-53 -62l159 -3l-4 -13l-169 -3q-26 -32 -34 -50l188 -3l-3 -13l-191 -3l-24 -89q-9 -32 -9 -56q0 -33 18.5 -43.5t63.5 -16.5l-3 -10h-276l3 10q57 7 83.5 29.5t43.5 91.5l20 84l-189 3
l3 13l187 3q-6 33 -13 50l-159 3l4 13l149 3q-14 53 -46 151q-10 32 -14.5 43t-15 25.5t-25.5 20t-41 8.5l2 9h248l-2 -9q-5 -1 -18 -3t-18.5 -3.5t-15 -5t-13.5 -8t-7.5 -12.5t-3.5 -19q0 -15 18 -78l47 -159l134 156q58 67 58 96q0 27 -47 36l2 9h186z" />
    <glyph glyph-name="brokenbar" unicode="&#xa6;" horiz-adv-x="243" 
d="M148 307h-41v413h41v-413zM148 -239h-41v416h41v-416z" />
    <glyph glyph-name="section" unicode="&#xa7;" horiz-adv-x="480" 
d="M361 198q0 44 -33 95q-47 73 -68 91q-28 25 -63 25q-32 0 -54 -21t-22 -53q0 -45 33 -96q29 -44 42.5 -62.5t38 -36t51.5 -17.5q30 0 52.5 21.5t22.5 53.5zM444 620q0 -17 -10.5 -29t-28.5 -12q-29 0 -39 46q-11 51 -51 51q-40 1 -64.5 -27t-24.5 -65q0 -29 16.5 -56.5
t55.5 -76.5l51 -64q39 -50 54 -83t15 -72q0 -53 -37.5 -89t-90.5 -36q-19 0 -42 6q36 -40 51 -69.5t15 -66.5q0 -59 -44.5 -99.5t-110.5 -40.5q-54 0 -87.5 24t-33.5 51q0 37 38 37q30 0 40 -46q11 -51 51 -51q40 -1 64.5 27.5t24.5 66.5q0 45 -72 135l-51 64q-39 48 -54 82
t-15 73q0 53 37.5 89t87.5 36q22 0 45 -6q-37 40 -51.5 68.5t-14.5 65.5q0 59 44 98.5t111 39.5q54 0 87.5 -22t33.5 -49z" />
    <glyph glyph-name="dieresis" unicode="&#xa8;" horiz-adv-x="500" 
d="M298 590q0 -18 -13 -31.5t-31 -13.5q-19 0 -32 13.5t-13 31.5t13 31t32 13q18 0 31 -13t13 -31zM461 590q0 -18 -13 -31.5t-31 -13.5t-31.5 13.5t-13.5 31.5t13.5 31t31.5 13t31 -13t13 -31z" />
    <glyph glyph-name="copyright" unicode="&#xa9;" horiz-adv-x="991" 
d="M888 230q0 -158 -112 -270.5t-270 -112.5t-270.5 112.5t-112.5 270.5t112.5 270.5t270.5 112.5t270 -112.5t112 -270.5zM857 230q0 146 -102.5 249t-248.5 103q-147 0 -249.5 -103t-102.5 -249q0 -147 102.5 -250t249.5 -103q146 0 248.5 103t102.5 250zM690 151
q-1 -22 -9.5 -45t-26.5 -46t-52 -38t-79 -15q-113 0 -174 59t-61 154q0 109 66.5 172.5t172.5 63.5q30 0 56 -6t41 -11.5t19 -5.5q8 0 19 17h13l5 -146h-13q-47 133 -140 133q-62 0 -107 -57.5t-45 -147.5q0 -88 42.5 -142t116.5 -54q63 0 98 32t44 85z" />
    <glyph glyph-name="ordfeminine" unicode="&#xaa;" horiz-adv-x="400" 
d="M444 465q-46 -105 -117 -105q-50 0 -50 47q0 17 17 74q-33 -61 -64.5 -91t-71.5 -30q-79 0 -79 73q0 35 15.5 81.5t44.5 83.5q32 42 70 64t70 22q46 0 59 -48l13 43l57 -4l-40 -126q-36 -113 -36 -144q0 -19 17 -19q45 0 83 84zM325 629q0 20 -11.5 31t-29.5 11
q-47 0 -95 -88q-46 -85 -46 -149q0 -46 34 -46q58 0 107 100q41 86 41 141z" />
    <glyph glyph-name="guillemotleft" unicode="&#xab;" horiz-adv-x="423" 
d="M400 401l-135 -170l55 -163l-10 -5l-117 172l2 5l199 166zM278 394l-133 -163l56 -156l-9 -5l-119 165l2 5l197 159z" />
    <glyph glyph-name="logicalnot" unicode="&#xac;" 
d="M576 55h-43v206h-404v39h447v-245z" />
    <glyph glyph-name="registered" unicode="&#xae;" horiz-adv-x="514" 
d="M546 572q0 -88 -62.5 -150t-150.5 -62t-150.5 62t-62.5 150t62.5 150t150.5 62q89 0 151 -62t62 -150zM527 572q0 80 -57.5 137t-136.5 57t-136 -57t-57 -137t56.5 -137t136.5 -57q99 0 156 76h-67q-9 10 -29 49q-20 38 -34 52q-15 15 -52 15q-1 -12 -1 -31
q0 -5 0.5 -16.5t0.5 -17.5q1 -24 12 -33t30 -10v-8h-131v8q25 5 34 13.5t10 34.5q2 40 2 68q0 11 -0.5 30t-0.5 28q0 32 -8 42.5t-31 13.5v7q9 0 44.5 1.5t60.5 1.5q46 0 72 -13q34 -18 34 -52q0 -23 -14 -39.5t-39 -21.5q23 -6 38 -29q4 -7 11.5 -22t13.5 -25
q18 -32 50 -37q32 50 32 109zM386 635q0 29 -20 44q-17 12 -47 12h-11q-2 -24 -2 -50q0 -42 1 -60h9q36 0 53 13t17 41z" />
    <glyph glyph-name="macron" unicode="&#xaf;" horiz-adv-x="500" 
d="M477 621l-12 -45h-281l12 45h281z" />
    <glyph glyph-name="degree" unicode="&#xb0;" horiz-adv-x="340" 
d="M366 556q0 -59 -40 -98.5t-98 -39.5t-98 39.5t-40 98.5t40 98.5t98 39.5t98 -39.5t40 -98.5zM324 556q0 45 -28 74.5t-69 29.5t-68 -29.5t-27 -74.5t27 -74.5t68 -29.5t69 29.5t28 74.5z" />
    <glyph glyph-name="plusminus" unicode="&#xb1;" 
d="M370 75h-40v186h-195v39h195v185h40v-185h195v-39h-195v-186zM565 0h-430v39h430v-39z" />
    <glyph glyph-name="twosuperior" unicode="&#xb2;" horiz-adv-x="460" 
d="M427 607q0 -34 -16.5 -63t-52 -54.5t-70.5 -43.5t-93 -44h213l-58 -117h-13q10 22 10 35q0 27 -49 27h-222l6 24l87 38t74 40t61.5 47t37.5 54t15 66q0 34 -17.5 54.5t-50.5 20.5q-35 0 -59.5 -26.5t-24.5 -63.5q0 -36 32 -54l-1 -7q-21 -7 -32 -7q-27 0 -42.5 17
t-15.5 40q0 40 43.5 78t104.5 38q63 0 98 -26.5t35 -72.5z" />
    <glyph glyph-name="threesuperior" unicode="&#xb3;" horiz-adv-x="440" 
d="M412 625q0 -71 -107 -99q42 -5 66.5 -27t24.5 -56q0 -50 -52 -86t-129 -36q-57 0 -87 21t-32 50q-1 14 7 24.5t21 11.5q29 2 39 -29q18 -63 54 -63q46 0 78 33t32 79q0 31 -14 48.5t-31 17.5q-9 0 -26.5 -13t-30.5 -13q-25 0 -25 19q0 10 11 17t25 7h33q29 0 54 28.5
t25 68.5q0 31 -17.5 47.5t-44.5 16.5q-25 0 -43 -16t-18 -37q0 -25 27 -36l-2 -6q-16 -7 -33 -7q-21 0 -34 11.5t-13 28.5q0 29 34 52.5t85 23.5q56 0 89.5 -21.5t33.5 -59.5z" />
    <glyph glyph-name="acute" unicode="&#xb4;" horiz-adv-x="500" 
d="M425 685q0 -16 -18 -36l-137 -147l-13 5l89 166q23 44 51 44t28 -32z" />
    <glyph glyph-name="uni00B5" unicode="&#xb5;" horiz-adv-x="556" 
d="M516 42q-10 -22 -37 -39t-70 -17q-32 0 -48.5 22.5t-16.5 54.5q0 33 17 94h-2q-18 -33 -31 -54t-36.5 -51.5t-49 -46.5t-51.5 -16q-82 0 -91 83q-29 -68 -43 -190q3 -25 14.5 -50t11.5 -40q0 -14 -12 -29.5t-30 -15.5q-49 0 -49 52q0 24 35.5 141t65.5 200q19 54 71 249
q17 60 54 60q33 0 33 -29q0 -8 -11 -49q-1 -3 -49 -157q-35 -110 -35 -150q0 -24 13 -35.5t33 -11.5q53 0 108.5 85t79.5 176l38 143q8 28 43 28q13 0 22.5 -10.5t9.5 -24.5q0 -5 -2.5 -15.5t-6.5 -22t-5 -15.5q-44 -147 -64 -244q-8 -42 -8 -61q0 -23 9 -32t29 -9
q30 0 54 32z" />
    <glyph glyph-name="paragraph" unicode="&#xb6;" horiz-adv-x="485" 
d="M598 698l-2 -9q-32 -5 -51.5 -12t-34 -16t-25.5 -30.5t-19 -43t-21 -65.5l-48 -170q-4 -14 -48 -191q-15 -62 -15 -83q0 -19 4 -30.5t18 -19t23.5 -10t37.5 -8.5l-3 -10h-358l3 10q4 1 19.5 3t19.5 3t17 4.5t18 7t15.5 10t15.5 15t13 20t14 27t11 34.5l56 204
q-84 -1 -128.5 40.5t-44.5 111.5q0 87 65.5 147.5t166.5 60.5h281zM456 677h-78l-173 -656h78z" />
    <glyph glyph-name="periodcentered" unicode="&#xb7;" horiz-adv-x="256" 
d="M194 328q0 -23 -16.5 -39.5t-39.5 -16.5q-22 0 -39 17t-17 39q0 23 16.5 40t39.5 17t39.5 -17t16.5 -40z" />
    <glyph glyph-name="cedilla" unicode="&#xb8;" horiz-adv-x="500" 
d="M302 -134q0 -47 -37.5 -81.5t-90.5 -34.5q-38 0 -55.5 16t-17.5 31q0 9 6.5 17.5t17.5 8.5q21 0 26 -31q6 -28 26 -28q30 0 52 29t22 76q0 29 -15.5 40.5t-31.5 11.5q-14 0 -30 -7l4 15l55 74h19l-51 -70q9 3 21 3q36 0 58 -19t22 -51z" />
    <glyph glyph-name="onesuperior" unicode="&#xb9;" horiz-adv-x="410" 
d="M344 696l-14 -49.5t-13 -44.5l-42 -160q-12 -46 -12 -60q0 -21 17.5 -28t50.5 -8l-4 -14h-227l4 14q50 2 69 21q24 24 37 75l37 139q10 34 8 51q-22 -4 -39 -4q-13 0 -40 6l3 12q97 3 160 50h5z" />
    <glyph glyph-name="ordmasculine" unicode="&#xba;" horiz-adv-x="333" 
d="M364 569q0 -83 -53 -150q-21 -27 -56 -43.5t-70 -16.5q-45 0 -74.5 33t-29.5 84q0 77 56 149q46 59 122 59q46 0 75.5 -32t29.5 -83zM305 592q0 35 -14.5 57.5t-38.5 22.5q-45 0 -74 -59q-38 -79 -38 -161q0 -35 14 -57.5t38 -22.5q46 0 76 59q37 75 37 161z" />
    <glyph glyph-name="guillemotright" unicode="&#xbb;" horiz-adv-x="423" 
d="M235 234l-2 -5l-199 -166l-6 5l135 171l-53 162l8 5zM355 234l-2 -5l-197 -159l-7 5l134 164l-55 155l8 5z" />
    <glyph glyph-name="onequarter" unicode="&#xbc;" horiz-adv-x="500" 
d="M411 696l-14 -49.5t-13 -44.5l-42 -160q-12 -46 -12 -60q0 -21 17.5 -28t50.5 -8l-4 -14h-227l4 14q50 2 69 21q24 24 37 75l37 139q10 34 8 51q-22 -4 -39 -4q-13 0 -40 6l3 12q97 3 160 50h5zM470 273l-7 -26h-414l7 26h414zM244 130l-199 -184h151zM358 1l-34 -127
h-11q2 16 2 23q0 17 -7.5 24t-27.5 7h-25l-11 -45q-7 -30 -7 -40q0 -35 52 -36l-3 -11h-186l3 11q36 1 51 18t26 58l11 45h-179l5 17l283 259h28l-68 -258h25q26 0 38 12t24 43h11z" />
    <glyph glyph-name="onehalf" unicode="&#xbd;" horiz-adv-x="500" 
d="M411 696l-14 -49.5t-13 -44.5l-42 -160q-12 -46 -12 -60q0 -21 17.5 -28t50.5 -8l-4 -14h-227l4 14q50 2 69 21q24 24 37 75l37 139q10 34 8 51q-22 -4 -39 -4q-13 0 -40 6l3 12q97 3 160 50h5zM470 273l-7 -26h-414l7 26h414zM360 96q0 -34 -16.5 -63t-52 -54.5
t-70.5 -43.5t-93 -44h213l-58 -117h-13q10 22 10 35q0 27 -49 27h-222l6 24l87 38t74 40t61.5 47t37.5 54t15 66q0 34 -17.5 54.5t-50.5 20.5q-35 0 -59.5 -26.5t-24.5 -63.5q0 -36 32 -54l-1 -7q-21 -7 -32 -7q-27 0 -42.5 17t-15.5 40q0 40 43.5 78t104.5 38
q63 0 98 -26.5t35 -72.5z" />
    <glyph glyph-name="threequarters" unicode="&#xbe;" horiz-adv-x="500" 
d="M462 625q0 -71 -107 -99q42 -5 66.5 -27t24.5 -56q0 -50 -52 -86t-129 -36q-56 0 -86.5 21t-32.5 50q-1 14 7 24.5t21 11.5q29 2 39 -29q18 -63 54 -63q46 0 78 33t32 79q0 31 -14 48.5t-31 17.5q-9 0 -26.5 -13t-30.5 -13q-25 0 -25 19q0 10 11 17t25 7h33q29 0 54 28.5
t25 68.5q0 31 -17.5 47.5t-44.5 16.5q-25 0 -43 -16t-18 -37q0 -25 27 -36l-2 -6q-16 -7 -33 -7q-21 0 -34 11.5t-13 28.5q0 29 34 52.5t85 23.5q56 0 89.5 -21.5t33.5 -59.5zM470 273l-7 -26h-414l7 26h414zM244 130l-199 -184h151zM358 1l-34 -127h-11q2 16 2 23
q0 17 -7.5 24t-27.5 7h-25l-11 -45q-7 -30 -7 -40q0 -35 52 -36l-3 -11h-186l3 11q36 1 51 18t26 58l11 45h-179l5 17l283 259h28l-68 -258h25q26 0 38 12t24 43h11z" />
    <glyph glyph-name="questiondown" unicode="&#xbf;" horiz-adv-x="471" 
d="M333 411q0 -22 -14.5 -37.5t-36.5 -15.5t-37 15.5t-15 37.5t15 37t37 15t36.5 -15t14.5 -37zM369 -15q0 -111 -89 -184q-78 -63 -164 -63q-58 0 -93 32t-35 92q0 81 64 165q15 19 34.5 40.5t34 36l37 36.5l32.5 32q59 59 59 101q0 25 -30 25q-33 0 -83 -67l-10 6
q20 34 51 58t68 24q27 0 45 -18t18 -46q0 -32 -18.5 -61t-54.5 -68l-35 -35.5t-45.5 -48t-34.5 -41.5q-67 -89 -67 -175q0 -74 64 -74q59 0 117 72q35 43 60.5 101.5t25.5 99.5t-30 41q-14 0 -27 -7t-19.5 -13.5t-17.5 -20.5l-9 6q38 51 82 51q34 0 52 -26.5t18 -70.5z" />
    <glyph glyph-name="Agrave" unicode="&#xc0;" horiz-adv-x="660" 
d="M578 743l-14 -5l-113 147q-15 20 -15 36q0 15 10.5 23.5t23.5 8.5q29 0 46 -44zM457 583q-193 -246 -226 -291h215q1 40 5 135.5t6 155.5zM620 10l-3 -10h-302l3 10q88 12 109 63q9 22 17 200h-229l-37 -52q-81 -114 -81 -159q0 -43 75 -52l-4 -10h-255l4 10
q25 2 47.5 12.5t50 37t39 40l44.5 54.5l14 17l183 236l246 307h17q-23 -531 -23 -583q0 -60 17 -88t68 -33z" />
    <glyph glyph-name="Aacute" unicode="&#xc1;" horiz-adv-x="660" 
d="M685 921q0 -16 -18 -36l-137 -147l-13 5l89 166q23 44 51 44t28 -32zM457 583q-193 -246 -226 -291h215q1 40 5 135.5t6 155.5zM620 10l-3 -10h-302l3 10q88 12 109 63q9 22 17 200h-229l-37 -52q-81 -114 -81 -159q0 -43 75 -52l-4 -10h-255l4 10q25 2 47.5 12.5t50 37
t39 40l44.5 54.5l14 17l183 236l246 307h17q-23 -531 -23 -583q0 -60 17 -88t68 -33z" />
    <glyph glyph-name="Acircumflex" unicode="&#xc2;" horiz-adv-x="660" 
d="M656 742l-14 -7l-77 147l-147 -147l-12 7l120 168q25 35 51 35q25 0 34 -35zM457 583q-193 -246 -226 -291h215q1 40 5 135.5t6 155.5zM620 10l-3 -10h-302l3 10q88 12 109 63q9 22 17 200h-229l-37 -52q-81 -114 -81 -159q0 -43 75 -52l-4 -10h-255l4 10q25 2 47.5 12.5
t50 37t39 40l44.5 54.5l14 17l183 236l246 307h17q-23 -531 -23 -583q0 -60 17 -88t68 -33z" />
    <glyph glyph-name="Atilde" unicode="&#xc3;" horiz-adv-x="660" 
d="M679 890q-28 -104 -103 -104q-24 0 -53 17q-31 18 -53 18q-48 0 -67 -56l-15 4q31 102 104 102q31 0 59 -18q28 -16 51 -16q22 0 36 11.5t29 45.5zM457 583q-193 -246 -226 -291h215q1 40 5 135.5t6 155.5zM620 10l-3 -10h-302l3 10q88 12 109 63q9 22 17 200h-229
l-37 -52q-81 -114 -81 -159q0 -43 75 -52l-4 -10h-255l4 10q25 2 47.5 12.5t50 37t39 40l44.5 54.5l14 17l183 236l246 307h17q-23 -531 -23 -583q0 -60 17 -88t68 -33z" />
    <glyph glyph-name="Adieresis" unicode="&#xc4;" horiz-adv-x="660" 
d="M506 826q0 -18 -13 -31.5t-31 -13.5q-19 0 -32 13.5t-13 31.5t13 31t32 13q18 0 31 -13t13 -31zM669 826q0 -18 -13 -31.5t-31 -13.5t-31.5 13.5t-13.5 31.5t13.5 31t31.5 13t31 -13t13 -31zM457 583q-193 -246 -226 -291h215q1 40 5 135.5t6 155.5zM620 10l-3 -10h-302
l3 10q88 12 109 63q9 22 17 200h-229l-37 -52q-81 -114 -81 -159q0 -43 75 -52l-4 -10h-255l4 10q25 2 47.5 12.5t50 37t39 40l44.5 54.5l14 17l183 236l246 307h17q-23 -531 -23 -583q0 -60 17 -88t68 -33z" />
    <glyph glyph-name="Aring" unicode="&#xc5;" horiz-adv-x="660" 
d="M624 840q0 59 -42 59q-32 0 -53.5 -38t-21.5 -81q0 -61 43 -61q33 0 53.5 40t20.5 81zM457 583q-193 -246 -226 -291h215q1 40 5 135.5t6 155.5zM172 10l-4 -10h-255l4 10q25 2 47.5 12.5t50 37t39 40l44.5 54.5l14 17l183 236l240 300q-37 4 -57.5 27t-20.5 58
q0 46 37.5 83t89.5 37q43 0 66.5 -23.5t23.5 -59.5q0 -50 -35 -84.5t-81 -38.5q-23 -527 -23 -575q0 -60 17 -88t68 -33l-3 -10h-302l3 10q88 12 109 63q9 22 17 200h-229l-37 -52q-81 -114 -81 -159q0 -43 75 -52z" />
    <glyph glyph-name="AE" unicode="&#xc6;" horiz-adv-x="995" 
d="M587 673q2 12 -2 12q-2 0 -14 -14l-280 -322h211zM993 533h-12q-23 90 -67 121.5t-148 31.5q-43 0 -73 -3q-34 -111 -94 -334q92 0 146 28t70 97h12l-66 -279h-11q2 24 2 33q0 67 -34 86t-122 20l-18 -68q-33 -123 -33 -165q0 -86 130 -86q185 0 280 195h12l-62 -210
h-606l3 10q41 8 57.5 12.5t35.5 19t29 38t23 69.5l51 184h-221q-7 -9 -37.5 -44.5l-58 -68.5l-41.5 -50q-63 -80 -63 -113q0 -37 76 -47l-3 -10h-275l3 10q46 7 94 37.5t78 60.5t74 79l333 383q51 57 51 76q0 29 -84 43l2 9h557z" />
    <glyph glyph-name="Ccedilla" unicode="&#xc7;" horiz-adv-x="610" 
d="M618 491h-11q-33 114 -69.5 161t-99.5 47q-41 0 -88 -35t-79 -89q-93 -155 -93 -323q0 -115 45.5 -174t126.5 -59q75 0 129.5 47t95.5 157l15 -8q-40 -114 -104 -171.5t-168 -61.5l-38 -49q9 3 23 3q38 0 61 -19t23 -51q0 -48 -39.5 -82t-95.5 -34q-40 0 -59 16t-19 31
q0 9 7 17.5t19 8.5q22 0 27 -31q6 -28 28 -28q32 0 55 29t23 76q0 21 -10 33t-20 15t-20 3q-13 0 -31 -7l4 16l42 53q-108 1 -171 71t-63 186t49.5 225.5t138.5 180.5t193 71q36 0 64.5 -7t44 -14.5t19.5 -7.5q23 0 35 15h10v-211z" />
    <glyph glyph-name="Egrave" unicode="&#xc8;" horiz-adv-x="667" 
d="M502 743l-14 -5l-113 147q-15 20 -15 36q0 15 10.5 23.5t23.5 8.5q29 0 46 -44zM665 533h-12q-23 90 -67 121.5t-148 31.5q-44 0 -74 -3q-17 -57 -85 -308q92 0 145 28t69 97h12l-64 -276h-11q2 24 2 33q0 67 -34 86t-122 20l-26 -97q-32 -123 -32 -165q0 -86 129 -86
q185 0 280 195h12l-62 -210h-606l3 10q41 8 58 12.5t36 19t29 38.5t23 69q8 27 55 203q39 144 54 210q9 45 9 56q0 20 -5.5 32.5t-19 20t-24 10.5t-34.5 7l3 10h497z" />
    <glyph glyph-name="Eacute" unicode="&#xc9;" horiz-adv-x="667" 
d="M572 921q0 -16 -18 -36l-137 -147l-13 5l89 166q23 44 51 44t28 -32zM665 533h-12q-23 90 -67 121.5t-148 31.5q-44 0 -74 -3q-17 -57 -85 -308q92 0 145 28t69 97h12l-64 -276h-11q2 24 2 33q0 67 -34 86t-122 20l-26 -97q-32 -123 -32 -165q0 -86 129 -86
q185 0 280 195h12l-62 -210h-606l3 10q41 8 58 12.5t36 19t29 38.5t23 69q8 27 55 203q39 144 54 210q9 45 9 56q0 20 -5.5 32.5t-19 20t-24 10.5t-34.5 7l3 10h497z" />
    <glyph glyph-name="Ecircumflex" unicode="&#xca;" horiz-adv-x="667" 
d="M570 742l-14 -7l-77 147l-147 -147l-12 7l120 168q25 35 51 35q25 0 34 -35zM665 533h-12q-23 90 -67 121.5t-148 31.5q-44 0 -74 -3q-17 -57 -85 -308q92 0 145 28t69 97h12l-64 -276h-11q2 24 2 33q0 67 -34 86t-122 20l-26 -97q-32 -123 -32 -165q0 -86 129 -86
q185 0 280 195h12l-62 -210h-606l3 10q41 8 58 12.5t36 19t29 38.5t23 69q8 27 55 203q39 144 54 210q9 45 9 56q0 20 -5.5 32.5t-19 20t-24 10.5t-34.5 7l3 10h497z" />
    <glyph glyph-name="Edieresis" unicode="&#xcb;" horiz-adv-x="667" 
d="M420 826q0 -18 -13 -31.5t-31 -13.5q-19 0 -32 13.5t-13 31.5t13 31t32 13q18 0 31 -13t13 -31zM583 826q0 -18 -13 -31.5t-31 -13.5t-31.5 13.5t-13.5 31.5t13.5 31t31.5 13t31 -13t13 -31zM665 533h-12q-23 90 -67 121.5t-148 31.5q-44 0 -74 -3q-17 -57 -85 -308
q92 0 145 28t69 97h12l-64 -276h-11q2 24 2 33q0 67 -34 86t-122 20l-26 -97q-32 -123 -32 -165q0 -86 129 -86q185 0 280 195h12l-62 -210h-606l3 10q41 8 58 12.5t36 19t29 38.5t23 69q8 27 55 203q39 144 54 210q9 45 9 56q0 20 -5.5 32.5t-19 20t-24 10.5t-34.5 7l3 10
h497z" />
    <glyph glyph-name="Igrave" unicode="&#xcc;" horiz-adv-x="390" 
d="M375 743l-14 -5l-113 147q-15 20 -15 36q0 15 10.5 23.5t23.5 8.5q29 0 46 -44zM466 698l-3 -10q-41 -8 -56.5 -12.5t-33 -20t-25.5 -37.5t-22 -69q-10 -33 -28.5 -104t-25.5 -96l-33 -125t-23 -89q-8 -32 -8 -55q0 -9 1 -16.5t5 -13.5l6.5 -10t9.5 -8l10.5 -6t13.5 -5
t13 -4t15.5 -3.5t15.5 -3.5l-3 -10h-314l3 10q41 8 56.5 12.5t32.5 20t25 37.5t22 69q8 27 55 203q39 144 54 210q10 50 10 56q0 16 -5.5 27.5t-11.5 18t-21.5 12t-23 7l-28.5 5.5l3 10h314z" />
    <glyph glyph-name="Iacute" unicode="&#xcd;" horiz-adv-x="390" 
d="M441 921q0 -16 -18 -36l-137 -147l-13 5l89 166q23 44 51 44t28 -32zM466 698l-3 -10q-41 -8 -56.5 -12.5t-33 -20t-25.5 -37.5t-22 -69q-10 -33 -28.5 -104t-25.5 -96l-33 -125t-23 -89q-8 -32 -8 -55q0 -9 1 -16.5t5 -13.5l6.5 -10t9.5 -8l10.5 -6t13.5 -5t13 -4
t15.5 -3.5t15.5 -3.5l-3 -10h-314l3 10q41 8 56.5 12.5t32.5 20t25 37.5t22 69q8 27 55 203q39 144 54 210q10 50 10 56q0 16 -5.5 27.5t-11.5 18t-21.5 12t-23 7l-28.5 5.5l3 10h314z" />
    <glyph glyph-name="Icircumflex" unicode="&#xce;" horiz-adv-x="390" 
d="M434 742l-14 -7l-77 147l-147 -147l-12 7l120 168q25 35 51 35q25 0 34 -35zM466 698l-3 -10q-41 -8 -56.5 -12.5t-33 -20t-25.5 -37.5t-22 -69q-10 -33 -28.5 -104t-25.5 -96l-33 -125t-23 -89q-8 -32 -8 -55q0 -9 1 -16.5t5 -13.5l6.5 -10t9.5 -8l10.5 -6t13.5 -5
t13 -4t15.5 -3.5t15.5 -3.5l-3 -10h-314l3 10q41 8 56.5 12.5t32.5 20t25 37.5t22 69q8 27 55 203q39 144 54 210q10 50 10 56q0 16 -5.5 27.5t-11.5 18t-21.5 12t-23 7l-28.5 5.5l3 10h314z" />
    <glyph glyph-name="Idieresis" unicode="&#xcf;" horiz-adv-x="390" 
d="M290 826q0 -18 -13 -31.5t-31 -13.5q-19 0 -32 13.5t-13 31.5t13 31t32 13q18 0 31 -13t13 -31zM453 826q0 -18 -13 -31.5t-31 -13.5t-31.5 13.5t-13.5 31.5t13.5 31t31.5 13t31 -13t13 -31zM466 698l-3 -10q-41 -8 -56.5 -12.5t-33 -20t-25.5 -37.5t-22 -69
q-10 -33 -28.5 -104t-25.5 -96l-33 -125t-23 -89q-8 -32 -8 -55q0 -9 1 -16.5t5 -13.5l6.5 -10t9.5 -8l10.5 -6t13.5 -5t13 -4t15.5 -3.5t15.5 -3.5l-3 -10h-314l3 10q41 8 56.5 12.5t32.5 20t25 37.5t22 69q8 27 55 203q39 144 54 210q10 50 10 56q0 16 -5.5 27.5t-11.5 18
t-21.5 12t-23 7l-28.5 5.5l3 10h314z" />
    <glyph glyph-name="Eth" unicode="&#xd0;" horiz-adv-x="752" 
d="M742 394q0 -101 -34 -180t-91.5 -125t-127.5 -69.5t-148 -23.5q-33 0 -110 2t-98 2h-155l2 10q29 6 40 8.5t28 9.5t23.5 14.5t16.5 22.5t16.5 34t15.5 50q10 34 30 110.5t24 89.5h-97l4 21h99q45 173 49 192q9 45 9 56q0 16 -5.5 27.5t-11.5 18t-21.5 12t-22.5 7t-28 5.5
l3 10h124q19 0 51.5 0.5t46.5 0.5q155 0 243 -61q125 -86 125 -244zM632 395q0 57 -14 108t-42 93t-75 66.5t-107 24.5q-13 0 -27 -2q-18 -58 -89 -315h187l-4 -21h-189q-42 -159 -54 -214q-4 -22 -4 -41q0 -83 111 -83q100 0 189 83q54 50 86 128.5t32 172.5z" />
    <glyph glyph-name="Ntilde" unicode="&#xd1;" horiz-adv-x="743" 
d="M666 890q-28 -104 -103 -104q-24 0 -53 17q-32 18 -53 18q-48 0 -67 -56l-15 4q31 102 104 102q31 0 59 -18q28 -16 51 -16q22 0 36 11.5t29 45.5zM860 698l-3 -10q-66 -10 -96 -45t-62 -138q-1 -3 -46 -159q-10 -36 -24.5 -94.5t-18.5 -73.5q-30 -108 -49 -184h-21
l-281 584l-65 -229l-17.5 -63l-16.5 -64t-12 -46q-15 -60 -15 -91q0 -38 24 -55t69 -20l-3 -10h-254l3 10q66 10 96 45t62 138q1 3 46 159q18 62 46 168q10 37 19 83q-13 43 -35.5 58t-74.5 28l2 9h174l271 -561l31 115t26 97q12 42 46 173q15 60 15 91q0 38 -24 55t-69 20
l3 10h254z" />
    <glyph glyph-name="Ograve" unicode="&#xd2;" horiz-adv-x="722" 
d="M522 743l-14 -5l-113 147q-15 20 -15 36q0 15 10.5 23.5t23.5 8.5q29 0 46 -44zM717 424q0 -90 -35 -176t-102 -153q-112 -112 -252 -112q-119 0 -190 78.5t-71 209.5q0 193 137 333q109 112 252 112q120 0 190.5 -79t70.5 -213zM613 493q0 95 -42.5 152t-115.5 57
q-128 0 -220 -202q-64 -140 -64 -293q0 -95 42.5 -152.5t114.5 -57.5q132 0 221 202q64 144 64 294z" />
    <glyph glyph-name="Oacute" unicode="&#xd3;" horiz-adv-x="722" 
d="M577 921q0 -16 -18 -36l-137 -147l-13 5l89 166q23 44 51 44t28 -32zM717 424q0 -90 -35 -176t-102 -153q-112 -112 -252 -112q-119 0 -190 78.5t-71 209.5q0 193 137 333q109 112 252 112q120 0 190.5 -79t70.5 -213zM613 493q0 95 -42.5 152t-115.5 57
q-128 0 -220 -202q-64 -140 -64 -293q0 -95 42.5 -152.5t114.5 -57.5q132 0 221 202q64 144 64 294z" />
    <glyph glyph-name="Ocircumflex" unicode="&#xd4;" horiz-adv-x="722" 
d="M582 742l-14 -7l-77 147l-147 -147l-12 7l120 168q25 35 51 35q25 0 34 -35zM717 424q0 -90 -35 -176t-102 -153q-112 -112 -252 -112q-119 0 -190 78.5t-71 209.5q0 193 137 333q109 112 252 112q120 0 190.5 -79t70.5 -213zM613 493q0 95 -42.5 152t-115.5 57
q-128 0 -220 -202q-64 -140 -64 -293q0 -95 42.5 -152.5t114.5 -57.5q132 0 221 202q64 144 64 294z" />
    <glyph glyph-name="Otilde" unicode="&#xd5;" horiz-adv-x="722" 
d="M616 890q-28 -104 -103 -104q-24 0 -53 17q-31 18 -53 18q-48 0 -67 -56l-15 4q31 102 104 102q31 0 59 -18q28 -16 51 -16q22 0 36 11.5t29 45.5zM717 424q0 -90 -35 -176t-102 -153q-112 -112 -252 -112q-119 0 -190 78.5t-71 209.5q0 193 137 333q109 112 252 112
q120 0 190.5 -79t70.5 -213zM613 493q0 95 -42.5 152t-115.5 57q-128 0 -220 -202q-64 -140 -64 -293q0 -95 42.5 -152.5t114.5 -57.5q132 0 221 202q64 144 64 294z" />
    <glyph glyph-name="Odieresis" unicode="&#xd6;" horiz-adv-x="722" 
d="M440 826q0 -18 -13 -31.5t-31 -13.5q-19 0 -32 13.5t-13 31.5t13 31t32 13q18 0 31 -13t13 -31zM603 826q0 -18 -13 -31.5t-31 -13.5t-31.5 13.5t-13.5 31.5t13.5 31t31.5 13t31 -13t13 -31zM717 424q0 -90 -35 -176t-102 -153q-112 -112 -252 -112q-119 0 -190 78.5
t-71 209.5q0 193 137 333q109 112 252 112q120 0 190.5 -79t70.5 -213zM613 493q0 95 -42.5 152t-115.5 57q-128 0 -220 -202q-64 -140 -64 -293q0 -95 42.5 -152.5t114.5 -57.5q132 0 221 202q64 144 64 294z" />
    <glyph glyph-name="multiply" unicode="&#xd7;" 
d="M550 94l-27 -28l-166 168l-167 -168l-28 28l168 167l-168 166l28 27l166 -168l166 168l28 -28l-168 -166z" />
    <glyph glyph-name="Oslash" unicode="&#xd8;" horiz-adv-x="722" 
d="M571 648q-42 54 -116 54q-130 0 -222 -202q-64 -140 -64 -293q0 -86 32 -139zM615 493q0 86 -31 140l-370 -581q42 -55 114 -55q134 0 223 202q64 144 64 294zM717 424q0 -90 -35 -176t-102 -153q-112 -112 -252 -112q-76 0 -135 36l-47 -74h-24l54 85
q-52 38 -80.5 100.5t-28.5 140.5q0 193 137 333q109 112 252 112q77 0 136 -36l31 50h23l-38 -60q52 -37 80.5 -101t28.5 -145z" />
    <glyph glyph-name="Ugrave" unicode="&#xd9;" horiz-adv-x="735" 
d="M549 743l-14 -5l-113 147q-15 20 -15 36q0 15 10.5 23.5t23.5 8.5q29 0 46 -44zM849 698l-3 -10q-66 -10 -96 -45t-62 -138q-8 -25 -26 -95l-23 -89q-30 -108 -51 -163.5t-50 -89.5q-73 -85 -201 -85q-110 0 -167.5 46.5t-57.5 133.5q0 52 15 109q66 245 76 290
q10 50 10 56q0 16 -5.5 27.5t-11.5 18t-21.5 12t-23 7l-28.5 5.5l3 10h313l-3 -10q-67 -14 -93 -42t-44 -97l-77 -298q-11 -40 -11 -99q0 -65 39 -101.5t115 -36.5q95 0 144 52t90 181q4 13 13 47t15 54l44 174q15 60 15 91q0 38 -24 55t-69 20l3 10h253z" />
    <glyph glyph-name="Uacute" unicode="&#xda;" horiz-adv-x="735" 
d="M627 921q0 -16 -18 -36l-137 -147l-13 5l89 166q23 44 51 44t28 -32zM849 698l-3 -10q-66 -10 -96 -45t-62 -138q-8 -25 -26 -95l-23 -89q-30 -108 -51 -163.5t-50 -89.5q-73 -85 -201 -85q-110 0 -167.5 46.5t-57.5 133.5q0 52 15 109q66 245 76 290q10 50 10 56
q0 16 -5.5 27.5t-11.5 18t-21.5 12t-23 7l-28.5 5.5l3 10h313l-3 -10q-67 -14 -93 -42t-44 -97l-77 -298q-11 -40 -11 -99q0 -65 39 -101.5t115 -36.5q95 0 144 52t90 181q4 13 13 47t15 54l44 174q15 60 15 91q0 38 -24 55t-69 20l3 10h253z" />
    <glyph glyph-name="Ucircumflex" unicode="&#xdb;" horiz-adv-x="735" 
d="M637 742l-14 -7l-77 147l-147 -147l-12 7l120 168q25 35 51 35q25 0 34 -35zM849 698l-3 -10q-66 -10 -96 -45t-62 -138q-8 -25 -26 -95l-23 -89q-30 -108 -51 -163.5t-50 -89.5q-73 -85 -201 -85q-110 0 -167.5 46.5t-57.5 133.5q0 52 15 109q66 245 76 290q10 50 10 56
q0 16 -5.5 27.5t-11.5 18t-21.5 12t-23 7l-28.5 5.5l3 10h313l-3 -10q-67 -14 -93 -42t-44 -97l-77 -298q-11 -40 -11 -99q0 -65 39 -101.5t115 -36.5q95 0 144 52t90 181q4 13 13 47t15 54l44 174q15 60 15 91q0 38 -24 55t-69 20l3 10h253z" />
    <glyph glyph-name="Udieresis" unicode="&#xdc;" horiz-adv-x="735" 
d="M479 826q0 -18 -13 -31.5t-31 -13.5q-19 0 -32 13.5t-13 31.5t13 31t32 13q18 0 31 -13t13 -31zM642 826q0 -18 -13 -31.5t-31 -13.5t-31.5 13.5t-13.5 31.5t13.5 31t31.5 13t31 -13t13 -31zM849 698l-3 -10q-66 -10 -96 -45t-62 -138q-8 -25 -26 -95l-23 -89
q-30 -108 -51 -163.5t-50 -89.5q-73 -85 -201 -85q-110 0 -167.5 46.5t-57.5 133.5q0 52 15 109q66 245 76 290q10 50 10 56q0 16 -5.5 27.5t-11.5 18t-21.5 12t-23 7l-28.5 5.5l3 10h313l-3 -10q-67 -14 -93 -42t-44 -97l-77 -298q-11 -40 -11 -99q0 -65 39 -101.5
t115 -36.5q95 0 144 52t90 181q4 13 13 47t15 54l44 174q15 60 15 91q0 38 -24 55t-69 20l3 10h253z" />
    <glyph glyph-name="Yacute" unicode="&#xdd;" horiz-adv-x="585" 
d="M568 921q0 -16 -18 -36l-137 -147l-13 5l89 166q23 44 51 44t28 -32zM734 698l-3 -10q-47 -3 -91 -45t-121 -139q-10 -14 -16 -21l-150 -188l-40 -160q-7 -28 -7 -55q0 -11 2.5 -20t9.5 -16t11.5 -11t17.5 -8l18 -5.5t21.5 -5t20.5 -4.5l-3 -10h-334l3 10q42 9 57.5 13.5
t35 19t29 38t22.5 68.5l40 157l-84 286q-15 50 -35.5 72t-66.5 24l3 10h295l-3 -10q-49 -2 -71.5 -18t-22.5 -49q0 -25 19 -95l58 -205l159 200q67 85 67 123q0 19 -19 31.5t-50 12.5l4 10h224z" />
    <glyph glyph-name="Thorn" unicode="&#xde;" horiz-adv-x="637" 
d="M525 407q0 62 -42 99.5t-132 37.5q-4 0 -14 -0.5t-13 -0.5l-89 -339q70 -4 78 -4q101 0 156.5 57t55.5 150zM634 393q0 -99 -76.5 -154.5t-219.5 -55.5q-22 0 -106 8l-14 -56q-7 -31 -7 -55q0 -35 24 -48t71 -21q5 -1 8 -1l-3 -10h-330l3 10q41 8 56.5 12.5t32.5 20
t25 37.5t22 69q8 27 55 203q39 144 54 210q9 45 9 56q0 20 -6 32.5t-21.5 20t-25.5 10t-35 7.5l3 10h310l-3 -10q-65 -14 -81 -24q-23 -16 -43 -80q-4 -12 -8 -27h36q137 0 203.5 -39t66.5 -125z" />
    <glyph glyph-name="germandbls" unicode="&#xdf;" horiz-adv-x="471" 
d="M472 583q-4 -71 -43 -118t-107 -60q56 -10 89 -51t33 -100q0 -95 -62 -177t-148 -82q-33 0 -58 12t-25 32q0 37 33 37q27 0 34 -37q2 -13 11 -21.5t21 -8.5q26 0 54 45.5t46.5 114.5t18.5 131q0 41 -29.5 69.5t-79.5 27.5l5 16q39 0 56 8q33 15 56 65.5t26 115.5
q2 47 -13.5 73.5t-48.5 26.5q-28 0 -53 -22.5t-39 -62.5q-36 -104 -60 -217l-73 -329q-39 -175 -78 -238q-54 -86 -164 -86q-45 0 -74.5 17.5t-29.5 43.5q0 18 10 30t28 12q30 0 37 -45q4 -22 15 -32.5t33 -10.5q20 0 45.5 22.5t37.5 59.5q40 115 64 228l73 332
q37 171 72 226q53 87 164 87q55 0 90.5 -37t32.5 -97z" />
    <glyph glyph-name="agrave" unicode="&#xe0;" horiz-adv-x="497" 
d="M350 507l-14 -5l-113 147q-15 20 -15 36q0 15 10.5 23.5t23.5 8.5q29 0 46 -44zM492 140q-64 -151 -155 -151q-64 0 -64 66q0 18 25 105q-45 -85 -89.5 -128t-98.5 -43q-55 0 -76.5 26.5t-21.5 76.5q0 48 23 115t62 120q44 59 94 91t92 32q63 0 79 -69l18 61l72 -6
l-57 -179q-52 -165 -52 -207q0 -28 23 -28q57 0 113 123zM345 372q0 31 -15 46.5t-40 15.5q-63 0 -132 -128q-67 -123 -67 -213q0 -68 46 -68q81 0 151 145q57 118 57 202z" />
    <glyph glyph-name="aacute" unicode="&#xe1;" horiz-adv-x="497" 
d="M427 685q0 -16 -18 -36l-137 -147l-13 5l89 166q23 44 51 44t28 -32zM492 140q-64 -151 -155 -151q-64 0 -64 66q0 18 25 105q-45 -85 -89.5 -128t-98.5 -43q-55 0 -76.5 26.5t-21.5 76.5q0 48 23 115t62 120q44 59 94 91t92 32q63 0 79 -69l18 61l72 -6l-57 -179
q-52 -165 -52 -207q0 -28 23 -28q57 0 113 123zM345 372q0 31 -15 46.5t-40 15.5q-63 0 -132 -128q-67 -123 -67 -213q0 -68 46 -68q81 0 151 145q57 118 57 202z" />
    <glyph glyph-name="acircumflex" unicode="&#xe2;" horiz-adv-x="497" 
d="M428 506l-14 -7l-77 147l-147 -147l-12 7l120 168q25 35 51 35q25 0 34 -35zM492 140q-64 -151 -155 -151q-64 0 -64 66q0 18 25 105q-45 -85 -89.5 -128t-98.5 -43q-55 0 -76.5 26.5t-21.5 76.5q0 48 23 115t62 120q44 59 94 91t92 32q63 0 79 -69l18 61l72 -6l-57 -179
q-52 -165 -52 -207q0 -28 23 -28q57 0 113 123zM345 372q0 31 -15 46.5t-40 15.5q-63 0 -132 -128q-67 -123 -67 -213q0 -68 46 -68q81 0 151 145q57 118 57 202z" />
    <glyph glyph-name="atilde" unicode="&#xe3;" horiz-adv-x="497" 
d="M472 654q-28 -104 -103 -104q-24 0 -53 17q-32 18 -53 18q-48 0 -67 -56l-15 4q31 102 104 102q31 0 59 -18q28 -16 51 -16q22 0 36 11.5t29 45.5zM492 140q-64 -151 -155 -151q-64 0 -64 66q0 18 25 105q-45 -85 -89.5 -128t-98.5 -43q-55 0 -76.5 26.5t-21.5 76.5
q0 48 23 115t62 120q44 59 94 91t92 32q63 0 79 -69l18 61l72 -6l-57 -179q-52 -165 -52 -207q0 -28 23 -28q57 0 113 123zM345 372q0 31 -15 46.5t-40 15.5q-63 0 -132 -128q-67 -123 -67 -213q0 -68 46 -68q81 0 151 145q57 118 57 202z" />
    <glyph glyph-name="adieresis" unicode="&#xe4;" horiz-adv-x="497" 
d="M283 590q0 -18 -13 -31.5t-31 -13.5q-19 0 -32 13.5t-13 31.5t13 31t32 13q18 0 31 -13t13 -31zM446 590q0 -18 -13 -31.5t-31 -13.5t-31.5 13.5t-13.5 31.5t13.5 31t31.5 13t31 -13t13 -31zM492 140q-64 -151 -155 -151q-64 0 -64 66q0 18 25 105q-45 -85 -89.5 -128
t-98.5 -43q-55 0 -76.5 26.5t-21.5 76.5q0 48 23 115t62 120q44 59 94 91t92 32q63 0 79 -69l18 61l72 -6l-57 -179q-52 -165 -52 -207q0 -28 23 -28q57 0 113 123zM345 372q0 31 -15 46.5t-40 15.5q-63 0 -132 -128q-67 -123 -67 -213q0 -68 46 -68q81 0 151 145
q57 118 57 202z" />
    <glyph glyph-name="aring" unicode="&#xe5;" horiz-adv-x="497" 
d="M419 621q0 -53 -39 -88t-87 -35q-42 0 -66.5 24t-24.5 62q0 46 37.5 83t89.5 37q43 0 66.5 -23.5t23.5 -59.5zM369 632q0 59 -42 59q-32 0 -53.5 -38t-21.5 -81q0 -61 43 -61q33 0 53.5 40t20.5 81zM492 140q-64 -151 -155 -151q-64 0 -64 66q0 18 25 105
q-45 -85 -89.5 -128t-98.5 -43q-55 0 -76.5 26.5t-21.5 76.5q0 48 23 115t62 120q44 59 94 91t92 32q63 0 79 -69l18 61l72 -6l-57 -179q-52 -165 -52 -207q0 -28 23 -28q57 0 113 123zM345 372q0 31 -15 46.5t-40 15.5q-63 0 -132 -128q-67 -123 -67 -213q0 -68 46 -68
q81 0 151 145q57 118 57 202z" />
    <glyph glyph-name="ae" unicode="&#xe6;" horiz-adv-x="622" 
d="M616 382q0 -63 -56 -101.5t-180 -62.5q-13 -54 -13 -118q0 -35 21 -58.5t57 -23.5q38 0 72 30t53 88l14 -8q-48 -139 -176 -139q-53 0 -85.5 32t-32.5 91q0 20 3 41q-42 -82 -85.5 -123t-97.5 -41q-55 0 -76.5 26.5t-21.5 76.5q0 48 23 115t62 120q44 59 93.5 91t91.5 32
q33 0 50 -15.5t26 -45.5l16 53l52 -6l-19 -58q67 72 132 72q37 0 57 -20.5t20 -47.5zM343 372q0 31 -15 46.5t-39 15.5q-62 0 -131 -128q-67 -123 -67 -213q0 -68 46 -68q79 0 149 145q57 118 57 202zM564 394q0 18 -10.5 29t-27.5 11q-37 0 -77.5 -57t-63.5 -142
q86 19 132.5 65t46.5 94z" />
    <glyph glyph-name="ccedilla" unicode="&#xe7;" horiz-adv-x="346" 
d="M348 398q0 -17 -10.5 -28.5t-28.5 -11.5q-23 0 -34 27q-1 3 -4.5 12.5l-6 16.5t-7 13.5t-9.5 6.5q-34 0 -76 -71q-74 -128 -74 -254q0 -39 20.5 -65t52.5 -26q44 0 76.5 28.5t59.5 97.5l13 -8q-51 -136 -158 -146l-41 -57q9 3 21 3q36 0 58 -19t22 -51q0 -47 -37.5 -81.5
t-90.5 -34.5q-38 0 -55.5 16t-17.5 31q0 9 6.5 17.5t17.5 8.5q21 0 26 -31q6 -28 26 -28q30 0 52 29t22 76q0 29 -15.5 40.5t-31.5 11.5q-14 0 -30 -7l4 15l45 60q-60 0 -91.5 35.5t-31.5 102.5q0 71 35 146.5t92.5 126t114.5 50.5q38 0 62 -13t24 -39z" />
    <glyph glyph-name="egrave" unicode="&#xe8;" horiz-adv-x="352" 
d="M323 507l-14 -5l-113 147q-15 20 -15 36q0 15 10.5 23.5t23.5 8.5q29 0 46 -44zM346 382q0 -63 -55 -101t-178 -62q-15 -57 -15 -119q0 -36 21 -59t57 -23q38 0 72 30t53 88l14 -8q-48 -139 -176 -139q-53 0 -86 32.5t-33 91.5q0 123 82.5 230t166.5 107q37 0 57 -20.5
t20 -47.5zM292 394q0 18 -10 29t-26 11q-35 0 -75 -57t-63 -141q84 19 129 65.5t45 92.5z" />
    <glyph glyph-name="eacute" unicode="&#xe9;" horiz-adv-x="352" 
d="M387 685q0 -16 -18 -36l-137 -147l-13 5l89 166q23 44 51 44t28 -32zM346 382q0 -63 -55 -101t-178 -62q-15 -57 -15 -119q0 -36 21 -59t57 -23q38 0 72 30t53 88l14 -8q-48 -139 -176 -139q-53 0 -86 32.5t-33 91.5q0 123 82.5 230t166.5 107q37 0 57 -20.5t20 -47.5z
M292 394q0 18 -10 29t-26 11q-35 0 -75 -57t-63 -141q84 19 129 65.5t45 92.5z" />
    <glyph glyph-name="ecircumflex" unicode="&#xea;" horiz-adv-x="352" 
d="M390 506l-14 -7l-77 147l-147 -147l-12 7l120 168q25 35 51 35q25 0 34 -35zM346 382q0 -63 -55 -101t-178 -62q-15 -57 -15 -119q0 -36 21 -59t57 -23q38 0 72 30t53 88l14 -8q-48 -139 -176 -139q-53 0 -86 32.5t-33 91.5q0 123 82.5 230t166.5 107q37 0 57 -20.5
t20 -47.5zM292 394q0 18 -10 29t-26 11q-35 0 -75 -57t-63 -141q84 19 129 65.5t45 92.5z" />
    <glyph glyph-name="edieresis" unicode="&#xeb;" horiz-adv-x="352" 
d="M244 590q0 -18 -13 -31.5t-31 -13.5q-19 0 -32 13.5t-13 31.5t13 31t32 13q18 0 31 -13t13 -31zM407 590q0 -18 -13 -31.5t-31 -13.5t-31.5 13.5t-13.5 31.5t13.5 31t31.5 13t31 -13t13 -31zM346 382q0 -63 -55 -101t-178 -62q-15 -57 -15 -119q0 -36 21 -59t57 -23
q38 0 72 30t53 88l14 -8q-48 -139 -176 -139q-53 0 -86 32.5t-33 91.5q0 123 82.5 230t166.5 107q37 0 57 -20.5t20 -47.5zM292 394q0 18 -10 29t-26 11q-35 0 -75 -57t-63 -141q84 19 129 65.5t45 92.5z" />
    <glyph glyph-name="igrave" unicode="&#xec;" horiz-adv-x="289" 
d="M249 507l-14 -5l-113 147q-15 20 -15 36q0 15 10.5 23.5t23.5 8.5q29 0 46 -44zM272 129q-56 -140 -141 -140q-72 0 -72 52q0 28 25 108l67 208q10 30 10 47q0 22 -18 22q-55 0 -112 -118l-13 6q63 136 146 136q68 0 68 -52q0 -33 -25 -108l-67 -208q-10 -33 -10 -47
q0 -21 22 -21q55 0 107 121z" />
    <glyph glyph-name="iacute" unicode="&#xed;" horiz-adv-x="289" 
d="M312 685q0 -16 -18 -36l-137 -147l-13 5l89 166q23 44 51 44t28 -32zM272 129q-56 -140 -141 -140q-72 0 -72 52q0 28 25 108l67 208q10 30 10 47q0 22 -18 22q-55 0 -112 -118l-13 6q63 136 146 136q68 0 68 -52q0 -33 -25 -108l-67 -208q-10 -33 -10 -47q0 -21 22 -21
q55 0 107 121z" />
    <glyph glyph-name="icircumflex" unicode="&#xee;" horiz-adv-x="289" 
d="M290 506l-14 -7l-65 147l-139 -147l-12 7l112 168q23 35 51 35q27 0 34 -35zM272 129q-56 -140 -141 -140q-72 0 -72 52q0 28 25 108l67 208q10 30 10 47q0 22 -18 22q-55 0 -112 -118l-13 6q63 136 146 136q68 0 68 -52q0 -33 -25 -108l-67 -208q-10 -33 -10 -47
q0 -21 22 -21q55 0 107 121z" />
    <glyph glyph-name="idieresis" unicode="&#xef;" horiz-adv-x="289" 
d="M161 590q0 -18 -13 -31.5t-31 -13.5q-19 0 -32 13.5t-13 31.5t13 31t32 13q18 0 31 -13t13 -31zM314 590q0 -18 -13 -31.5t-31 -13.5t-31.5 13.5t-13.5 31.5t13.5 31t31.5 13t31 -13t13 -31zM272 129q-56 -140 -141 -140q-72 0 -72 52q0 28 25 108l67 208q10 30 10 47
q0 22 -18 22q-55 0 -112 -118l-13 6q63 136 146 136q68 0 68 -52q0 -33 -25 -108l-67 -208q-10 -33 -10 -47q0 -21 22 -21q55 0 107 121z" />
    <glyph glyph-name="eth" unicode="&#xf0;" horiz-adv-x="425" 
d="M400 679l-120 -67q115 -122 115 -295q0 -146 -77 -245q-30 -39 -72.5 -61t-87.5 -22q-59 0 -95 44.5t-36 118.5q0 114 77 215q64 83 159 83q29 0 54 -17q-19 82 -74 158l-138 -78l-12 19l136 76q-49 60 -109 99l9 15q78 -38 135 -94l124 69zM322 323q0 50 -18.5 81
t-50.5 31q-25 0 -51 -22t-47 -65q-54 -114 -54 -232q0 -50 17.5 -81t48.5 -31q59 0 100 87q55 114 55 232z" />
    <glyph glyph-name="ntilde" unicode="&#xf1;" horiz-adv-x="538" 
d="M480 654q-28 -104 -103 -104q-24 0 -53 17q-31 18 -53 18q-48 0 -67 -56l-15 4q31 102 104 102q31 0 59 -18q28 -16 51 -16q22 0 36 11.5t29 45.5zM523 129q-34 -73 -65.5 -106.5t-77.5 -33.5q-75 0 -75 47q0 30 27 113l51 154q16 49 16 78q0 33 -33 33q-42 0 -71 -29
q-18 -17 -35 -41.5t-28 -45t-24 -54t-19 -52l-18.5 -57l-16.5 -50.5l-30 -90l-74 8l57 176q48 147 48 210q0 32 -17 32q-31 0 -57.5 -31.5t-56.5 -97.5l-13 6q33 77 69 114.5t81 37.5q27 0 42 -18t15 -51q0 -45 -21 -127q49 106 89 151t97 45q44 0 66.5 -23t22.5 -52
q0 -35 -19 -94l-65 -199q-10 -30 -10 -47q0 -21 23 -21q31 0 54.5 27.5t54.5 93.5z" />
    <glyph glyph-name="ograve" unicode="&#xf2;" horiz-adv-x="421" 
d="M300 507l-14 -5l-113 147q-15 20 -15 36q0 15 10.5 23.5t23.5 8.5q29 0 46 -44zM394 287q0 -117 -76 -215q-30 -39 -72.5 -61t-87.5 -22q-59 0 -95 44.5t-36 118.5q0 57 22.5 118.5t62.5 106.5q66 73 151 73q60 0 95.5 -44.5t35.5 -118.5zM320 323q0 50 -17.5 81
t-49.5 31q-25 0 -51 -22t-47 -65q-54 -114 -54 -232q0 -50 17.5 -81t48.5 -31q59 0 100 87q53 110 53 232z" />
    <glyph glyph-name="oacute" unicode="&#xf3;" horiz-adv-x="421" 
d="M387 685q0 -16 -18 -36l-137 -147l-13 5l89 166q23 44 51 44t28 -32zM394 287q0 -117 -76 -215q-30 -39 -72.5 -61t-87.5 -22q-59 0 -95 44.5t-36 118.5q0 57 22.5 118.5t62.5 106.5q66 73 151 73q60 0 95.5 -44.5t35.5 -118.5zM320 323q0 50 -17.5 81t-49.5 31
q-25 0 -51 -22t-47 -65q-54 -114 -54 -232q0 -50 17.5 -81t48.5 -31q59 0 100 87q53 110 53 232z" />
    <glyph glyph-name="ocircumflex" unicode="&#xf4;" horiz-adv-x="421" 
d="M381 506l-14 -7l-77 147l-147 -147l-12 7l120 168q25 35 51 35q25 0 34 -35zM394 287q0 -117 -76 -215q-30 -39 -72.5 -61t-87.5 -22q-59 0 -95 44.5t-36 118.5q0 57 22.5 118.5t62.5 106.5q66 73 151 73q60 0 95.5 -44.5t35.5 -118.5zM320 323q0 50 -17.5 81t-49.5 31
q-25 0 -51 -22t-47 -65q-54 -114 -54 -232q0 -50 17.5 -81t48.5 -31q59 0 100 87q53 110 53 232z" />
    <glyph glyph-name="otilde" unicode="&#xf5;" horiz-adv-x="421" 
d="M415 654q-28 -104 -103 -104q-24 0 -53 17q-32 18 -53 18q-48 0 -67 -56l-15 4q31 102 104 102q31 0 59 -18q28 -16 51 -16q22 0 36 11.5t29 45.5zM394 287q0 -117 -76 -215q-30 -39 -72.5 -61t-87.5 -22q-59 0 -95 44.5t-36 118.5q0 57 22.5 118.5t62.5 106.5
q66 73 151 73q60 0 95.5 -44.5t35.5 -118.5zM320 323q0 50 -17.5 81t-49.5 31q-25 0 -51 -22t-47 -65q-54 -114 -54 -232q0 -50 17.5 -81t48.5 -31q59 0 100 87q53 110 53 232z" />
    <glyph glyph-name="odieresis" unicode="&#xf6;" horiz-adv-x="421" 
d="M236 590q0 -18 -13 -31.5t-31 -13.5q-19 0 -32 13.5t-13 31.5t13 31t32 13q18 0 31 -13t13 -31zM399 590q0 -18 -13 -31.5t-31 -13.5t-31.5 13.5t-13.5 31.5t13.5 31t31.5 13t31 -13t13 -31zM394 287q0 -117 -76 -215q-30 -39 -72.5 -61t-87.5 -22q-59 0 -95 44.5
t-36 118.5q0 57 22.5 118.5t62.5 106.5q66 73 151 73q60 0 95.5 -44.5t35.5 -118.5zM320 323q0 50 -17.5 81t-49.5 31q-25 0 -51 -22t-47 -65q-54 -114 -54 -232q0 -50 17.5 -81t48.5 -31q59 0 100 87q53 110 53 232z" />
    <glyph glyph-name="divide" unicode="&#xf7;" 
d="M409 421q0 -24 -14.5 -40.5t-37.5 -16.5q-24 0 -39 15.5t-15 39.5q0 23 15 38t39 15q23 0 37.5 -14t14.5 -37zM581 241h-450v40h450v-40zM409 100q0 -23 -14.5 -37t-37.5 -14q-24 0 -39 15t-15 38q0 24 15 39.5t39 15.5q23 0 37.5 -16.5t14.5 -40.5z" />
    <glyph glyph-name="oslash" unicode="&#xf8;" horiz-adv-x="421" 
d="M310 391q-18 44 -57 44q-25 0 -52 -22t-48 -65q-54 -114 -54 -232q0 -24 5 -49zM322 323q0 25 -5 48l-206 -324q18 -43 56 -43q61 0 102 87q53 110 53 232zM394 287q0 -117 -76 -215q-30 -39 -72.5 -61t-87.5 -22q-39 0 -70 22l-42 -66h-21l50 77q-48 48 -48 130
q0 114 77 215q64 83 159 83q40 0 70 -22l38 58h20l-45 -69q48 -46 48 -130z" />
    <glyph glyph-name="ugrave" unicode="&#xf9;" horiz-adv-x="530" 
d="M374 507l-14 -5l-113 147q-15 20 -15 36q0 15 10.5 23.5t23.5 8.5q29 0 46 -44zM525 143q-33 -78 -69.5 -116t-82.5 -38q-57 0 -57 69q0 41 22 127q-49 -106 -89 -151t-97 -45q-44 0 -66 23t-22 52q0 35 19 94l65 199q10 30 10 47q0 21 -18 21q-57 0 -114 -119l-13 6
q65 138 148 138q69 0 69 -51q0 -29 -26 -109l-51 -154q-16 -49 -16 -78q0 -33 33 -33q41 0 70 29q16 15 30 33t26 42l21 41.5t19.5 48l15.5 44.5t15 47t13 41l29 92l74 -7l-56 -179q-47 -150 -47 -207q0 -32 16 -32q31 0 59 32t57 99z" />
    <glyph glyph-name="uacute" unicode="&#xfa;" horiz-adv-x="530" 
d="M437 685q0 -16 -18 -36l-137 -147l-13 5l89 166q23 44 51 44t28 -32zM525 143q-33 -78 -69.5 -116t-82.5 -38q-57 0 -57 69q0 41 22 127q-49 -106 -89 -151t-97 -45q-44 0 -66 23t-22 52q0 35 19 94l65 199q10 30 10 47q0 21 -18 21q-57 0 -114 -119l-13 6
q65 138 148 138q69 0 69 -51q0 -29 -26 -109l-51 -154q-16 -49 -16 -78q0 -33 33 -33q41 0 70 29q16 15 30 33t26 42l21 41.5t19.5 48l15.5 44.5t15 47t13 41l29 92l74 -7l-56 -179q-47 -150 -47 -207q0 -32 16 -32q31 0 59 32t57 99z" />
    <glyph glyph-name="ucircumflex" unicode="&#xfb;" horiz-adv-x="530" 
d="M447 506l-14 -7l-77 147l-147 -147l-12 7l120 168q25 35 51 35q25 0 34 -35zM525 143q-33 -78 -69.5 -116t-82.5 -38q-57 0 -57 69q0 41 22 127q-49 -106 -89 -151t-97 -45q-44 0 -66 23t-22 52q0 35 19 94l65 199q10 30 10 47q0 21 -18 21q-57 0 -114 -119l-13 6
q65 138 148 138q69 0 69 -51q0 -29 -26 -109l-51 -154q-16 -49 -16 -78q0 -33 33 -33q41 0 70 29q16 15 30 33t26 42l21 41.5t19.5 48l15.5 44.5t15 47t13 41l29 92l74 -7l-56 -179q-47 -150 -47 -207q0 -32 16 -32q31 0 59 32t57 99z" />
    <glyph glyph-name="udieresis" unicode="&#xfc;" horiz-adv-x="530" 
d="M292 590q0 -18 -13 -31.5t-31 -13.5q-19 0 -32 13.5t-13 31.5t13 31t32 13q18 0 31 -13t13 -31zM455 590q0 -18 -13 -31.5t-31 -13.5t-31.5 13.5t-13.5 31.5t13.5 31t31.5 13t31 -13t13 -31zM525 143q-33 -78 -69.5 -116t-82.5 -38q-57 0 -57 69q0 41 22 127
q-49 -106 -89 -151t-97 -45q-44 0 -66 23t-22 52q0 35 19 94l65 199q10 30 10 47q0 21 -18 21q-57 0 -114 -119l-13 6q65 138 148 138q69 0 69 -51q0 -29 -26 -109l-51 -154q-16 -49 -16 -78q0 -33 33 -33q41 0 70 29q16 15 30 33t26 42l21 41.5t19.5 48l15.5 44.5t15 47
t13 41l29 92l74 -7l-56 -179q-47 -150 -47 -207q0 -32 16 -32q31 0 59 32t57 99z" />
    <glyph glyph-name="yacute" unicode="&#xfd;" horiz-adv-x="404" 
d="M379 685q0 -16 -18 -36l-137 -147l-13 5l89 166q23 44 51 44t28 -32zM386 402q0 -109 -73.5 -258.5t-166.5 -257.5q-120 -139 -203 -139q-35 0 -35 31q0 42 50 45l33 2q34 2 44.5 3t28 8.5t34.5 23.5q29 28 44 59t20 91q1 17 1 59q0 106 -26 235q-18 89 -46 89
q-22 0 -38 -35t-22 -104l-15 2q7 96 36 145t74 49t74.5 -89t29.5 -227q0 -54 -3 -105q50 75 81 156t31 132q0 28 -16 59q-12 22 -12 41q0 15 11.5 24t27.5 9q36 0 36 -48z" />
    <glyph glyph-name="thorn" unicode="&#xfe;" horiz-adv-x="441" 
d="M345 342q0 30 -14 53t-37 23q-80 0 -142 -149q-17 -41 -30 -98t-13 -97q0 -35 17 -51.5t44 -16.5q70 0 124 126q51 120 51 210zM423 323q0 -99 -64 -211q-36 -62 -86 -92t-96 -30q-33 0 -53.5 19t-27.5 46l-42 -176q-11 -49 -11 -69q0 -31 22 -42t61 -11l-2 -10h-269
l2 10q3 0 16 1t15.5 1.5l13 2.5t13.5 4t11.5 6.5t12 10t10 14t10.5 19.5l9 25t10 32l190 731q9 36 9 48q0 16 -9.5 23.5t-20 9t-34.5 2.5l2 12l152 18h4q-58 -224 -105 -386q70 119 152 119q58 0 81.5 -37t23.5 -90z" />
    <glyph glyph-name="ydieresis" unicode="&#xff;" horiz-adv-x="404" 
d="M209 590q0 -18 -13 -31.5t-31 -13.5q-19 0 -32 13.5t-13 31.5t13 31t32 13q18 0 31 -13t13 -31zM372 590q0 -18 -13 -31.5t-31 -13.5t-31.5 13.5t-13.5 31.5t13.5 31t31.5 13t31 -13t13 -31zM386 402q0 -109 -73.5 -258.5t-166.5 -257.5q-120 -139 -203 -139
q-35 0 -35 31q0 42 50 45l33 2q34 2 44.5 3t28 8.5t34.5 23.5q29 28 44 59t20 91q1 17 1 59q0 106 -26 235q-18 89 -46 89q-22 0 -38 -35t-22 -104l-15 2q7 96 36 145t74 49t74.5 -89t29.5 -227q0 -54 -3 -105q50 75 81 156t31 132q0 28 -16 59q-12 22 -12 41q0 15 11.5 24
t27.5 9q36 0 36 -48z" />
    <glyph glyph-name="dotlessi" unicode="&#x131;" horiz-adv-x="289" 
d="M272 129q-56 -140 -141 -140q-72 0 -72 52q0 28 25 108l67 208q10 30 10 47q0 22 -18 22q-55 0 -112 -118l-13 6q63 136 146 136q68 0 68 -52q0 -33 -25 -108l-67 -208q-10 -33 -10 -47q0 -21 22 -21q55 0 107 121z" />
    <glyph glyph-name="Lslash" unicode="&#x141;" horiz-adv-x="614" 
d="M637 220l-65 -220h-603l3 10q53 9 74.5 17.5t39 35t34.5 86.5q13 43 47 174l-70 -32l-9 18l86 39q48 179 55 214q9 45 9 56q0 20 -5.5 32.5t-20 20t-26 10.5t-37.5 7l3 10h314l-3 -10q-41 -8 -56.5 -12.5t-33 -20t-25.5 -37.5t-22 -69l-43 -156l160 74l9 -19l-176 -81
l-12.5 -49t-13.5 -52q-32 -123 -32 -165q0 -86 126 -86q181 0 281 205h12z" />
    <glyph glyph-name="lslash" unicode="&#x142;" horiz-adv-x="259" 
d="M276 717l-92 -337l78 37l9 -18l-94 -43l-74 -274q-7 -24 -7 -46t27 -22q55 0 113 121l13 -6q-65 -140 -147 -140q-33 0 -53.5 13t-20.5 40q0 24 22 107l47 177l-73 -35l-9 18l89 41l77 288q3 15 3 23q0 16 -12.5 20t-54.5 4l4 13l151 19h4z" />
    <glyph glyph-name="OE" unicode="&#x152;" horiz-adv-x="1029" 
d="M596 606q0 81 -112 81q-100 0 -189 -83q-54 -50 -86 -129.5t-32 -173.5q0 -124 60.5 -205.5t178.5 -81.5q12 0 26 2q25 76 89 312q47 174 60 235q5 28 5 43zM1027 533h-12q-23 90 -67 121.5t-148 31.5q-44 0 -74 -3q-17 -57 -85 -308q92 0 145 28t69 97h12l-64 -276h-11
q2 24 2 33q0 67 -34 86t-122 20l-26 -97q-34 -127 -34 -171q0 -80 131 -80q185 0 280 195h12l-62 -210h-386q-19 0 -61.5 -1t-56.5 -1q-153 0 -243 62q-125 86 -125 242q0 99 34 177t91.5 126t128 72.5t147.5 24.5q33 0 110 -2t98 -2h341z" />
    <glyph glyph-name="oe" unicode="&#x153;" horiz-adv-x="620" 
d="M614 382q0 -63 -56 -101t-179 -62q-15 -63 -15 -119q0 -36 21 -59t58 -23q38 0 72 30t53 88l14 -8q-48 -139 -176 -139q-79 0 -107 67q-64 -67 -141 -67q-59 0 -95 44.5t-36 118.5q0 114 77 215q64 83 159 83q87 0 117 -96q84 96 157 96q37 0 57 -20.5t20 -47.5zM317 323
q0 51 -16.5 81.5t-47.5 30.5q-25 0 -51 -22t-47 -65q-54 -114 -54 -232q0 -50 17.5 -81t48.5 -31q58 0 99 86q51 105 51 233zM562 394q0 18 -10.5 29t-27.5 11q-35 0 -76.5 -57t-64.5 -141q86 19 132.5 65t46.5 93z" />
    <glyph glyph-name="Scaron" unicode="&#x160;" horiz-adv-x="523" 
d="M532 939l-120 -168q-25 -35 -51 -35q-25 0 -34 35l-45 168l14 7l77 -147l147 147zM543 701l-32 -201h-11q-15 109 -48 154t-97 45q-57 0 -92 -37.5t-35 -86.5q0 -76 75 -137q44 -36 67 -56.5t52 -52t41.5 -62t12.5 -63.5q0 -100 -61.5 -160.5t-162.5 -60.5
q-52 0 -92.5 13t-61.5 25.5t-25 12.5q-21 0 -36 -15h-10l32 211h11q15 -110 62.5 -171t120.5 -61q59 0 98.5 44.5t39.5 105.5q0 74 -77 139l-58 49t-44 41.5t-38.5 46.5t-20 46t-9.5 56q0 78 59 134t151 56q44 0 92 -15l49 -15q23 0 38 15h10z" />
    <glyph glyph-name="scaron" unicode="&#x161;" horiz-adv-x="310" 
d="M386 703l-120 -168q-25 -35 -51 -35q-25 0 -34 35l-45 168l14 7l77 -147l147 147zM310 394q0 -36 -38 -36q-20 0 -33 28q-1 1 -4.5 11.5t-6 16.5t-8.5 12t-13 6q-29 0 -49.5 -21.5t-20.5 -51.5q0 -27 10.5 -46.5t39.5 -55.5q27 -33 38 -48t21 -38t10 -46q0 -57 -45 -96.5
t-111 -39.5q-50 0 -83.5 24.5t-33.5 53.5q0 35 37 35q25 0 33 -29l3 -11q4 -11 6 -15.5t7 -14t10.5 -13.5t14 -8t19.5 -4q30 0 53.5 24t23.5 56q0 7 -0.5 13.5t-3 13.5t-3.5 11t-5 11.5t-5.5 10t-8 11t-7.5 10t-9.5 11.5t-9.5 12q-26 32 -36.5 46t-20 37.5t-9.5 49.5
q0 50 44 88t107 38q36 0 61.5 -15.5t25.5 -40.5z" />
    <glyph glyph-name="Ydieresis" unicode="&#x178;" horiz-adv-x="585" 
d="M404 826q0 -18 -13 -31.5t-31 -13.5q-19 0 -32 13.5t-13 31.5t13 31t32 13q18 0 31 -13t13 -31zM567 826q0 -18 -13 -31.5t-31 -13.5t-31.5 13.5t-13.5 31.5t13.5 31t31.5 13t31 -13t13 -31zM734 698l-3 -10q-47 -3 -91 -45t-121 -139q-10 -14 -16 -21l-150 -188
l-40 -160q-7 -28 -7 -55q0 -11 2.5 -20t9.5 -16t11.5 -11t17.5 -8l18 -5.5t21.5 -5t20.5 -4.5l-3 -10h-334l3 10q42 9 57.5 13.5t35 19t29 38t22.5 68.5l40 157l-84 286q-15 50 -35.5 72t-66.5 24l3 10h295l-3 -10q-49 -2 -71.5 -18t-22.5 -49q0 -25 19 -95l58 -205l159 200
q67 85 67 123q0 19 -19 31.5t-50 12.5l4 10h224z" />
    <glyph glyph-name="Zcaron" unicode="&#x17d;" horiz-adv-x="596" 
d="M547 939l-120 -168q-25 -35 -51 -35q-25 0 -34 35l-45 168l14 7l77 -147l147 147zM647 698l-1 -6l-527 -677h171q182 0 282 205h12l-65 -220h-520l-5 5l529 679h-125q-50 0 -84 -5.5t-69.5 -21.5t-64.5 -49t-54 -85h-12l51 175h482z" />
    <glyph glyph-name="zcaron" unicode="&#x17e;" horiz-adv-x="358" 
d="M390 703l-120 -168q-25 -35 -51 -35q-25 0 -34 35l-45 168l14 7l77 -147l147 147zM400 -43q-14 -38 -44.5 -65.5t-67.5 -27.5q-25 0 -44.5 8.5t-34.5 27.5t-24 33t-22 42t-19 39q-26 48 -61 48q-11 0 -19 -1t-14 -5t-9.5 -5.5t-7 -8t-4 -8t-3.5 -9.5l-2 -8
q-8 -26 -26 -26q-15 0 -15 17q0 6 2.5 12.5t8.5 14.5t11.5 14l17 18.5l18.5 20.5l128 137q108 118 137 155q-40 -21 -63 -21q-27 0 -64.5 9.5t-55.5 9.5q-31 0 -43 -14.5t-22 -52.5h-14q9 57 36.5 96.5t69.5 39.5q39 0 84.5 -24t65.5 -24q8 0 13 1t8 2t5.5 4.5t3 5t2 7
t2.5 7.5q7 26 28 26q15 0 15 -16q0 -10 -7.5 -21.5t-27.5 -32.5t-30 -33q-9 -11 -27.5 -31l-45 -47.5l-41.5 -43.5q-100 -107 -135 -153q22 8 40 8q52 0 85 -33q22 -22 50.5 -59.5t48.5 -56t42 -18.5t34.5 10.5t25.5 33.5z" />
    <glyph glyph-name="florin" unicode="&#x192;" horiz-adv-x="395" 
d="M519 633q0 -17 -11 -28.5t-28 -11.5q-33 0 -44 39q-11 40 -22 45q-4 2 -8 2q-70 0 -127 -289l103 -4l-2 -13l-106 -3q-66 -346 -109 -417q-58 -98 -173 -98q-43 0 -67 19t-24 49q0 18 12 30.5t30 12.5q31 0 36 -39q7 -57 35 -57q52 0 85 96t98 404l-103 3l2 13l107 4
q29 163 58 211q27 43 71.5 68t91.5 25q46 0 70.5 -16.5t24.5 -44.5z" />
    <glyph glyph-name="uni02BB" unicode="&#x2bb;" horiz-adv-x="226" 
d="M279 700q-43 -21 -71.5 -57t-34.5 -73q10 5 24 5q18 0 30 -12t12 -31q0 -24 -17 -40t-40 -16q-24 0 -39.5 16.5t-15.5 44.5q0 51 40.5 100t105.5 73z" />
    <glyph glyph-name="circumflex" unicode="&#x2c6;" horiz-adv-x="500" 
d="M441 506l-14 -7l-77 147l-147 -147l-12 7l120 168q25 35 51 35q25 0 34 -35z" />
    <glyph glyph-name="caron" unicode="&#x2c7;" horiz-adv-x="500" 
d="M460 703l-120 -168q-25 -35 -51 -35q-25 0 -34 35l-45 168l14 7l77 -147l147 147z" />
    <glyph glyph-name="uni02C9" unicode="&#x2c9;" horiz-adv-x="500" 
d="M477 621l-12 -45h-281l12 45h281z" />
    <glyph glyph-name="breve" unicode="&#x2d8;" horiz-adv-x="500" 
d="M442 684q0 -2 -1 -5.5t-1 -5.5q-7 -56 -43 -97.5t-92 -41.5q-45 0 -67.5 28t-22.5 74q0 28 5 48h14q-1 -6 -1 -18q0 -39 21.5 -60t58.5 -21q43 0 73.5 25.5t41.5 73.5h14z" />
    <glyph glyph-name="dotaccent" unicode="&#x2d9;" horiz-adv-x="500" 
d="M383 590q0 -20 -14 -34.5t-33 -14.5q-20 0 -34.5 14.5t-14.5 34.5t14.5 34t34.5 14q19 0 33 -14t14 -34z" />
    <glyph glyph-name="ring" unicode="&#x2da;" horiz-adv-x="500" 
d="M409 621q0 -53 -39 -88t-87 -35q-42 0 -66.5 24t-24.5 62q0 46 37.5 83t89.5 37q43 0 66.5 -23.5t23.5 -59.5zM359 632q0 59 -42 59q-32 0 -53.5 -38t-21.5 -81q0 -61 43 -61q33 0 53.5 40t20.5 81z" />
    <glyph glyph-name="ogonek" unicode="&#x2db;" horiz-adv-x="500" 
d="M359 -147q-11 -27 -39 -49.5t-67 -22.5q-32 0 -53 19.5t-21 50.5q0 24 10.5 46t34.5 44.5t36.5 32.5t41.5 31h17v-2q-83 -69 -83 -133q0 -55 48 -55q39 0 66 42z" />
    <glyph glyph-name="tilde" unicode="&#x2dc;" horiz-adv-x="500" 
d="M475 654q-28 -104 -103 -104q-24 0 -53 17q-32 18 -53 18q-48 0 -67 -56l-15 4q31 102 104 102q31 0 59 -18q28 -16 51 -16q22 0 36 11.5t29 45.5z" />
    <glyph glyph-name="hungarumlaut" unicode="&#x2dd;" horiz-adv-x="500" 
d="M373 686q0 -17 -16 -36l-122 -148l-13 5l77 166q20 44 46 44q28 0 28 -31zM506 686q0 -17 -16 -36l-122 -148l-13 5l77 166q20 44 46 44q28 0 28 -31z" />
    <glyph glyph-name="Delta" unicode="&#x394;" horiz-adv-x="686" 
d="M593 8l-3 -8h-621l4 9l541 705h21q22 -315 58 -706zM34 58h467q-18 307 -47 545z" />
    <glyph glyph-name="Omega" unicode="&#x3a9;" horiz-adv-x="765" 
d="M496 79h135q54 0 90 86l14 -1l-56 -164h-258l1 28q99 84 149.5 193.5t55.5 266.5q4 97 -35 155.5t-115 58.5q-63 0 -118 -43t-91 -110t-57.5 -143t-23.5 -147q-3 -76 18.5 -136.5t61.5 -94.5l-11 -28h-236l-6 164l15 1q4 -47 17.5 -66.5t43.5 -19.5h120q-45 28 -79.5 91
t-34.5 143q0 182 128 301q110 102 254 102q120 0 188 -79t63 -213q-4 -105 -68.5 -193.5t-164.5 -151.5z" />
    <glyph glyph-name="mu" unicode="&#x3bc;" horiz-adv-x="556" 
d="M516 42q-10 -22 -37 -39t-70 -17q-32 0 -48.5 22.5t-16.5 54.5q0 33 17 94h-2q-18 -33 -31 -54t-36.5 -51.5t-49 -46.5t-51.5 -16q-82 0 -91 83q-29 -68 -43 -190q3 -25 14.5 -50t11.5 -40q0 -14 -12 -29.5t-30 -15.5q-49 0 -49 52q0 24 35.5 141t65.5 200q19 54 71 249
q17 60 54 60q33 0 33 -29q0 -8 -11 -49q-1 -3 -49 -157q-35 -110 -35 -150q0 -24 13 -35.5t33 -11.5q53 0 108.5 85t79.5 176l38 143q8 28 43 28q13 0 22.5 -10.5t9.5 -24.5q0 -5 -2.5 -15.5t-6.5 -22t-5 -15.5q-44 -147 -64 -244q-8 -42 -8 -61q0 -23 9 -32t29 -9
q30 0 54 32z" />
    <glyph glyph-name="pi" unicode="&#x3c0;" horiz-adv-x="559" 
d="M371 376h-117q-66 -204 -138 -313q-24 -37 -46 -55.5t-55 -18.5q-15 0 -22 10.5t-3 26.5q9 37 62 48q29 6 60 47q76 107 120 255q-90 0 -132 -47q-5 -5 -9.5 -11.5t-9.5 -15t-8 -12.5l-9 3q66 143 209 143h210q30 0 45 1.5t36.5 11.5t37.5 31l8 -3l-59 -94
q-33 -5 -100 -7l-76 -268q-16 -59 -9 -76q7 -19 36 -19q31 0 54 33l7 -4q-26 -56 -113 -56q-33 0 -50 12.5t-17.5 36t3.5 46t13 52.5l3 9z" />
    <glyph glyph-name="endash" unicode="&#x2013;" horiz-adv-x="465" 
d="M466 250l-10 -40h-465l10 40h465z" />
    <glyph glyph-name="emdash" unicode="&#x2014;" horiz-adv-x="880" 
d="M781 250l-10 -40h-680l10 40h680z" />
    <glyph glyph-name="quoteleft" unicode="&#x2018;" horiz-adv-x="226" 
d="M279 700q-43 -21 -71.5 -57t-34.5 -73q10 5 24 5q18 0 30 -12t12 -31q0 -24 -17 -40t-40 -16q-24 0 -39.5 16.5t-15.5 44.5q0 51 40.5 100t105.5 73z" />
    <glyph glyph-name="quoteright" unicode="&#x2019;" horiz-adv-x="226" 
d="M253 645q0 -51 -40.5 -100t-105.5 -73l-6 10q43 21 71.5 57t34.5 73q-10 -5 -24 -5q-18 0 -30 12t-12 31q0 24 17 40t40 16q24 0 39.5 -16.5t15.5 -44.5z" />
    <glyph glyph-name="quotesinglbase" unicode="&#x201a;" horiz-adv-x="226" 
d="M147 32q0 -51 -40.5 -100t-105.5 -73l-6 10q43 21 71.5 57t34.5 73q-10 -5 -24 -5q-18 0 -30 12t-12 31q0 24 17 40t40 16q24 0 39.5 -16.5t15.5 -44.5z" />
    <glyph glyph-name="quotedblleft" unicode="&#x201c;" horiz-adv-x="395" 
d="M279 700q-43 -21 -71.5 -57t-34.5 -73q10 5 24 5q18 0 30 -12t12 -31q0 -24 -17 -40t-40 -16q-24 0 -39.5 16.5t-15.5 44.5q0 51 40.5 100t105.5 73zM448 700q-43 -21 -71.5 -57t-34.5 -73q10 5 24 5q18 0 30 -12t12 -31q0 -24 -17 -40t-40 -16q-24 0 -39.5 16.5
t-15.5 44.5q0 51 40.5 100t105.5 73z" />
    <glyph glyph-name="quotedblright" unicode="&#x201d;" horiz-adv-x="395" 
d="M253 645q0 -51 -40.5 -100t-105.5 -73l-6 10q43 21 71.5 57t34.5 73q-10 -5 -24 -5q-18 0 -30 12t-12 31q0 24 17 40t40 16q24 0 39.5 -16.5t15.5 -44.5zM422 645q0 -51 -40.5 -100t-105.5 -73l-6 10q43 21 71.5 57t34.5 73q-10 -5 -24 -5q-18 0 -30 12t-12 31
q0 24 17 40t40 16q24 0 39.5 -16.5t15.5 -44.5z" />
    <glyph glyph-name="quotedblbase" unicode="&#x201e;" horiz-adv-x="395" 
d="M147 32q0 -51 -40.5 -100t-105.5 -73l-6 10q43 21 71.5 57t34.5 73q-10 -5 -24 -5q-18 0 -30 12t-12 31q0 24 17 40t40 16q24 0 39.5 -16.5t15.5 -44.5zM316 32q0 -51 -40.5 -100t-105.5 -73l-6 10q43 21 71.5 57t34.5 73q-10 -5 -24 -5q-18 0 -30 12t-12 31q0 24 17 40
t40 16q24 0 39.5 -16.5t15.5 -44.5z" />
    <glyph glyph-name="dagger" unicode="&#x2020;" horiz-adv-x="394" 
d="M422 453q0 -14 -11.5 -23t-27.5 -9q-24 0 -49 31t-39 31q-17 0 -26 -31q-19 -62 -55.5 -193.5t-50.5 -177.5l-20 -12l-12 21l96 374q2 12 2 16q0 28 -22 28q-10 0 -35 -13t-39 -13q-19 0 -32 11t-13 25q0 31 28 31q14 0 22 -11.5t6 -26.5q7 -2 28.5 3t30.5 5q28 0 43 -29
q3 13 7 56t10 65q8 28 22 45q-11 15 -11 30t10.5 25t23.5 10q17 0 26 -10.5t9 -25.5q0 -24 -31 -37q2 -5 2 -18q0 -18 -4 -30q-6 -23 -23.5 -62.5t-21.5 -52.5q16 10 27 10q18 0 41.5 -17t29.5 -19q9 22 33 22q10 0 18 -8t8 -20z" />
    <glyph glyph-name="daggerdbl" unicode="&#x2021;" horiz-adv-x="394" 
d="M431 482q0 -13 -11 -22.5t-25 -9.5q-22 0 -37 15.5t-26.5 31t-25.5 15.5q-17 0 -29 -30q-29 -77 -33 -93q-18 -66 -18 -110q0 -26 22 -26q9 0 34.5 12.5t39.5 12.5q17 0 30 -11.5t13 -26.5q0 -12 -7 -21t-20 -9t-21 10.5t-7 28.5q-7 2 -28 -3t-30 -5q-29 0 -45 30
q-3 -14 -2.5 -43.5t-5.5 -48.5q-8 -28 -22 -45q11 -13 11 -31q0 -16 -10.5 -25t-24.5 -9q-15 0 -24.5 10t-9.5 25q0 26 31 38q-3 6 -3 19q0 11 4 29q6 22 20 46.5t18 39.5q-15 -11 -28 -11q-18 0 -41.5 17.5t-29.5 19.5q-8 -23 -32 -23q-12 0 -19 8.5t-7 19.5q0 13 11 22.5
t25 9.5q22 0 37 -15.5t26.5 -31t25.5 -15.5q18 0 30 30q28 73 32 93q18 76 18 110q0 26 -22 26q-9 0 -34.5 -12.5t-39.5 -12.5q-17 0 -30 11.5t-13 26.5q0 12 7 21t20 9t21 -10.5t7 -28.5q7 -2 28 3t30 5q29 0 45 -30q3 14 2.5 43.5t5.5 48.5q8 28 22 45q-11 13 -11 31
q0 16 10.5 25t24.5 9q15 0 24.5 -10t9.5 -25q0 -26 -31 -38q3 -6 3 -19q0 -11 -4 -29q-6 -22 -20 -46.5t-18 -39.5q15 11 28 11q18 0 41.5 -17.5t29.5 -19.5q8 23 32 23q11 0 18.5 -8.5t7.5 -19.5z" />
    <glyph glyph-name="bullet" unicode="&#x2022;" horiz-adv-x="556" 
d="M463 262q0 -72 -51.5 -123t-123.5 -51t-123 51t-51 123t51 123t123 51q73 0 124 -51t51 -123z" />
    <glyph glyph-name="ellipsis" unicode="&#x2026;" horiz-adv-x="970" 
d="M196 48q0 -24 -16.5 -40t-39.5 -16q-22 0 -39 17t-17 39q0 24 16.5 40.5t39.5 16.5t39.5 -16.5t16.5 -40.5zM519 48q0 -24 -16.5 -40t-39.5 -16t-39.5 17t-16.5 39q0 24 16.5 40.5t39.5 16.5t39.5 -16.5t16.5 -40.5zM843 48q0 -24 -16.5 -40t-39.5 -16t-39.5 17t-16.5 39
q0 24 16.5 40.5t39.5 16.5t39.5 -16.5t16.5 -40.5z" />
    <glyph glyph-name="perthousand" unicode="&#x2030;" horiz-adv-x="960" 
d="M360 574q0 -68 -50 -128q-46 -54 -119 -54q-45 0 -75 30.5t-30 78.5q0 68 51 129q47 54 118 54q46 0 75.5 -30.5t29.5 -79.5zM639 675l-547 -675h-36l546 675h37zM299 587q0 83 -50 83q-40 0 -68 -52q-34 -65 -34 -130q0 -82 49 -82q42 0 71 53q32 60 32 128zM605 169
q0 -68 -50 -128q-46 -54 -119 -54q-45 0 -75 30.5t-30 78.5q0 68 51 129q46 54 118 54q46 0 75.5 -30.5t29.5 -79.5zM919 169q0 -68 -50 -128q-46 -54 -119 -54q-45 0 -75 30.5t-30 78.5q0 68 51 129q46 54 118 54q46 0 75.5 -30.5t29.5 -79.5zM544 182q0 83 -50 83
q-40 0 -68 -52q-34 -65 -34 -130q0 -82 49 -82q42 0 71 53q32 60 32 128zM858 182q0 83 -50 83q-40 0 -68 -52q-34 -65 -34 -130q0 -82 49 -82q42 0 71 53q32 58 32 128z" />
    <glyph glyph-name="minute" unicode="&#x2032;" horiz-adv-x="222" 
d="M139 454h-12q6 69 2 128.5t-2 72.5q8 51 56 51q21 0 33 -14t8 -36q-3 -15 -34.5 -78t-50.5 -124z" />
    <glyph glyph-name="second" unicode="&#x2033;" horiz-adv-x="372" 
d="M290 454h-12q6 69 2 128.5t-2 72.5q8 51 56 51q21 0 33 -14t8 -36q-3 -15 -34.5 -78t-50.5 -124zM139 454h-12q6 69 2 128.5t-2 72.5q8 51 56 51q21 0 33 -14t8 -36q-3 -15 -34.5 -78t-50.5 -124z" />
    <glyph glyph-name="guilsinglleft" unicode="&#x2039;" horiz-adv-x="303" 
d="M280 401l-134 -171l52 -162l-8 -5l-118 172l2 5l200 166z" />
    <glyph glyph-name="guilsinglright" unicode="&#x203a;" horiz-adv-x="303" 
d="M236 234l-2 -5l-200 -166l-6 5l134 171l-52 162l8 5z" />
    <glyph glyph-name="fraction" unicode="&#x2044;" horiz-adv-x="110" 
d="M402 692l-477 -692h-34l476 692h35z" />
    <glyph glyph-name="Euro" unicode="&#x20ac;" horiz-adv-x="565" 
d="M553 473q0 -23 -11 -37.5t-31 -14.5q-40 0 -45 69q-5 67 -70 67q-61 0 -111.5 -67t-76.5 -165l232 -3l-3 -13l-234 -3q-3 -13 -8 -50l198 -3l-3 -13l-197 -3q-1 -11 -1 -33q0 -85 39.5 -133t118.5 -48q117 0 155 118l11 -5q-12 -54 -61.5 -100.5t-133.5 -46.5
q-106 0 -162 57.5t-56 152.5q0 13 2 39l-94 2l3 13l94 2q0 1 3.5 21.5t6.5 30.5l-69 2l3 13l71 2q33 113 107 180.5t174 67.5q82 0 115.5 -32t33.5 -67z" />
    <glyph glyph-name="uni2117" unicode="&#x2117;" horiz-adv-x="991" 
d="M506 -153q-158 0 -270.5 112.5t-112.5 270.5t112.5 270.5t270.5 112.5t270 -112.5t112 -270.5t-112 -270.5t-270 -112.5zM506 -123q146 0 248.5 103t102.5 250q0 146 -102.5 249t-248.5 103q-147 0 -249.5 -103t-102.5 -249q0 -147 102.5 -250t249.5 -103zM555 9h-233v10
q43 9 59.5 24.5t18.5 66.5q2 72 2 127v97q0 61 -15.5 82.5t-56.5 23.5v10h201q80 0 113 -17q55 -29 55 -95q0 -48 -34.5 -83.5t-102.5 -35.5h-89v-57q0 -41 2 -67q2 -21 8.5 -35t12 -21t18.5 -12t18.5 -5.5t22.5 -2.5v-10zM476 435q-3 -78 -3 -201q66 0 96 15q50 23 50 84
q0 57 -29 82q-6 5 -12 8.5t-13.5 6l-12 4t-14 2t-12 0.5h-12.5h-11q-5 0 -14 -0.5t-13 -0.5z" />
    <glyph glyph-name="trademark" unicode="&#x2122;" horiz-adv-x="647" 
d="M362 631h-7q-15 58 -94 58h-3q0 -11 -0.5 -56t-0.5 -55q0 -52 1 -66q1 -19 8.5 -29.5t15 -13t23.5 -5.5v-7h-136v7q25 4 34 12.5t10 37.5q1 20 1 65q0 10 -0.5 54.5t-0.5 55.5h-3q-79 0 -94 -58h-6l5 67h241zM709 457h-126v7q28 4 35 15q6 9 6 26q1 14 1 72v27.5v35.5v28
q-6 -15 -37.5 -83l-57.5 -128h-8l-90 205v-85q0 -14 0.5 -33.5t0.5 -25.5q0 -28 9 -40.5t30 -13.5v-7h-94v7q23 3 31 15t9 45q0 8 0.5 27t0.5 27q0 11 -0.5 29.5t-0.5 27.5q-1 34 -6.5 43t-27.5 14v6h82q2 -8 13 -33l46 -109q2 -4 8 -17.5t8 -18.5q65 138 82 178h86v-7
q-24 -3 -31 -13t-8 -42q-1 -23 -1 -58v-75q1 -23 9.5 -30t30.5 -9v-7z" />
    <glyph glyph-name="uni2126" unicode="&#x2126;" horiz-adv-x="765" 
d="M496 79h135q54 0 90 86l14 -1l-56 -164h-258l1 28q99 84 149.5 193.5t55.5 266.5q4 97 -35 155.5t-115 58.5q-63 0 -118 -43t-91 -110t-57.5 -143t-23.5 -147q-3 -76 18.5 -136.5t61.5 -94.5l-11 -28h-236l-6 164l15 1q4 -47 17.5 -66.5t43.5 -19.5h120q-45 28 -79.5 91
t-34.5 143q0 182 128 301q110 102 254 102q120 0 188 -79t63 -213q-4 -105 -68.5 -193.5t-164.5 -151.5z" />
    <glyph glyph-name="estimated" unicode="&#x212e;" 
d="M367 -12q-138 0 -224 96t-86 235q0 141 85.5 236t227.5 95t226.5 -95.5t86.5 -236.5h-490v-220q71 -71 174 -71q84 0 137.5 37t99.5 108l37 -23q-50 -78 -114 -119.5t-160 -41.5zM193 358h351v182q-76 71 -175 71q-105 0 -176 -71v-182z" />
    <glyph glyph-name="partialdiff" unicode="&#x2202;" horiz-adv-x="425" 
d="M129 722q122 -61 194 -162.5t72 -242.5q0 -146 -77 -245q-30 -39 -72.5 -61t-87.5 -22q-59 0 -95 44.5t-36 118.5q0 114 77 215q64 83 159 83q29 0 54 -17q-19 81 -71.5 153t-125.5 121zM322 323q0 50 -18.5 81t-50.5 31q-25 0 -51 -22t-47 -65q-54 -114 -54 -232
q0 -50 17.5 -81t48.5 -31q59 0 100 87q55 114 55 232z" />
    <glyph glyph-name="uni2206" unicode="&#x2206;" horiz-adv-x="686" 
d="M593 8l-3 -8h-621l4 9l541 705h21q22 -315 58 -706zM34 58h467q-18 307 -47 545z" />
    <glyph glyph-name="product" unicode="&#x220f;" horiz-adv-x="817" 
d="M562 682h-122q-26 0 -93 -3q-30 -89 -97 -368l-65 -264q-8 -32 -7.5 -54.5t5 -34t19.5 -19t25.5 -9.5t33.5 -5l-2 -10h-295l2 10q66 7 90 27t46 101q16 53 67 256q34 133 52 214q17 72 16.5 104t-17.5 44.5t-63 17.5l2 9h695l-2 -9q-71 -7 -95.5 -36t-51.5 -128
q-21 -72 -57 -216l-33 -138t-26 -108q-9 -38 -10.5 -62t0 -38t15.5 -22t23.5 -10t37.5 -5q4 -1 7 -1l-2 -10h-305l2 10q27 2 35 3t29.5 8t31.5 18.5t23.5 34.5t22.5 57l69 265q72 300 85 367q-52 4 -91 4z" />
    <glyph glyph-name="summation" unicode="&#x2211;" horiz-adv-x="645" 
d="M575 152h13l-81 -237h-570l1 6l379 379q-113 255 -181 393l1 5h533l-34 -186h-13q3 97 -38.5 134t-146.5 37h-197q73 -178 150 -336l-359 -357q102 -2 236 -2q68 0 107.5 4t70.5 11.5t52 29t37 46.5t40 73z" />
    <glyph glyph-name="minus" unicode="&#x2212;" 
d="M581 241h-450v40h450v-40z" />
    <glyph glyph-name="uni2215" unicode="&#x2215;" horiz-adv-x="110" 
d="M402 692l-477 -692h-34l476 692h35z" />
    <glyph glyph-name="uni2219" unicode="&#x2219;" horiz-adv-x="256" 
d="M194 328q0 -23 -16.5 -39.5t-39.5 -16.5q-22 0 -39 17t-17 39q0 23 16.5 40t39.5 17t39.5 -17t16.5 -40z" />
    <glyph glyph-name="radical" unicode="&#x221a;" horiz-adv-x="650" 
d="M332 69l242 541q29 62 51 77q13 9 26 9q17 0 29 -10t11 -28q-2 -24 -38 -86l-349 -583l-8 -3l-160 241q-16 18 -28 16.5t-47 -23.5l-6 9l104 118z" />
    <glyph glyph-name="infinity" unicode="&#x221e;" 
d="M192 126q-50 0 -87 39.5t-37 97.5q0 61 36 100t92 39q30 0 59.5 -17.5t47.5 -36t49 -55.5q33 39 51 57.5t47.5 35t61.5 16.5q53 0 86.5 -38t33.5 -99t-38 -100t-88 -39q-66 0 -156 108q-43 -51 -79.5 -79.5t-78.5 -28.5zM507 163q40 0 63.5 31t23.5 69q0 49 -24 76
t-64 27q-20 0 -41 -13.5t-35.5 -28l-57.5 -59.5q49 -58 75.5 -80t59.5 -22zM196 163q19 0 35 6.5t36.5 26t28.5 28t34 38.5q-39 52 -69 78t-67 26q-40 0 -62.5 -28.5t-22.5 -74.5q0 -44 23.5 -72t63.5 -28z" />
    <glyph glyph-name="integral" unicode="&#x222b;" horiz-adv-x="490" 
d="M227 370q37 186 64 231q27 43 71.5 68t91.5 25q46 0 70.5 -16.5t24.5 -44.5q0 -17 -11 -28.5t-28 -11.5q-33 0 -44 39q-11 40 -22 45q-4 2 -8 2q-74 0 -132 -309q-66 -346 -109 -417q-58 -98 -173 -98q-43 0 -67 19t-24 49q0 18 12 30.5t30 12.5q31 0 36 -39
q7 -57 35 -57q52 0 85.5 97t97.5 403z" />
    <glyph glyph-name="approxequal" unicode="&#x2248;" 
d="M137 289q9 26 36 48.5t67 22.5q32 0 127 -10t115 -10q48 0 72 29h9q-28 -72 -95 -72q-35 0 -128.5 9.5t-113.5 9.5q-58 0 -79 -27h-10zM137 158q10 26 36.5 48.5t66.5 22.5q32 0 127 -10.5t115 -10.5q48 0 72 30h9q-29 -73 -95 -73q-35 0 -128.5 10t-113.5 10
q-56 0 -79 -27h-10z" />
    <glyph glyph-name="notequal" unicode="&#x2260;" 
d="M521 409l-64 -64h98v-37h-135l-91 -91h226v-37h-263l-89 -89l-24 25l64 64h-98v37h135l91 91h-226v37h263l89 89z" />
    <glyph glyph-name="lessequal" unicode="&#x2264;" 
d="M534 69l-384 185v32l384 185v-47l-330 -154l330 -154v-47zM555 0h-410v39h410v-39z" />
    <glyph glyph-name="greaterequal" unicode="&#x2265;" 
d="M550 254l-384 -185v47l330 154l-330 154v47l384 -185v-32zM555 0h-410v39h410v-39z" />
    <glyph glyph-name="lozenge" unicode="&#x25ca;" horiz-adv-x="571" 
d="M283 0l-228 305l229 305h23l229 -305l-228 -305h-25zM298 46l188 259l-192 259l-189 -259z" />
    <glyph glyph-name="apple" unicode="&#xf8ff;" horiz-adv-x="382" 
d="M184 698v8h10v-8h-10zM188 649v42h5v-42h-5zM194 670v17h4v-17h-4zM184 629v17h14v-17h-14zM188 640v-6h6v6h-6zM194 602v24h4v-24h-4zM177 608v15h5v-15h-5zM200 585v19h5v-19h-5zM172 588v14h5v-14h-5zM204 572v10h4v-10h-4zM167 567v15h5v-15h-5zM208 555v12h5v-12h-5
zM198 551v16h4v-16h-4zM161 557v9h6v-9h-6zM157 546v9h4v-9h-4zM214 540v11h5v-11h-5zM151 531v13h6v-13h-6zM220 531v10h4v-10h-4zM194 514v17h4v-17h-4zM143 494v37h6v-37h-6zM224 526v3h4v-3h-4zM158 520v8h20v-8h-20zM231 519v4h4v-4h-4zM204 464v53h6v-53h-6zM220 509
v8h20v-8h-20zM160 510v6h25v-6h-25zM193 478v24h5v-24h-5zM231 488v13h4v-13h-4zM172 494v6h10v-6h-10zM163 476v20h6v-20h-6zM141 478v12h5v-12h-5zM182 478v6h8v-6h-8zM224 469v13h10v-13h-10zM177 463v6h22v-6h-22zM216 457v9h6v-9h-6zM231 460v6h4v-6h-4zM137 458v6h33
v-6h-33zM231 447v8h7v-8h-7zM131 432v18h6v-18h-6zM188 429v20h6v-20h-6zM208 429v18h6v-18h-6zM243 434v10h5v-10h-5zM161 426v12h6v-12h-6zM140 423v15h7v-15h-7zM122 417v12h5v-12h-5zM241 413v14h6v-14h-6zM172 405v18h5v-18h-5zM219 390v33h5v-33h-5zM163 410v7h6v-7
h-6zM252 402v12h6v-12h-6zM113 402v12h7v-12h-7zM90 385v22h6v-22h-6zM190 396v6h21v-6h-21zM126 388v12h10v-12h-10zM102 391v8h9v-8h-9zM155 381v15h14v-15h-14zM261 381v13h8v-13h-8zM173 385v6h26v-6h-26zM238 385v5h11v-5h-11zM220 361v24h5v-24h-5zM122 374v9h25v-9
h-25zM255 374v6h11v-6h-11zM94 369v10h20v-10h-20zM243 373v4h9v-4h-9zM274 363v13h6v-13h-6zM237 355v18h6v-18h-6zM205 353v20h6v-20h-6zM185 350v23h8v-23h-8zM158 343v26h8v-26h-8zM258 360v6h11v-6h-11zM140 340v24h6v-24h-6zM94 334v30h6v-30h-6zM78 344v19h7v-19h-7z
M113 340v23h10v-23h-10zM285 352v9h11v-9h-11zM222 191v166h6v-166h-6zM237 343v6h12v-6h-12zM204 338v6h13v-6h-13zM293 302v42h3v-42h-3zM272 323v20h5v-20h-5zM254 334v4h10v-4h-10zM79 190v147h6v-147h-6zM177 327v8h22v-8h-22zM105 321v5h15v-5h-15zM141 317v9h26v-9
h-26zM99 299v24h5v-24h-5zM282 317v4h6v-4h-6zM127 311v6h7v-6h-7zM177 310v7h8v-7h-8zM257 302v9h6v-9h-6zM213 297v10h4v-10h-4zM241 235v72h6v-72h-6zM110 299v7h7v-7h-7zM174 297v6h11v-6h-11zM191 296v7h3v-7h-3zM301 293v9h4v-9h-4zM271 293v4h7v-4h-7zM167 290v6h6
v-6h-6zM260 267v26h7v-26h-7zM125 285v8h9v-8h-9zM293 200v90h3v-90h-3zM157 282v5h6v-5h-6zM100 247v40h8v-40h-8zM194 258v29h7v-29h-7zM140 277v7h4v-7h-4zM272 271v6h10v-6h-10zM149 267v10h8v-10h-8zM261 246v9h5v-9h-5zM181 246v7h7v-7h-7zM113 241v9h9v-9h-9z
M275 226v15h7v-15h-7zM163 234v7h12v-7h-12zM116 229v8h45v-8h-45zM207 229v6h9v-6h-9zM182 229v6h16v-6h-16zM249 221v8h5v-8h-5zM196 208v13h5v-13h-5zM172 197v24h5v-24h-5zM260 211v9h6v-9h-6zM270 205v6h5v-6h-5zM149 193v18h6v-18h-6zM205 197v11h8v-11h-8zM184 193
v15h4v-15h-4zM120 188v20h5v-20h-5zM246 197v9h15v-9h-15zM132 202v4h9v-4h-9zM91 192v14h10v-14h-10zM158 193v10h8v-10h-8zM105 197v6h9v-6h-9zM137 188v8h6v-8h-6zM272 185v8h12v-8h-12zM105 188v3h11v-3h-11zM293 171v17h6v-17h-6zM238 183v5h9v-5h-9zM194 182v6h26v-6
h-26zM167 182v5h20v-5h-20zM222 64v118h6v-118h-6zM113 177v5h44v-5h-44zM252 171v8h14v-8h-14zM79 168v10h20v-10h-20zM235 100v74h5v-74h-5zM194 77v96h7v-96h-7zM169 73v98h6v-98h-6zM271 163v5h16v-5h-16zM110 97v71h6v-71h-6zM141 76v88h5v-88h-5zM293 150v13h6v-13h-6
zM257 85v78h4v-78h-4zM81 0v163h6v-163h-6zM123 76v76h6v-76h-6zM274 71v79h6v-79h-6zM293 49v92h8v-92h-8zM152 71v50h9v-50h-9zM208 61v9h11v-9h-11zM173 58v3h28v-3h-28zM240 55v4h15v-4h-15zM143 52v6h17v-6h-17zM122 46v12h13v-12h-13zM91 55v3h16v-3h-16zM263 44v5h9
v-5h-9zM202 0v47h8v-47h-8zM225 0v44h7v-44h-7zM178 0v43h8v-43h-8zM280 0v41h8v-41h-8zM244 32v9h7v-9h-7zM100 33v4h61v-4h-61zM297 0v30h5v-30h-5zM260 26v4h7v-4h-7zM157 0v26h6v-26h-6zM137 0v24h7v-24h-7zM113 0v24h11v-24h-11zM248 0v20h5v-20h-5zM264 0v17h5v-17h-5
zM240 0v6h4v-6h-4z" />
    <glyph glyph-name="s_t" unicode="&#xfb06;" horiz-adv-x="594" 
d="M606 416h-94l-89 -331q-5 -20 -5 -43q0 -12 7.5 -20t20.5 -8q58 0 114 123l13 -6q-33 -72 -68.5 -107t-79.5 -35q-80 0 -80 51q0 25 23 109l72 267h-71l6 22h72l58 196q-17 -11 -50.5 -24.5t-41.5 -13.5q-32 0 -71.5 11.5t-66.5 11.5q-47 0 -69 -24.5t-22 -59.5
q0 -47 38 -85q36 0 62 -14.5t26 -39.5q0 -34 -35 -34q-13 0 -19.5 6t-13.5 20q-14 28 -30 44q-33 0 -54 -21.5t-21 -51.5q0 -27 10.5 -46.5t39.5 -55.5q27 -33 38 -48t21 -38t10 -46q0 -57 -45 -96.5t-111 -39.5q-50 0 -83.5 24.5t-33.5 53.5q0 35 37 35q25 0 33 -29l3 -11
q4 -11 6 -15.5t7 -14t10.5 -13.5t14 -8t19.5 -4q30 0 53.5 24t23.5 56q0 7 -0.5 13.5t-3 13.5t-3.5 11t-5 11.5t-5.5 10t-8 11t-7.5 10t-9.5 11.5t-9.5 12q-26 32 -36.5 46t-20 37.5t-9.5 49.5q0 46 38.5 83t95.5 42q-36 45 -36 91q0 55 35.5 89.5t86.5 34.5q43 0 90 -11
t70 -11q70 0 124 22l4 -5l-62 -221h94z" />
    <glyph glyph-name="T_h" horiz-adv-x="1019" 
d="M707 685q-62 -17 -119 -17q-15 0 -58 0.5t-56 0.5q-12 -41 -48 -176.5t-38 -143.5l-56 -214q-8 -32 -8 -55q0 -11 2.5 -20.5t9.5 -16t12 -10.5t17 -8t17.5 -5.5t21.5 -5t20 -4.5l-3 -10h-334l3 10q75 15 98.5 35t47.5 104q8 27 55 203l84 319q-101 2 -122 2
q-69 -1 -120.5 -23.5t-51.5 -63.5q0 -9 5.5 -14t12.5 -5q2 0 14.5 2.5t23.5 2.5q16 0 25.5 -13t9.5 -31t-13.5 -33.5t-36.5 -15.5q-25 0 -45 20t-20 62q0 53 49.5 93.5t152.5 40.5q28 0 175 -3q117 -3 131 -3q133 0 233 30h4l-127 -465q49 104 90.5 150t98.5 46
q44 0 66.5 -23t22.5 -52q0 -35 -19 -94l-65 -199q-10 -30 -10 -47q0 -21 23 -21q61 0 114 121l12 -7q-60 -139 -147 -139q-75 0 -75 50q0 27 27 110l51 154q16 49 16 78q0 35 -33 35q-42 0 -73 -31q-35 -33 -66 -94t-43 -98l-33 -106l-28 -92l-67 7l161 602q13 47 9 81z" />
    <glyph glyph-name="c_t" horiz-adv-x="628" 
d="M640 416h-94l-89 -331q-5 -20 -5 -43q0 -12 7.5 -20t20.5 -8q58 0 114 123l13 -6q-33 -72 -68.5 -107t-79.5 -35q-80 0 -80 51q0 25 23 109l72 267h-71l6 22h72l58 196q-17 -11 -50.5 -24.5t-41.5 -13.5q-28 0 -68.5 11.5t-68.5 11.5q-47 0 -69 -24.5t-22 -59.5
q0 -48 39 -85q39 0 65.5 -13t26.5 -40q0 -37 -36 -37q-5 0 -9 1t-6 2t-5.5 5t-4.5 5t-4.5 7t-4.5 7q-3 4 -13 21t-17 27q-16 0 -37.5 -20t-40.5 -52q-74 -128 -74 -254q0 -39 20.5 -65t52.5 -26q45 0 79 31t61 105l13 -8q-55 -157 -180 -157q-61 0 -92.5 35t-31.5 103
q0 67 31.5 138.5t83.5 122.5t107 60q-37 46 -37 92q0 55 35.5 89.5t86.5 34.5q44 0 92 -11t67 -11q70 0 124 22l4 -5l-62 -221h94z" />
    <glyph glyph-name="e_t" horiz-adv-x="634" 
d="M646 416h-94l-89 -331q-5 -20 -5 -43q0 -12 7.5 -20t20.5 -8q58 0 114 123l13 -6q-33 -72 -68.5 -107t-79.5 -35q-80 0 -80 51q0 25 23 109l72 267h-71l6 22h72l58 196q-17 -11 -50.5 -24.5t-41.5 -13.5q-28 0 -65 11.5t-65 11.5q-47 0 -69 -24.5t-22 -59.5q0 -46 41 -85
q34 -1 53.5 -21.5t19.5 -46.5q0 -63 -55 -101t-178 -62q-15 -57 -15 -119q0 -36 21 -59t57 -23q38 0 72 30t53 88l14 -8q-48 -139 -176 -139q-53 0 -86 32.5t-33 91.5q0 117 76 221.5t160 114.5q-38 46 -38 91q0 55 35.5 89.5t86.5 34.5q44 0 88.5 -11t63.5 -11q70 0 124 22
l4 -5l-62 -221h94zM292 394q0 18 -10 29t-26 11q-35 0 -75 -57t-63 -141q84 19 129 65.5t45 92.5z" />
    <glyph glyph-name="r_t" horiz-adv-x="681" 
d="M693 416h-94l-89 -331q-5 -20 -5 -43q0 -12 7.5 -20t20.5 -8q58 0 114 123l13 -6q-33 -72 -68.5 -107t-79.5 -35q-80 0 -80 51q0 25 23 109l72 267h-71l6 22h72l58 196q-17 -11 -50.5 -24.5t-41.5 -13.5q-28 0 -63 11.5t-63 11.5q-47 0 -69 -24.5t-22 -59.5q0 -47 44 -90
q13 5 26 5q22 0 41 -10.5t19 -34.5q0 -19 -10 -30.5t-28 -11.5q-13 0 -19.5 6t-14.5 21q-11 21 -19 21q-45 0 -114 -167q-3 -7 -82 -249l-75 8l56 176q50 156 50 210q0 17 -3.5 24.5t-15.5 7.5q-32 0 -58.5 -28.5t-55.5 -90.5l-13 6q32 74 69 108t85 34q57 0 57 -69
q0 -34 -25 -127q57 149 118 184q-46 50 -46 102q0 55 35.5 89.5t86.5 34.5q44 0 86.5 -11t61.5 -11q70 0 124 22l4 -5l-62 -221h94z" />
    <glyph glyph-name="hyphen.uc" horiz-adv-x="337" 
d="M345 380l-14 -54h-271l14 54h271z" />
    <glyph glyph-name="endash.uc" horiz-adv-x="465" 
d="M496 370l-10 -40h-465l10 40h465z" />
    <glyph glyph-name="emdash.uc" horiz-adv-x="880" 
d="M811 370l-10 -40h-680l10 40h680z" />
    <glyph glyph-name="parenleft.uc" horiz-adv-x="250" 
d="M352 774q-277 -309 -277 -638q0 -104 42 -238l-22 -6q-17 43 -25 66t-19 79t-11 110q0 88 22.5 175.5t50.5 149.5t74.5 129.5t74 100.5t68.5 78z" />
    <glyph glyph-name="parenright.uc" horiz-adv-x="250" 
d="M237 525q0 -88 -22.5 -175.5t-50.5 -149.5t-74.5 -129.5t-74 -100.5t-68.5 -78l-22 6q277 309 277 638q0 104 -42 238l22 6q17 -43 25 -66t19 -79t11 -110z" />
    <glyph glyph-name="bracketleft.uc" horiz-adv-x="333" 
d="M431 780l-5 -19l-179 -17l-216 -816l169 -17l-5 -19l-207 13l228 862z" />
    <glyph glyph-name="bracketright.uc" horiz-adv-x="333" 
d="M378 767l-228 -862l-215 -13l5 19l179 17l216 816l-169 17l5 19z" />
    <glyph glyph-name="braceleft.uc" horiz-adv-x="393" 
d="M487 780l-4 -13q-131 -3 -168 -143q-3 -12 -10 -52t-11 -55q-36 -138 -189 -172q105 -27 105 -120q0 -21 -8 -53q-4 -14 -18.5 -53.5t-18.5 -53.5q-9 -36 -9 -58q0 -100 97 -101l-4 -13h-5q-83 0 -123.5 37t-40.5 93q0 21 6 42q8 29 35.5 84t32.5 74q7 25 7 47
q0 32 -26 46.5t-91 20.5l4 15q87 7 121 30.5t50 83.5q5 20 6 75t8 83q19 68 83 112t166 44h5z" />
    <glyph glyph-name="braceright.uc" horiz-adv-x="393" 
d="M376 336l-4 -15q-87 -7 -121 -30.5t-50 -83.5q-5 -20 -6 -75t-8 -83q-19 -68 -83 -112t-166 -44h-5l4 13q131 3 168 143q3 12 10 52t11 55q36 138 189 172q-105 28 -105 120q0 21 8 53q4 14 18.5 53.5t18.5 53.5q9 36 9 58q0 100 -97 101l4 13h5q83 0 123.5 -37t40.5 -93
q0 -21 -6 -42q-8 -29 -35.5 -84t-32.5 -74q-7 -25 -7 -47q0 -32 26 -46.5t91 -20.5z" />
    <glyph glyph-name="guilsinglleft.uc" horiz-adv-x="303" 
d="M310 511l-134 -171l52 -162l-8 -5l-118 172l2 5l200 166z" />
    <glyph glyph-name="guilsinglright.uc" horiz-adv-x="303" 
d="M266 344l-2 -5l-200 -166l-6 5l134 171l-52 162l8 5z" />
    <glyph glyph-name="guillemotleft.uc" horiz-adv-x="423" 
d="M430 511l-135 -170l55 -163l-10 -5l-117 172l2 5l199 166zM308 504l-133 -163l56 -156l-9 -5l-119 165l2 5l197 159z" />
    <glyph glyph-name="guillemotright.uc" horiz-adv-x="423" 
d="M265 344l-2 -5l-199 -166l-6 5l135 171l-53 162l8 5zM385 344l-2 -5l-197 -159l-7 5l134 164l-55 155l8 5z" />
    <glyph glyph-name="exclamdown.uc" horiz-adv-x="337" 
d="M328 660q0 -22 -14.5 -37.5t-36.5 -15.5t-37 15.5t-15 37.5t15 37t37 15t36.5 -15t14.5 -37zM258 540l-30.5 -187.5l-34 -210.5t-17.5 -98q-15 -53 -54 -53q-53 0 -53 51q0 25 13 57q34 100 165 444z" />
    <glyph glyph-name="questiondown.uc" horiz-adv-x="471" 
d="M382 666q0 -22 -14.5 -37.5t-36.5 -15.5t-37 15.5t-15 37.5t15 37t37 15t36.5 -15t14.5 -37zM418 240q0 -111 -89 -184q-78 -63 -164 -63q-58 0 -93 32t-35 92q0 81 64 165q15 19 34.5 40.5t34 36l37 36.5l32.5 32q59 59 59 101q0 25 -30 25q-33 0 -83 -67l-10 6
q20 34 51 58t68 24q27 0 45 -18t18 -46q0 -32 -18.5 -61t-54.5 -68l-35 -35.5t-45.5 -48t-34.5 -41.5q-67 -89 -67 -175q0 -74 64 -74q59 0 117 72q35 43 60.5 101.5t25.5 99.5t-30 41q-14 0 -27 -7t-19.5 -13.5t-17.5 -20.5l-9 6q38 51 82 51q34 0 52 -26.5t18 -70.5z" />
    <glyph glyph-name="periodcentered.uc" horiz-adv-x="256" 
d="M204 328q0 -23 -16.5 -39.5t-39.5 -16.5q-22 0 -39 17t-17 39q0 23 16.5 40t39.5 17t39.5 -17t16.5 -40z" />
    <glyph glyph-name="bullet.uc" horiz-adv-x="556" 
d="M473 332q0 -72 -51.5 -123t-123.5 -51t-123 51t-51 123t51 123t123 51q73 0 124 -51t51 -123z" />
    <glyph glyph-name="ampersand.salt_2" horiz-adv-x="790" 
d="M842 572q0 -78 -56 -126.5t-130 -52.5q27 -35 38 -63t11 -73q0 -112 -96.5 -192.5t-220.5 -80.5q-140 0 -234 78.5t-94 189.5q0 48 17.5 84.5t44 55t50.5 27.5t43 9h8q-38 42 -38 89q0 83 62 137.5t133 54.5q62 0 94.5 -27t32.5 -65q0 -66 -61 -89l-7 5q22 22 22 59
q0 27 -25.5 41t-66.5 14q-54 0 -105 -40.5t-51 -103.5q0 -17 1 -26t7 -22t19 -26q31 0 57 -6q36 -8 36 -42q0 -26 -35 -26q-14 0 -24 7.5t-23.5 24.5t-21.5 25q-10 2 -21 2q-33 0 -55 -37t-22 -86q0 -98 88.5 -163.5t210.5 -65.5q115 0 188 57.5t73 137.5q0 56 -35 98
t-92 42q-74 0 -122 -29.5t-48 -76.5q0 -40 23.5 -59t48.5 -19q12 0 12 10q0 5 -8.5 16.5t-8.5 25.5q0 21 13 32.5t32 11.5q20 0 31.5 -15t11.5 -37q0 -28 -24.5 -46t-53.5 -18q-36 0 -63.5 26t-27.5 71q0 75 59 121q61 48 164 48q29 0 44.5 -0.5t31.5 -0.5q57 0 103 28.5
t46 86.5q0 49 -26 77t-59 28q-15 0 -27 -6.5t-12 -18.5q0 -3 9 -17t9 -23q0 -21 -12 -31.5t-31 -10.5q-20 0 -32.5 13t-12.5 35q0 34 31 55t63 21q47 0 80.5 -32.5t33.5 -90.5z" />
    <glyph glyph-name="zero.lnum" horiz-adv-x="500" 
d="M492 465q0 -153 -61 -287q-34 -74 -95 -134t-134 -60q-70 0 -112 62t-42 175q0 142 62 277q22 47 51 87.5t77.5 74.5t100.5 34q66 0 109.5 -61.5t43.5 -167.5zM412 502q0 178 -77 178q-47 0 -86 -58.5t-65 -138.5q-57 -177 -57 -342q0 -64 19 -103.5t58 -39.5q52 0 93 63
t66 147q49 162 49 294z" />
    <glyph glyph-name="one.lnum" horiz-adv-x="308" 
d="M321 698q-26 -74 -37 -120l-108 -441q-14 -58 -14 -85q0 -40 84 -42l-3 -10h-281l3 10q62 2 86 24q27 25 46 103l103 418q12 46 12 67q-21 -4 -51 -4q-27 0 -51 4l3 10q111 4 194 66h14z" />
    <glyph glyph-name="two.lnum" horiz-adv-x="435" 
d="M399 155l-63 -155h-367l12 38q161 109 261 229q63 75 95 147t32 163q0 103 -75 103q-62 0 -100.5 -52t-38.5 -114q0 -39 26 -63l-2 -8q-19 -11 -38 -11q-26 0 -40 19.5t-14 51.5q0 78 65 134.5t144 56.5q69 0 113.5 -39t43.5 -110q0 -141 -191 -309q-88 -77 -201 -158
h210q72 0 101 56l11 21h16z" />
    <glyph glyph-name="three.lnum" horiz-adv-x="446" 
d="M193 505l-1 -6q-17 -9 -32 -9q-24 0 -37.5 16.5t-13.5 42.5q0 61 54.5 103t130.5 42q75 0 118.5 -37t43.5 -102q0 -80 -50 -129t-133 -66q66 -9 104 -47t38 -98q0 -99 -77 -165t-189 -66q-75 0 -117.5 33t-42.5 81q0 29 15.5 51t39.5 22q34 0 34 -35q0 -8 -3 -23l-4 -20
q-7 -42 13.5 -68.5t65.5 -26.5q82 0 131 69.5t49 159.5q0 55 -19.5 87.5t-49.5 32.5q-13 0 -37 -13.5t-45 -13.5q-15 0 -23 7.5t-7 19.5q3 28 42 28q9 0 27 -4t26 -4q56 -1 94 59.5t38 134.5q0 119 -86 119q-51 0 -83 -37t-32 -88q0 -35 18 -50z" />
    <glyph glyph-name="four.lnum" horiz-adv-x="506" 
d="M360 587l-313 -322h232zM501 359l-56 -208h-13q4 32 4 42q0 29 -12.5 40.5t-44.5 11.5h-27l-24 -100q-16 -58 -16 -90q0 -23 18 -33t59 -12l-3 -10h-258l3 10q56 3 77.5 31t41.5 104l24 100h-258l5 22l422 431h22l-108 -433h27q42 0 62.5 20t41.5 74h13z" />
    <glyph glyph-name="five.lnum" horiz-adv-x="428" 
d="M82 319l114 371q53 -15 136 -15q79 0 123 19h5q-8 -46 -46.5 -76t-102.5 -30q-74 0 -121 14l-66 -214q49 41 122 41q67 0 110 -44.5t42 -116.5q0 -108 -78.5 -196t-190.5 -88q-56 0 -103.5 28t-47.5 81q0 28 15.5 51t40.5 23q33 0 33 -37q0 -8 -7 -41q-15 -92 70 -92
q43 0 79.5 29t58.5 72.5t34.5 92t12.5 91.5q0 59 -21 95t-62 36q-39 0 -76 -27.5t-58 -69.5q0 -6 -9 -6q-4 0 -6 2.5t-1 6.5z" />
    <glyph glyph-name="six.lnum" horiz-adv-x="488" 
d="M528 625q0 -17 -11.5 -29t-30.5 -12q-18 0 -27.5 11t-19.5 33q-22 46 -56 46q-55 0 -119 -74.5t-108 -211.5q59 53 138 53q80 0 125 -51.5t45 -131.5q0 -103 -72.5 -187.5t-174.5 -84.5q-82 0 -127 53t-45 151q0 133 56 251t142 185t175 67q56 0 83 -21t27 -47zM381 289
q0 63 -23.5 100.5t-68.5 37.5q-43 0 -77 -26t-54 -68t-30 -89t-10 -95q0 -71 27 -109.5t73 -38.5q66 0 114.5 88t48.5 200z" />
    <glyph glyph-name="seven.lnum" horiz-adv-x="428" 
d="M492 674l-342 -611q-1 -2 -8 -15l-9 -16.5t-8.5 -13.5t-11 -14l-11.5 -10t-15 -8t-17 -2q-39 0 -34 39q4 23 38 72l362 514h-185q-71 0 -103 -17t-67 -80l-12 3l72 191h11q3 -15 16 -20t44 -5h277z" />
    <glyph glyph-name="eight.lnum" horiz-adv-x="468" 
d="M480 552q0 -118 -162 -190q119 -67 119 -170q0 -86 -63 -147t-163 -61q-86 0 -138.5 42.5t-52.5 113.5q0 69 48.5 123.5t131.5 80.5q-97 58 -97 161q0 71 62 130t150 59q75 0 120 -41t45 -101zM408 563q0 48 -23.5 81t-71.5 33q-56 0 -96.5 -45t-40.5 -105
q0 -52 33.5 -89t96.5 -68q102 74 102 193zM359 171q0 97 -145 166q-56 -41 -87 -88.5t-31 -119.5q0 -59 29.5 -94t85.5 -35q59 0 103.5 48.5t44.5 122.5z" />
    <glyph glyph-name="nine.lnum" horiz-adv-x="488" 
d="M409 529q0 71 -26.5 110.5t-73.5 39.5q-67 0 -115.5 -90t-47.5 -201q0 -60 23.5 -98t65.5 -38q58 0 99 43.5t58 104t17 129.5zM481 488q0 -126 -46 -241.5t-130 -189t-183 -73.5q-63 0 -93 20.5t-30 46.5q0 20 12 31t31 11q5 0 9.5 -1t7.5 -2t6.5 -4.5t5 -4.5t4.5 -6.5
t4 -7t4.5 -9t4.5 -9.5q23 -46 57 -46q60 0 121.5 72t104.5 216q-51 -53 -141 -53q-75 0 -121 50.5t-46 130.5q0 106 73.5 190.5t177.5 84.5q80 0 123.5 -54.5t43.5 -151.5z" />
    <glyph glyph-name="numbersign.lnum" horiz-adv-x="640" 
d="M414 402h-108l-41 -115h108zM595 463l-25 -61h-132l-41 -115h142l-25 -61h-139l-63 -177h-25l63 177h-106l-63 -177h-25l63 177h-135l24 61h133l41 115h-142l24 61h140l63 178h25l-63 -178h106l63 178h25l-63 -178h135z" />
    <glyph glyph-name="plus.lnum" 
d="M390 105h-40v206h-205v39h205v205h40v-205h205v-39h-205v-206z" />
    <glyph glyph-name="minus.lnum" 
d="M595 311h-450v40h450v-40z" />
    <glyph glyph-name="plusminus.lnum" 
d="M390 145h-40v186h-195v39h195v185h40v-185h195v-39h-195v-186zM585 70h-430v39h430v-39z" />
    <glyph glyph-name="divide.lnum" 
d="M371 434q-24 0 -39 15.5t-15 39.5q0 23 15 38t39 15q23 0 37.5 -14t14.5 -37q0 -24 -14.5 -40.5t-37.5 -16.5zM595 311h-450v40h450v-40zM423 170q0 -23 -14.5 -37t-37.5 -14q-24 0 -39 15t-15 38q0 24 15 39.5t39 15.5q23 0 37.5 -16.5t14.5 -40.5z" />
    <glyph glyph-name="multiply.lnum" 
d="M537 136l-166 168l-167 -168l-28 28l168 167l-168 166l28 27l166 -168l166 168l28 -28l-168 -166l168 -166z" />
    <glyph glyph-name="equal.lnum" 
d="M575 376h-410v39h410v-39zM575 250h-410v39h410v-39z" />
    <glyph glyph-name="less.lnum" 
d="M554 119l-384 195v32l384 195v-47l-330 -164l330 -164v-47z" />
    <glyph glyph-name="greater.lnum" 
d="M570 314l-384 -195v47l330 164l-330 164v47l384 -195v-32z" />
    <glyph glyph-name="lessequal.lnum" 
d="M554 139l-384 185v32l384 185v-47l-330 -154l330 -154v-47zM575 70h-410v39h410v-39z" />
    <glyph glyph-name="greaterequal.lnum" 
d="M570 324l-384 -185v47l330 154l-330 154v47l384 -185v-32zM575 70h-410v39h410v-39z" />
    <glyph glyph-name="approxequal.lnum" 
d="M157 359q9 26 36 48.5t67 22.5q32 0 127 -10t115 -10q48 0 72 29h9q-28 -72 -95 -72q-35 0 -128.5 9.5t-113.5 9.5q-58 0 -79 -27h-10zM157 228q10 26 36.5 48.5t66.5 22.5q32 0 127 -10.5t115 -10.5q48 0 72 30h9q-29 -73 -95 -73q-35 0 -128.5 10t-113.5 10
q-56 0 -79 -27h-10z" />
    <glyph glyph-name="notequal.lnum" 
d="M541 479l-64 -64h98v-37h-135l-91 -91h226v-37h-263l-89 -89l-24 25l64 64h-98v37h135l91 91h-226v37h263l89 89z" />
    <glyph glyph-name="logicalnot.lnum" 
d="M590 125h-43v206h-404v39h447v-245z" />
    <glyph glyph-name="infinity.lnum" 
d="M212 196q-50 0 -87 39.5t-37 97.5q0 61 36 100t92 39q30 0 59.5 -17.5t47.5 -36t49 -55.5q33 39 51 57.5t47.5 35t61.5 16.5q53 0 86.5 -38t33.5 -99t-38 -100t-88 -39q-66 0 -156 108q-43 -51 -79.5 -79.5t-78.5 -28.5zM527 233q40 0 63.5 31t23.5 69q0 49 -24 76
t-64 27q-20 0 -41 -13.5t-35.5 -28l-57.5 -59.5q49 -58 75.5 -80t59.5 -22zM216 233q19 0 35 6.5t36.5 26t28.5 28t34 38.5q-39 52 -69 78t-67 26q-40 0 -62.5 -28.5t-22.5 -74.5q0 -44 23.5 -72t63.5 -28z" />
    <glyph glyph-name="dollar.lnum" horiz-adv-x="458" 
d="M313 671q-61 0 -98 -42t-37 -98q0 -76 76 -129zM338 175q1 47 -19 76.5t-66 57.5l-64 -291q53 -1 99.5 38.5t49.5 118.5zM459 577q0 -22 -10 -37.5t-26 -15.5q-34 0 -34 44v28q0 64 -58 74l-61 -277q71 -40 101.5 -79.5t30.5 -99.5q0 -88 -60.5 -148t-155.5 -61l-18 -92
h-18l19 92q-63 4 -104 36t-41 74q0 25 10 40t28 15q34 0 34 -45v-22q0 -31 19 -56t57 -29l65 299q-118 62 -118 174q0 92 62.5 143.5t134.5 49.5l19 89h18l-19 -90q57 -5 91 -36.5t34 -69.5z" />
    <glyph glyph-name="cent.lnum" horiz-adv-x="455" 
d="M329 535q-5 1 -18 1q-40 0 -78 -41t-61 -104.5t-23 -126.5q0 -100 73 -135zM458 463q0 -42 -40 -42q-5 0 -9.5 1t-8 2t-6 4.5t-4.5 5t-3.5 6.5t-2 7t-1.5 8t-1 8t-0.5 9t-0.5 8q-2 37 -34 50l-108 -407q19 -6 44 -6q102 0 133 99l10 -3q-10 -48 -52 -87.5t-124 -39.5
q-14 0 -20 1l-23 -87h-19l24 89q-73 10 -109.5 56.5t-36.5 116.5t29 134.5t88.5 108.5t135.5 44h14l23 87h19l-23 -89q57 -7 81.5 -32t24.5 -52z" />
    <glyph glyph-name="currency.lnum" horiz-adv-x="600" 
d="M315 194q62 0 103 40.5t41 99.5q0 62 -41 103t-103 41q-59 0 -99.5 -41t-40.5 -103q0 -58 40.5 -99t99.5 -41zM314 158q-62 0 -110 38l-36 -36l-24 25l35 35q-40 50 -40 113q0 69 41 118l-40 41l25 25l40 -41q48 37 109 37q68 0 117 -41l45 45l24 -25l-45 -45
q39 -47 39 -114q0 -61 -38 -109l39 -38l-25 -25l-38 38q-49 -41 -118 -41z" />
    <glyph glyph-name="yen.lnum" horiz-adv-x="584" 
d="M376 0h-273l3 10q58 6 83.5 29t44.5 109q22 77 27 114l-187 6l3 12l189 5q-14 60 -14 61l-158 6l3 12l149 6q-16 79 -47 191q-15 65 -29.5 84.5t-62.5 28.5l2 9h244l-2 -9q-4 -1 -15.5 -3t-16.5 -3t-14 -4t-13.5 -6.5t-9 -9.5t-6.5 -14q-4 -20 -1.5 -39t15.5 -73
q32 -136 49 -199l141 195q51 75 57 106q6 24 -6 34t-43 16l2 9h184l-2 -9q-11 -1 -20 -3.5t-19 -8t-17 -9t-17 -14l-15.5 -16t-17.5 -20t-17 -21l-19.5 -25.5l-20.5 -27q-29 -38 -116 -160l158 -6l-3 -12l-169 -6q-25 -34 -34 -61l186 -5l-3 -12l-191 -6q-27 -102 -30 -120
q-8 -37 -9 -60t1 -36.5t16.5 -20.5t25 -9t38.5 -6z" />
    <glyph glyph-name="Euro.lnum" horiz-adv-x="524" 
d="M482 175l11 -3q-7 -30 -24 -61t-42.5 -60t-63.5 -48t-81 -19q-105 0 -147 83t-20 222l-81 4l4 12l80 4q5 27 15 63l-55 5l4 12l57 4q39 129 120.5 214.5t178.5 85.5q67 0 94.5 -32t27.5 -70q0 -23 -11 -42.5t-34 -19.5q-20 0 -25.5 16t-7.5 46v8q-5 82 -61 82
q-53 0 -109 -78.5t-92 -208.5l227 -5l-3 -12l-230 -6q-6 -22 -13 -60l194 -6l-4 -12l-194 -5q-21 -143 14 -202.5t102 -59.5q61 0 105 43.5t64 105.5z" />
    <glyph glyph-name="J.salt" horiz-adv-x="478" 
d="M534 694q0 -10 -11 -21t-29.5 -28t-31.5 -37q-56 -88 -91 -266h101l-4 -21h-102q-23 -148 -45 -232q-40 -151 -106.5 -221.5t-167.5 -70.5q-55 0 -95.5 19.5t-40.5 51.5q0 24 13 39t36 15q9 0 15.5 -1t11 -5.5t7.5 -6.5t5 -9.5t3 -10t3 -13t2 -12.5q9 -52 58 -52
q48 0 86.5 71.5t76.5 238.5l46 199h-100l5 21h100q14 60 36.5 110t55.5 91.5t47 56l47 46.5q-56 -34 -101 -34q-42 0 -97.5 9.5t-78.5 9.5q-35 0 -58.5 -24t-30.5 -64h-14q10 83 47 127.5t92 44.5q47 0 105 -33t85 -33q68 0 79 36q8 23 26 23q6 0 10.5 -4t4.5 -10z" />
    <glyph glyph-name="K.salt" horiz-adv-x="678" 
d="M266 330q132 182 239 290q88 88 162 89q36 0 59 -16.5t24 -43.5q1 -24 -12.5 -39t-35.5 -15q-47 -1 -49 45q0 2 2.5 12.5t2.5 16.5q-1 13 -11 13q-51 0 -133 -80q-86 -84 -202 -240q22 12 49 12q144 0 167 -165l14 -97q7 -46 18.5 -69t37.5 -23q10 0 20 3t16.5 6.5
t13.5 10.5t10.5 11t9.5 12t7 9l7 -5q-8 -16 -20.5 -31t-41 -30t-62.5 -15q-63 0 -92 28.5t-30 97.5q0 11 -1 57.5t-1 58.5q-1 62 -24 91.5t-61 29.5q-29 0 -51 -15.5t-43 -56.5q-10 -34 -39 -147q-8 -30 -8 -55q0 -9 1 -16.5t5 -13.5l6.5 -10t9.5 -8l10.5 -6t13.5 -5t13 -4
t15.5 -3.5t15.5 -3.5l-3 -10h-314l3 10q41 8 56.5 12.5t32.5 20t25 37.5t22 69q8 27 55 203q39 144 54 210q10 50 10 56q0 16 -5.5 27.5t-11.5 18t-21.5 12t-23 7l-28.5 5.5l3 10h314l-3 -10q-41 -8 -56.5 -12.5t-33 -20t-25.5 -37.5t-22 -69q-3 -9 -11.5 -41l-22 -82z" />
    <glyph glyph-name="N.salt" horiz-adv-x="733" 
d="M861 651q0 -22 -16.5 -36t-34.5 -14q-17 0 -31 10.5t-14 27.5q0 8 2.5 20t2.5 15q0 14 -12 14q-36 0 -66 -63t-62 -188q-16 -63 -34.5 -168.5t-30.5 -187.5t-13 -87h-23l-274 591q-3 -10 -9 -53t-19 -116t-33 -150q-12 -46 -20.5 -75t-25 -72t-33.5 -68t-43.5 -43.5
t-56.5 -18.5q-44 0 -62 20t-18 46q0 23 16 36.5t35 13.5q17 0 31 -10t14 -26q0 -9 -2.5 -22t-2.5 -15q0 -14 12 -14q70 0 135 252q13 49 25 110.5t19 105.5t12.5 82.5t6.5 41.5q-14 37 -37 53t-74 26l2 9h180l251 -537q24 171 51 279l12.5 51t15 52t19 53.5t22.5 45.5
t28.5 40t34.5 24.5t42 10.5q78 0 78 -66z" />
    <glyph glyph-name="Ntilde.salt" horiz-adv-x="733" 
d="M649 890q-28 -104 -103 -104q-24 0 -53 17q-31 18 -53 18q-48 0 -67 -56l-15 4q31 102 104 102q31 0 59 -18q28 -16 51 -16q22 0 36 11.5t29 45.5zM861 651q0 -22 -16.5 -36t-34.5 -14q-17 0 -31 10.5t-14 27.5q0 8 2.5 20t2.5 15q0 14 -12 14q-36 0 -66 -63t-62 -188
q-16 -63 -34.5 -168.5t-30.5 -187.5t-13 -87h-23l-274 591q-3 -10 -9 -53t-19 -116t-33 -150q-12 -46 -20.5 -75t-25 -72t-33.5 -68t-43.5 -43.5t-56.5 -18.5q-44 0 -62 20t-18 46q0 23 16 36.5t35 13.5q17 0 31 -10t14 -26q0 -9 -2.5 -22t-2.5 -15q0 -14 12 -14
q70 0 135 252q13 49 25 110.5t19 105.5t12.5 82.5t6.5 41.5q-14 37 -37 53t-74 26l2 9h180l251 -537q24 171 51 279l12.5 51t15 52t19 53.5t22.5 45.5t28.5 40t34.5 24.5t42 10.5q78 0 78 -66z" />
    <glyph glyph-name="Q.salt" horiz-adv-x="722" 
d="M348 -16l-138 -77q52 13 80 13q48 0 95 -11q36 -8 133 -41.5t159 -33.5q93 0 135.5 28t55.5 76h12q-19 -93 -80 -148.5t-153 -55.5q-75 0 -181 66q-90 56 -124 70q-50 19 -110 19q-57 0 -79 -18q-5 -4 -14 -13.5t-15.5 -14t-14.5 -4.5q-23 0 -23 17q0 19 25 25
q5 2 19.5 4.5t19.5 5.5l172 92q-116 2 -185.5 80t-69.5 208q0 185 137 334q48 53 115 82t137 29q120 0 190.5 -79t70.5 -213q0 -89 -35.5 -175t-101.5 -155q-99 -102 -232 -110zM455 702q-128 0 -220 -202q-64 -140 -64 -293q0 -95 42.5 -152.5t114.5 -57.5q132 0 221 202
q64 144 64 294q0 95 -42.5 152t-115.5 57z" />
    <glyph glyph-name="T.salt" horiz-adv-x="617" 
d="M750 750q0 -33 -32.5 -57t-115.5 -24q-29 0 -74 1.5t-55 1.5l-85 -323l-56 -214q-8 -32 -8 -55q0 -11 2.5 -20.5t9.5 -16t12 -10.5t17 -8t17.5 -5.5t21.5 -5t20 -4.5l-3 -10h-334l3 10q75 15 98.5 35t47.5 104q8 27 55 203q55 200 81 319q-86 2 -122 2q-57 0 -110 -20.5
t-53 -59.5q0 -16 18 -16q2 0 15 3t24 3q16 0 25.5 -13.5t9.5 -31.5t-13.5 -33.5t-36.5 -15.5q-26 0 -45.5 18.5t-19.5 60.5q0 51 49.5 89t152.5 38q36 0 88 -1.5t74 -1.5q17 0 59.5 -0.5t77.5 -0.5q144 0 154 31q-41 10 -41 37q0 15 9 24t22 9q19 0 30 -12t11 -30z" />
    <glyph glyph-name="Y.salt" horiz-adv-x="575" 
d="M347 322l-46 -187q-7 -28 -7 -55q0 -11 2.5 -20t9.5 -16t11.5 -11t17.5 -8l18 -5.5t21.5 -5t20.5 -4.5l-3 -10h-334l3 10q42 9 57.5 13.5t35 19t29 38t22.5 68.5l48 190q9 36 9 116q-1 87 -24.5 143t-70.5 56q-59 0 -103 -141l-17 6q27 87 70 142t100 55q65 0 100 -64.5
t36 -156.5q2 -67 -9 -142q52 121 130 238q45 66 82 96t84 30q30 0 49 -16t19 -42q0 -22 -15 -36.5t-38 -14.5q-18 0 -30.5 11t-12.5 26q0 2 0.5 10.5t0.5 13.5q0 14 -10 14q-23 0 -49 -24.5t-66 -83.5q-73 -105 -141 -253z" />
    <glyph glyph-name="Yacute.salt" horiz-adv-x="575" 
d="M557 921q0 -16 -18 -36l-137 -147l-13 5l89 166q23 44 51 44t28 -32zM347 322l-46 -187q-7 -28 -7 -55q0 -11 2.5 -20t9.5 -16t11.5 -11t17.5 -8l18 -5.5t21.5 -5t20.5 -4.5l-3 -10h-334l3 10q42 9 57.5 13.5t35 19t29 38t22.5 68.5l48 190q9 36 9 116q-1 87 -24.5 143
t-70.5 56q-59 0 -103 -141l-17 6q27 87 70 142t100 55q65 0 100 -64.5t36 -156.5q2 -67 -9 -142q52 121 130 238q45 66 82 96t84 30q30 0 49 -16t19 -42q0 -22 -15 -36.5t-38 -14.5q-18 0 -30.5 11t-12.5 26q0 2 0.5 10.5t0.5 13.5q0 14 -10 14q-23 0 -49 -24.5t-66 -83.5
q-73 -105 -141 -253z" />
    <glyph glyph-name="Ydieresis.salt" horiz-adv-x="575" 
d="M387 826q0 -18 -13 -31.5t-31 -13.5q-19 0 -32 13.5t-13 31.5t13 31t32 13q18 0 31 -13t13 -31zM550 826q0 -18 -13 -31.5t-31 -13.5t-31.5 13.5t-13.5 31.5t13.5 31t31.5 13t31 -13t13 -31zM347 322l-46 -187q-7 -28 -7 -55q0 -11 2.5 -20t9.5 -16t11.5 -11t17.5 -8
l18 -5.5t21.5 -5t20.5 -4.5l-3 -10h-334l3 10q42 9 57.5 13.5t35 19t29 38t22.5 68.5l48 190q9 36 9 116q-1 87 -24.5 143t-70.5 56q-59 0 -103 -141l-17 6q27 87 70 142t100 55q65 0 100 -64.5t36 -156.5q2 -67 -9 -142q52 121 130 238q45 66 82 96t84 30q30 0 49 -16
t19 -42q0 -22 -15 -36.5t-38 -14.5q-18 0 -30.5 11t-12.5 26q0 2 0.5 10.5t0.5 13.5q0 14 -10 14q-23 0 -49 -24.5t-66 -83.5q-73 -105 -141 -253z" />
    <glyph glyph-name="Z.salt" horiz-adv-x="560" 
d="M686 -76q-22 -58 -66.5 -97t-97.5 -39q-40 0 -71.5 13.5t-55 41.5t-39 52t-36.5 64.5t-33 60.5q-50 79 -102 79q-26 0 -44.5 -6.5t-29.5 -19t-15.5 -22t-9.5 -24.5q-12 -40 -40 -40q-19 0 -19 25q0 10 4 20t13.5 22.5t18.5 23t26.5 29t29.5 32.5l202 219q172 190 231 263
q-77 -29 -124 -29q-42 0 -97 17t-92 17q-83 0 -101 -95h-15q13 85 54.5 132.5t107.5 47.5q54 0 130 -38t110 -38q9 0 16.5 1t13 2t9.5 4.5t6.5 4.5t5 7t3 7t3 9t2.5 9q7 23 16 31.5t24 8.5q22 0 22 -23q0 -16 -12 -33.5t-44 -52t-48 -53.5q-15 -18 -43.5 -48.5l-70 -74.5
l-65.5 -69q-147 -158 -219 -254q41 18 70 18q69 0 132 -63q29 -30 73.5 -90.5t77.5 -88t77 -27.5q69 0 100 64h12z" />
    <glyph glyph-name="Zcaron.salt" horiz-adv-x="560" 
d="M573 939l-120 -168q-25 -35 -51 -35q-25 0 -34 35l-45 168l14 7l77 -147l147 147zM686 -76q-22 -58 -66.5 -97t-97.5 -39q-40 0 -71.5 13.5t-55 41.5t-39 52t-36.5 64.5t-33 60.5q-50 79 -102 79q-26 0 -44.5 -6.5t-29.5 -19t-15.5 -22t-9.5 -24.5q-12 -40 -40 -40
q-19 0 -19 25q0 10 4 20t13.5 22.5t18.5 23t26.5 29t29.5 32.5l202 219q172 190 231 263q-77 -29 -124 -29q-42 0 -97 17t-92 17q-83 0 -101 -95h-15q13 85 54.5 132.5t107.5 47.5q54 0 130 -38t110 -38q9 0 16.5 1t13 2t9.5 4.5t6.5 4.5t5 7t3 7t3 9t2.5 9q7 23 16 31.5
t24 8.5q22 0 22 -23q0 -16 -12 -33.5t-44 -52t-48 -53.5q-15 -18 -43.5 -48.5l-70 -74.5l-65.5 -69q-147 -158 -219 -254q41 18 70 18q69 0 132 -63q29 -30 73.5 -90.5t77.5 -88t77 -27.5q69 0 100 64h12z" />
    <glyph glyph-name="ampersand.salt" horiz-adv-x="758" 
d="M743 143q0 -75 -54.5 -117.5t-119.5 -42.5q-118 0 -215 106q-79 -100 -178 -100q-64 0 -104.5 42.5t-40.5 100.5q0 42 13.5 78t41.5 66.5t53 51t64 48.5q-11 55 -11 105q0 81 45.5 150t122.5 69q58 0 91 -34t33 -83q0 -36 -14.5 -64.5t-45.5 -51.5t-62 -39.5t-81 -36.5
q42 -133 120 -234q3 6 10 19q30 57 49.5 91t52.5 83.5t64 74.5t60 25t43 -15t14 -38q0 -19 -14 -35.5t-36 -16.5q-47 0 -49 56q-16 -5 -32.5 -19t-36.5 -42t-34 -51l-41 -69l-43 -72q95 -126 203 -126q43 0 79 31.5t37 84.5q0 41 -32 69t-77 28l5 15q46 -2 83 -32t37 -75z
M419 610q0 34 -14.5 54.5t-40.5 20.5q-40 0 -71.5 -43t-31.5 -126q0 -62 17 -113q141 72 141 207zM347 98q-103 120 -140 264q-90 -76 -90 -197q0 -61 30.5 -94t75.5 -33q70 0 124 60z" />
    </font>
</defs>
</svg>
